<svg width="32" height="32" viewBox="0 0 32 32" fill="none" xmlns="http://www.w3.org/2000/svg">
<g clip-path="url(#clip0_2_405)">
<path d="M26.3333 0.392456H5.66667C2.53705 0.392456 0 2.92951 0 6.05912V25.9258C0 29.0554 2.53705 31.5925 5.66667 31.5925H26.3333C29.4629 31.5925 32 29.0554 32 25.9258V6.05912C32 2.92951 29.4629 0.392456 26.3333 0.392456Z" fill="#00005B"/>
<path d="M12.8553 19.0591H7.89649L6.88757 22.1992C6.87383 22.2564 6.84059 22.307 6.79356 22.3422C6.74653 22.3775 6.68867 22.3953 6.62995 22.3924H4.11836C3.97513 22.3924 3.92504 22.3137 3.9681 22.1563L8.26146 9.8426C8.30436 9.71382 8.34732 9.58792 8.39023 9.42321C8.44645 9.13681 8.4752 8.8457 8.4761 8.55384C8.47319 8.53343 8.47507 8.51262 8.4816 8.49306C8.48812 8.4735 8.49911 8.45573 8.51368 8.44115C8.52826 8.42657 8.54603 8.41558 8.56559 8.40906C8.58514 8.40253 8.60595 8.40064 8.62636 8.40355H12.0396C12.1395 8.40355 12.1968 8.43933 12.2113 8.5109L17.0842 22.1778C17.1271 22.321 17.0842 22.3925 16.9555 22.3924H14.1648C14.1169 22.3978 14.0686 22.3854 14.0291 22.3578C13.9896 22.3301 13.9615 22.289 13.9501 22.2422L12.8553 19.0591ZM8.66933 16.4114H12.0611C11.9752 16.1253 11.875 15.8033 11.7605 15.4454C11.6458 15.0878 11.5241 14.705 11.3956 14.2969C11.2668 13.8891 11.138 13.4812 11.0092 13.0733C10.8804 12.6655 10.7623 12.2719 10.6549 11.8927C10.5477 11.5137 10.4511 11.1666 10.3652 10.8515H10.3437C10.2229 11.4313 10.0724 12.0045 9.8929 12.5689C9.69231 13.2129 9.48838 13.8712 9.28111 14.5438C9.0735 15.2167 8.86958 15.8392 8.66933 16.4114Z" fill="#9999FF"/>
<path d="M24.9841 17.8369H20.7552C20.807 18.2554 20.9459 18.6583 21.1631 19.0197C21.4031 19.3775 21.7427 19.6573 22.1398 19.8246C22.678 20.0575 23.2601 20.1716 23.8464 20.1592C24.3116 20.1502 24.775 20.0993 25.231 20.0071C25.6389 19.9521 26.0386 19.8479 26.4214 19.6968C26.4928 19.6398 26.5288 19.6754 26.5288 19.8042V21.8435C26.5323 21.8991 26.5212 21.9546 26.4966 22.0045C26.472 22.0435 26.439 22.0765 26.3999 22.1011C25.9753 22.2892 25.5284 22.4223 25.07 22.4973C24.4473 22.6142 23.8144 22.6682 23.1809 22.6583C22.1646 22.6583 21.3131 22.5009 20.6264 22.186C19.9772 21.9 19.4038 21.4663 18.952 20.9195C18.53 20.4042 18.216 19.8092 18.0289 19.1699C17.8436 18.539 17.7497 17.8848 17.7499 17.2272C17.7479 16.5092 17.8602 15.7954 18.0826 15.1127C18.2968 14.4468 18.6355 13.8276 19.0808 13.2881C19.52 12.7548 20.0692 12.3228 20.6908 12.0215C21.3204 11.7139 22.0647 11.6036 22.9233 11.6036C23.6354 11.5856 24.3427 11.7249 24.9949 12.0114C25.5432 12.2453 26.026 12.6099 26.4009 13.0734C26.7526 13.5272 27.0215 14.0395 27.1952 14.5868C27.3643 15.1142 27.4512 15.6644 27.4528 16.2183C27.4528 16.5332 27.4421 16.8194 27.4206 17.0769C27.3992 17.3345 27.3813 17.5206 27.3669 17.6351C27.3614 17.6824 27.3386 17.726 27.303 17.7577C27.2674 17.7893 27.2214 17.8068 27.1737 17.8068C27.0878 17.8068 26.9411 17.8175 26.7337 17.839C26.526 17.8605 26.2684 17.8748 25.9609 17.8819C25.6529 17.8893 25.3276 17.8369 24.9841 17.8369ZM20.7552 15.8814H23.5673C23.9108 15.8814 24.1648 15.8778 24.3294 15.8706C24.4395 15.8596 24.5458 15.8244 24.6407 15.7675V15.6386C24.6364 15.4708 24.6074 15.3044 24.5548 15.1449C24.439 14.7787 24.2061 14.4606 23.892 14.2396C23.5779 14.0185 23.1999 13.9067 22.816 13.9213C22.4548 13.8995 22.0949 13.9833 21.7805 14.1624C21.466 14.3416 21.2104 14.6083 21.045 14.9302C20.8979 15.2297 20.8001 15.5508 20.7552 15.8814Z" fill="#9999FF"/>
</g>
<defs>
<clipPath id="clip0_2_405">
<rect width="32" height="31.2" fill="white" transform="translate(0 0.392456)"/>
</clipPath>
</defs>
</svg>
