<svg width="32" height="33" viewBox="0 0 32 33" fill="none" xmlns="http://www.w3.org/2000/svg">
<g clip-path="url(#clip0_2_366)">
<path d="M26.3333 0.983826H5.66667C2.53705 0.983826 0 3.52088 0 6.65049V26.5172C0 29.6468 2.53705 32.1838 5.66667 32.1838H26.3333C29.4629 32.1838 32 29.6468 32 26.5172V6.65049C32 3.52088 29.4629 0.983826 26.3333 0.983826Z" fill="#00005B"/>
<path d="M12.9391 19.6505H7.98028L6.96192 22.7795C6.94817 22.8367 6.91492 22.8872 6.8679 22.9225C6.82087 22.9578 6.76302 22.9755 6.70431 22.9727H4.19272C4.04949 22.9727 3.9994 22.894 4.04245 22.7366L8.35363 10.434C8.3966 10.3052 8.4395 10.1904 8.48248 10.0257C8.53863 9.73931 8.56738 9.44821 8.56834 9.15635C8.56543 9.13594 8.56731 9.11513 8.57383 9.09557C8.58035 9.07601 8.59134 9.05823 8.60591 9.04365C8.62049 9.02907 8.63827 9.01808 8.65783 9.01156C8.67739 9.00503 8.6982 9.00315 8.71861 9.00606H12.1318C12.2318 9.00606 12.289 9.04184 12.3035 9.11341L17.1586 22.758C17.2015 22.9013 17.1586 22.9728 17.0298 22.9727H14.2391C14.1911 22.978 14.1429 22.9657 14.1034 22.9381C14.0639 22.9104 14.0358 22.8693 14.0244 22.8225L12.9391 19.6505ZM8.76151 17.0028H12.1532C12.0674 16.7167 11.9672 16.3947 11.8527 16.0368C11.738 15.6792 11.6164 15.2964 11.4878 14.8883C11.359 14.4805 11.2302 14.0726 11.1014 13.6647C10.9726 13.2569 10.8545 12.8633 10.7472 12.4841C10.6398 12.1051 10.5432 11.758 10.4574 11.4429H10.4359C10.3151 12.0227 10.1646 12.5959 9.98515 13.1603C9.78456 13.8043 9.58061 14.4626 9.3733 15.1352C9.16568 15.8081 8.96175 16.4306 8.76151 17.0028Z" fill="#9999FF"/>
<path d="M18.6612 22.7685V14.8562C18.6612 14.613 18.6577 14.3411 18.6506 14.0405C18.6431 13.7399 18.6324 13.4537 18.6183 13.1818C18.6039 12.9101 18.5895 12.6577 18.5754 12.5001C18.5671 12.4787 18.5646 12.4554 18.5684 12.4327C18.5722 12.41 18.582 12.3888 18.5969 12.3713C18.6144 12.3559 18.6348 12.3442 18.6569 12.3368C18.6791 12.3294 18.7024 12.3265 18.7257 12.3283H20.8686C20.9425 12.3259 21.016 12.3406 21.0833 12.3713C21.1118 12.386 21.1364 12.4073 21.1551 12.4334C21.1737 12.4596 21.1859 12.4898 21.1906 12.5215C21.2191 12.6074 21.2513 12.704 21.2872 12.8113C21.3267 12.9534 21.3519 13.0991 21.3623 13.2462C21.7774 12.8826 22.2583 12.602 22.7791 12.4197C23.2969 12.2405 23.8412 12.1497 24.3891 12.1514C24.8158 12.1533 25.2396 12.2222 25.6449 12.3553C26.1129 12.505 26.5397 12.7612 26.8918 13.1039C27.2438 13.4467 27.5114 13.8665 27.6735 14.3303C27.8882 14.8813 27.9724 15.5934 27.9724 16.4662V22.7685C27.9724 22.8973 27.9151 22.9617 27.8006 22.9617L25.2923 22.9839C25.2631 22.9881 25.2334 22.9854 25.2054 22.9761C25.1775 22.9668 25.1521 22.9511 25.1312 22.9302C25.1104 22.9094 25.0947 22.884 25.0854 22.856C25.0761 22.8281 25.0734 22.7984 25.0776 22.7692V16.7897C25.0706 16.3893 24.9825 15.9944 24.8184 15.629C24.7033 15.3594 24.5133 15.1285 24.271 14.9635C23.9972 14.7959 23.6795 14.7137 23.3587 14.7274C23.0138 14.7225 22.6712 14.7844 22.3498 14.9099C22.056 15.0272 21.7866 15.1983 21.5555 15.4143V22.7685C21.5555 22.8973 21.4983 22.9617 21.3838 22.9617H18.8545C18.8282 22.9654 18.8015 22.963 18.7763 22.9546C18.7512 22.9462 18.7283 22.9321 18.7096 22.9134C18.6908 22.8946 18.6767 22.8718 18.6683 22.8466C18.6599 22.8215 18.6575 22.7947 18.6612 22.7685Z" fill="#9999FF"/>
</g>
<defs>
<clipPath id="clip0_2_366">
<rect width="32" height="31.2" fill="white" transform="translate(0 0.983826)"/>
</clipPath>
</defs>
</svg>
