<svg width="32" height="32" viewBox="0 0 32 32" fill="none" xmlns="http://www.w3.org/2000/svg">
<g clip-path="url(#clip0_2_308)">
<path d="M26.3333 0.192505H5.66667C2.53705 0.192505 0 2.72956 0 5.85917V25.7258C0 28.8555 2.53705 31.3925 5.66667 31.3925H26.3333C29.4629 31.3925 32 28.8555 32 25.7258V5.85917C32 2.72956 29.4629 0.192505 26.3333 0.192505Z" fill="#00005B"/>
<path d="M12.5764 18.8592H7.61758L6.60866 21.9993C6.59493 22.0565 6.56168 22.107 6.51465 22.1423C6.46762 22.1776 6.40976 22.1953 6.35104 22.1925H3.83945C3.69622 22.1925 3.64614 22.1138 3.68919 21.9564L7.98255 9.64267C8.02546 9.51389 8.06838 9.3672 8.11133 9.20259C8.17686 8.92372 8.21199 8.63856 8.21609 8.35212C8.21319 8.33171 8.21507 8.3109 8.22159 8.29134C8.22812 8.27178 8.2391 8.25401 8.25368 8.23943C8.26825 8.22485 8.28602 8.21386 8.30558 8.20734C8.32513 8.20081 8.34594 8.19892 8.36635 8.20182H11.7796C11.8795 8.20182 11.9368 8.23761 11.9513 8.30918L16.8053 21.9778C16.8482 22.121 16.8053 22.1926 16.6766 22.1925H13.8859C13.8379 22.1978 13.7897 22.1855 13.7502 22.1578C13.7107 22.1302 13.6826 22.0891 13.6712 22.0422L12.5764 18.8592ZM8.39043 16.2115H11.7822C11.6963 15.9254 11.5961 15.6034 11.4816 15.2455C11.3669 14.8879 11.2452 14.5051 11.1167 14.097C10.9879 13.6891 10.8591 13.2813 10.7303 12.8734C10.6015 12.4655 10.4834 12.072 10.376 11.6927C10.2688 11.3137 10.1722 10.9667 10.0863 10.6516H10.0648C9.944 11.2314 9.79354 11.8046 9.614 12.3689C9.41342 13.0129 9.20949 13.6713 9.00222 14.3439C8.7946 15.0167 8.59067 15.6393 8.39043 16.2115H8.39043Z" fill="#9999FF"/>
<path d="M27.0449 11.6872V19.8608C27.0449 20.2187 27.0485 20.5371 27.0557 20.8161C27.0627 21.0951 27.077 21.3384 27.0986 21.5459C27.1201 21.7536 27.1378 21.8779 27.1523 22.0207C27.1663 22.1355 27.1164 22.1925 27.002 22.1925H24.7051C24.6517 22.1981 24.598 22.1866 24.5517 22.1596C24.5053 22.1325 24.4688 22.0914 24.4475 22.0422C24.4166 21.9327 24.3915 21.8216 24.3723 21.7095C24.3522 21.6169 24.3414 21.5226 24.3401 21.4279C23.9081 21.8134 23.3943 22.0959 22.8374 22.2543C22.3546 22.3859 21.8567 22.4544 21.3563 22.4583C20.8641 22.4642 20.3744 22.388 19.9073 22.2329C19.4746 22.0852 19.0842 21.8347 18.7695 21.503C18.4279 21.1338 18.1715 20.6941 18.0182 20.215C17.8256 19.6006 17.7349 18.9589 17.7499 18.3152V11.7087C17.7465 11.6853 17.7487 11.6616 17.7561 11.6392C17.7636 11.6168 17.7761 11.5965 17.7928 11.5798C17.8095 11.5632 17.8298 11.5506 17.8521 11.5432C17.8745 11.5357 17.8983 11.5336 17.9216 11.5369H20.4727C20.496 11.5336 20.5198 11.5358 20.5422 11.5432C20.5645 11.5507 20.5848 11.5633 20.6015 11.5799C20.6181 11.5966 20.6307 11.6169 20.6382 11.6392C20.6456 11.6616 20.6478 11.6854 20.6445 11.7087V17.9717C20.6445 18.5587 20.7733 19.0202 21.0309 19.3563C21.2885 19.6927 21.8071 19.8608 22.4082 19.8608C22.7162 19.8646 23.0221 19.81 23.3097 19.6998C23.6109 19.5936 23.8957 19.4454 24.1556 19.2597V11.6872C24.1556 11.5873 24.22 11.5369 24.3488 11.5369H26.8947C26.9151 11.5341 26.9359 11.536 26.9554 11.5425C26.975 11.549 26.9927 11.56 27.0073 11.5746C27.0219 11.5892 27.0328 11.6069 27.0394 11.6265C27.0459 11.646 27.0478 11.6668 27.0449 11.6872Z" fill="#9999FF"/>
</g>
<defs>
<clipPath id="clip0_2_308">
<rect width="32" height="31.2" fill="white" transform="translate(0 0.192505)"/>
</clipPath>
</defs>
</svg>
