<svg width="32" height="32" viewBox="0 0 32 32" fill="none" xmlns="http://www.w3.org/2000/svg">
<g clip-path="url(#clip0_2_428)">
<path d="M26.3333 0.0495605H5.66667C2.53705 0.0495605 0 2.58661 0 5.71623V25.5829C0 28.7125 2.53705 31.2496 5.66667 31.2496H26.3333C29.4629 31.2496 32 28.7125 32 25.5829V5.71623C32 2.58661 29.4629 0.0495605 26.3333 0.0495605Z" fill="#330000"/>
<path d="M15.5067 18.7732H10.5479L9.53898 21.9074C9.52523 21.9645 9.49198 22.0151 9.44495 22.0504C9.39793 22.0856 9.34008 22.1034 9.28136 22.1006H6.76978C6.62655 22.1006 6.57646 22.0219 6.61951 21.8645L10.9128 9.49964C10.9558 9.37086 10.9987 9.22417 11.0416 9.05956C11.0978 8.77316 11.1266 8.48205 11.1275 8.1902C11.1246 8.16978 11.1265 8.14897 11.133 8.12941C11.1395 8.10985 11.1505 8.09208 11.1651 8.0775C11.1797 8.06291 11.1974 8.05193 11.217 8.0454C11.2366 8.03888 11.2574 8.03699 11.2778 8.0399H14.6909C14.7909 8.0399 14.8482 8.07569 14.8627 8.14726L19.7357 21.8859C19.7786 22.0291 19.7356 22.1007 19.6068 22.1006H16.8161C16.7682 22.1059 16.72 22.0936 16.6805 22.0659C16.641 22.0383 16.6129 21.9972 16.6015 21.9503L15.5067 18.7732ZM11.3207 16.0685H14.7124C14.6265 15.7824 14.5264 15.4603 14.4119 15.1024C14.2972 14.7449 14.1756 14.3621 14.047 13.954C13.9182 13.5461 13.7893 13.1383 13.6605 12.7304C13.5318 12.3225 13.4137 11.929 13.3064 11.5497C13.199 11.1707 13.1024 10.8237 13.0166 10.5086H12.9951C12.8743 11.0883 12.7238 11.6615 12.5443 12.2259C12.3437 12.8699 12.1398 13.5282 11.9325 14.2008C11.7249 14.8737 11.5209 15.4962 11.3207 16.0685H11.3207Z" fill="#FF9A00"/>
<path d="M22.6334 10.3154C22.4144 10.3242 22.1961 10.2867 21.9926 10.2053C21.7892 10.1239 21.6052 10.0005 21.4527 9.84314C21.3007 9.67896 21.1825 9.48633 21.1052 9.27634C21.0278 9.06635 20.9927 8.84314 21.0019 8.61954C20.9941 8.39816 21.0331 8.17761 21.1163 7.97232C21.1995 7.76702 21.3251 7.58159 21.4849 7.42814C21.6431 7.27627 21.8299 7.15729 22.0344 7.07807C22.2389 6.99885 22.457 6.96097 22.6763 6.96661C23.1915 6.96661 23.5958 7.12046 23.8892 7.42814C24.0373 7.58804 24.1523 7.77558 24.2279 7.98001C24.3034 8.18445 24.3378 8.40178 24.3292 8.61954C24.3382 8.84402 24.302 9.068 24.2227 9.2782C24.1434 9.4884 24.0227 9.68052 23.8677 9.84314C23.7057 10.0028 23.5124 10.1272 23.3 10.2085C23.0875 10.2898 22.8606 10.3262 22.6334 10.3154ZM21.1521 21.8859V11.6249C21.1521 11.4961 21.2092 11.4317 21.3239 11.4317H23.9643C24.0787 11.4317 24.1359 11.4961 24.1361 11.6249V21.8859C24.1361 22.0291 24.0788 22.1007 23.9643 22.1006H21.3454C21.2166 22.1006 21.1522 22.029 21.1521 21.8859Z" fill="#FF9A00"/>
</g>
<defs>
<clipPath id="clip0_2_428">
<rect width="32" height="31.2" fill="white" transform="translate(0 0.0495605)"/>
</clipPath>
</defs>
</svg>
