<svg width="32" height="33" viewBox="0 0 32 33" fill="none" xmlns="http://www.w3.org/2000/svg">
<g clip-path="url(#clip0_2_415)">
<path d="M25.6875 0.892456H6.3125C3.37849 0.892456 1 3.27094 1 6.20496V24.83C1 27.764 3.37849 30.1425 6.3125 30.1425H25.6875C28.6215 30.1425 31 27.764 31 24.83V6.20496C31 3.27094 28.6215 0.892456 25.6875 0.892456Z" fill="#49021F"/>
<path d="M11.8948 8.54451V21.3641C11.8948 21.4984 11.8344 21.5655 11.7137 21.5654H9.2785C9.17102 21.5654 9.11737 21.4983 9.11755 21.3641V8.54451C9.11755 8.43727 9.17792 8.3836 9.29865 8.3835H11.7338C11.7556 8.38039 11.7779 8.38241 11.7989 8.3894C11.8198 8.3964 11.8389 8.40817 11.8545 8.42379C11.8701 8.43941 11.8819 8.45844 11.8889 8.4794C11.8959 8.50035 11.8979 8.52264 11.8948 8.54451Z" fill="#FF3366"/>
<path d="M19.0995 21.7666C18.1732 21.7807 17.2554 21.5882 16.4128 21.2031C15.6279 20.8398 14.9718 20.2468 14.5312 19.5025C14.0749 18.7447 13.8468 17.7955 13.8469 16.6549C13.8394 15.7312 14.0754 14.8219 14.5312 14.0185C15.0007 13.2002 15.6912 12.5306 16.5236 12.0865C17.3955 11.6035 18.4487 11.362 19.6832 11.362C19.7501 11.362 19.8373 11.3653 19.9448 11.372C20.052 11.3789 20.1795 11.389 20.3272 11.4022V7.4376C20.3272 7.34388 20.3674 7.29673 20.4479 7.29673H22.9836C23 7.29438 23.0168 7.29589 23.0325 7.30113C23.0482 7.30636 23.0625 7.31519 23.0742 7.3269C23.0859 7.33861 23.0948 7.3529 23.1 7.36861C23.1053 7.38433 23.1068 7.40105 23.1044 7.41746V19.3113C23.1044 19.5396 23.1145 19.7879 23.1346 20.056C23.1547 20.3245 23.1715 20.566 23.1849 20.7805C23.1874 20.8223 23.1772 20.8638 23.1556 20.8998C23.1341 20.9357 23.1022 20.9642 23.0642 20.9817C22.41 21.2546 21.7286 21.4569 21.0316 21.5855C20.3942 21.7031 19.7477 21.7637 19.0995 21.7666ZM20.3271 19.2711V13.777C20.2184 13.7475 20.1073 13.7273 19.9951 13.7166C19.858 13.7028 19.7203 13.6961 19.5825 13.6965C19.0942 13.6916 18.6115 13.8019 18.1738 14.0185C17.7474 14.2304 17.3834 14.5494 17.1173 14.9442C16.8421 15.3467 16.7046 15.8767 16.7047 16.5341C16.6949 16.9728 16.7665 17.4095 16.916 17.8221C17.0376 18.1545 17.2298 18.4566 17.4795 18.7076C17.7185 18.9385 18.0078 19.1107 18.3247 19.2107C18.6594 19.3191 19.0093 19.3735 19.3611 19.3717C19.5489 19.3717 19.7233 19.365 19.8844 19.3516C20.0344 19.3403 20.1828 19.3133 20.3271 19.2711Z" fill="#FF3366"/>
</g>
<defs>
<clipPath id="clip0_2_415">
<rect width="32" height="32" fill="white" transform="translate(0 0.392456)"/>
</clipPath>
</defs>
</svg>
