<svg width="32" height="32" viewBox="0 0 32 32" fill="none" xmlns="http://www.w3.org/2000/svg">
<g clip-path="url(#clip0_2_2)">
<path d="M26.3333 0.392456H5.66667C2.53705 0.392456 0 2.92951 0 6.05912V25.9258C0 29.0554 2.53705 31.5925 5.66667 31.5925H26.3333C29.4629 31.5925 32 29.0554 32 25.9258V6.05912C32 2.92951 29.4629 0.392456 26.3333 0.392456Z" fill="#001E36"/>
<path d="M7.20556 22.2718V8.55462C7.20556 8.45465 7.24852 8.40436 7.3344 8.40436C7.56311 8.40436 7.77194 8.401 8.08691 8.39361C8.40156 8.38658 8.74145 8.37943 9.10658 8.37216C9.47155 8.3651 9.85797 8.35794 10.2658 8.35068C10.6736 8.34365 11.0779 8.34007 11.4786 8.33994C12.5661 8.33994 13.482 8.47589 14.2264 8.74781C14.8978 8.97494 15.5102 9.34895 16.0189 9.8426C16.4501 10.2705 16.7833 10.7868 16.9956 11.356C17.1964 11.9099 17.2982 12.4949 17.2962 13.0841C17.2962 14.2292 17.0314 15.1737 16.5019 15.9177C15.9689 16.6647 15.2197 17.2304 14.3552 17.5384C13.4536 17.8748 12.4517 17.9889 11.3499 17.9889C11.0349 17.9889 10.8131 17.9854 10.6844 17.9782C10.5556 17.9711 10.3624 17.9675 10.1048 17.9674V22.2504C10.1086 22.2766 10.1062 22.3034 10.0978 22.3285C10.0894 22.3537 10.0753 22.3765 10.0565 22.3953C10.0378 22.414 10.0149 22.4281 9.98975 22.4365C9.9646 22.4449 9.93784 22.4473 9.9116 22.4436H7.35582C7.25556 22.4436 7.20556 22.3865 7.20556 22.2718ZM10.1048 10.9803V15.4543C10.2906 15.4688 10.4623 15.4759 10.62 15.4758H11.3284C11.8496 15.4741 12.3674 15.3914 12.8633 15.2308C13.2886 15.1044 13.6686 14.8585 13.9581 14.5224C14.2371 14.1933 14.3767 13.7354 14.3767 13.1485C14.388 12.7333 14.28 12.3235 14.0654 11.9678C13.8398 11.6239 13.5137 11.3578 13.1316 11.2058C12.6326 11.0118 12.0996 10.9205 11.5645 10.9374C11.221 10.9374 10.9169 10.941 10.6522 10.9481C10.3872 10.9555 10.2048 10.9663 10.1048 10.9803V10.9803Z" fill="#31A8FF"/>
<path d="M25.5962 14.6408C25.1927 14.4336 24.763 14.2819 24.3189 14.19C23.8295 14.0777 23.3291 14.0201 22.8269 14.0183C22.5553 14.0109 22.2841 14.0435 22.0219 14.1149C21.8551 14.1521 21.7068 14.2471 21.6033 14.3832C21.5334 14.4921 21.4961 14.6188 21.496 14.7482C21.4999 14.8737 21.5452 14.9945 21.6248 15.0916C21.7502 15.2383 21.9034 15.3587 22.0756 15.4458C22.3817 15.6107 22.697 15.7576 23.0201 15.8859C23.7406 16.1271 24.429 16.4551 25.0702 16.8626C25.507 17.1383 25.8684 17.5182 26.1221 17.9682C26.3353 18.3942 26.4421 18.8657 26.4333 19.342C26.4462 19.9711 26.2664 20.589 25.9182 21.113C25.5453 21.645 25.0274 22.0585 24.4262 22.3044C23.7748 22.5906 22.9698 22.7337 22.0112 22.7338C21.4022 22.7399 20.7943 22.6824 20.1973 22.562C19.7269 22.4758 19.269 22.3316 18.8341 22.1327C18.7872 22.1085 18.7481 22.0714 18.7215 22.0257C18.6949 21.9801 18.6818 21.9279 18.6838 21.8751V19.5567C18.6813 19.534 18.6849 19.511 18.6944 19.4902C18.7038 19.4694 18.7188 19.4516 18.7376 19.4386C18.756 19.4282 18.7772 19.4237 18.7983 19.4256C18.8193 19.4275 18.8393 19.4358 18.8556 19.4494C19.3692 19.7522 19.9269 19.9731 20.5085 20.1041C21.0212 20.2326 21.5471 20.301 22.0756 20.308C22.5764 20.308 22.9449 20.2436 23.1811 20.1148C23.2878 20.066 23.378 19.9873 23.4409 19.8882C23.5038 19.7892 23.5366 19.674 23.5353 19.5567C23.5353 19.3709 23.428 19.192 23.2133 19.02C22.9987 18.8483 22.5622 18.6408 21.9038 18.3975C21.2298 18.1629 20.5907 17.8379 20.004 17.4315C19.5844 17.1397 19.2389 16.7537 18.9951 16.3045C18.784 15.8815 18.6773 15.4141 18.6839 14.9414C18.6827 14.3734 18.8387 13.8162 19.1346 13.3314C19.4721 12.7975 19.9567 12.3726 20.53 12.1078C21.1596 11.7932 21.9467 11.6357 22.8914 11.6355C23.4446 11.6311 23.9973 11.6705 24.5443 11.7536C24.9404 11.8038 25.3276 11.9086 25.695 12.0648C25.7242 12.0732 25.751 12.0882 25.7733 12.1087C25.7957 12.1292 25.813 12.1546 25.8238 12.1829C25.8383 12.2353 25.8456 12.2895 25.8453 12.3439V14.512C25.8468 14.5373 25.8416 14.5624 25.8303 14.585C25.819 14.6076 25.802 14.6269 25.7809 14.6408C25.7522 14.6551 25.7206 14.6625 25.6885 14.6625C25.6565 14.6625 25.6249 14.6551 25.5962 14.6408Z" fill="#31A8FF"/>
</g>
<defs>
<clipPath id="clip0_2_2">
<rect width="32" height="31.2" fill="white" transform="translate(0 0.392456)"/>
</clipPath>
</defs>
</svg>
