<svg width="32" height="32" viewBox="0 0 32 32" fill="none" xmlns="http://www.w3.org/2000/svg">
<g clip-path="url(#clip0_2_438)">
<path d="M5.66667 0.0495605H26.3333C29.4667 0.0495605 32 2.58289 32 5.71623V25.5829C32 28.7162 29.4667 31.2496 26.3333 31.2496H5.66667C2.53333 31.2496 0 28.7162 0 25.5829V5.71623C0 2.58289 2.53333 0.0495605 5.66667 0.0495605Z" fill="#00005B"/>
<path d="M7.60001 21.9296V8.20958C7.60001 8.11624 7.64001 8.06291 7.73334 8.06291C7.96001 8.06291 8.17334 8.06291 8.48001 8.04958C8.80001 8.03624 9.13334 8.03624 9.49334 8.02291C9.85334 8.00958 10.24 8.00958 10.6533 7.99624C11.0667 7.98291 11.4667 7.98291 11.8667 7.98291C12.96 7.98291 13.8667 8.11624 14.6133 8.39624C15.28 8.62291 15.8933 8.99624 16.4 9.48958C16.8267 9.91624 17.16 10.4362 17.3733 11.0096C17.5733 11.5696 17.68 12.1429 17.68 12.7429C17.68 13.8896 17.4133 14.8362 16.88 15.5829C16.3467 16.3296 15.6 16.8896 14.7333 17.2096C13.8267 17.5429 12.8267 17.6629 11.7333 17.6629C11.4133 17.6629 11.2 17.6629 11.0667 17.6496C10.9333 17.6362 10.7467 17.6362 10.4933 17.6362V21.9162C10.5067 22.0096 10.44 22.0896 10.3467 22.1029C10.3333 22.1029 10.32 22.1029 10.2933 22.1029H7.76001C7.65334 22.1029 7.60001 22.0496 7.60001 21.9296ZM10.5067 10.6362V15.1162C10.6933 15.1296 10.8667 15.1429 11.0267 15.1429H11.7333C12.2533 15.1429 12.7733 15.0629 13.2667 14.9029C13.6933 14.7829 14.0667 14.5296 14.36 14.1962C14.64 13.8629 14.7733 13.4096 14.7733 12.8229C14.7867 12.4096 14.68 11.9962 14.4667 11.6362C14.24 11.2896 13.92 11.0229 13.5333 10.8762C13.04 10.6762 12.5067 10.5962 11.96 10.6096C11.6133 10.6096 11.3067 10.6096 11.0533 10.6229C10.7867 10.6096 10.6 10.6229 10.5067 10.6362Z" fill="#9999FF"/>
<path d="M19.5467 11.4096H21.88C22.0134 11.4096 22.12 11.5029 22.16 11.6229C22.2 11.7296 22.2267 11.8362 22.24 11.9562C22.2667 12.0896 22.2934 12.2362 22.3067 12.3696C22.32 12.5162 22.3334 12.6762 22.3334 12.8496C22.7334 12.3829 23.2134 11.9962 23.76 11.7029C24.3734 11.3562 25.08 11.1829 25.7867 11.1829C25.88 11.1696 25.96 11.2362 25.9734 11.3296C25.9734 11.3429 25.9734 11.3562 25.9734 11.3829V13.9829C25.9734 14.0896 25.9067 14.1296 25.76 14.1296C25.28 14.1162 24.7867 14.1562 24.32 14.2629C23.9334 14.3429 23.56 14.4629 23.2 14.6229C22.9467 14.7429 22.7067 14.9029 22.52 15.1162V21.9162C22.52 22.0496 22.4667 22.1029 22.3467 22.1029H19.72C19.6134 22.1162 19.52 22.0496 19.5067 21.9429C19.5067 21.9296 19.5067 21.9029 19.5067 21.8896V14.5029C19.5067 14.1829 19.5067 13.8496 19.4934 13.5029C19.48 13.1562 19.48 12.8096 19.4667 12.4629C19.4667 12.1562 19.44 11.8629 19.4134 11.5562C19.4 11.4896 19.44 11.4229 19.5067 11.4096C19.5067 11.3962 19.5334 11.3962 19.5467 11.4096Z" fill="#9999FF"/>
</g>
<defs>
<clipPath id="clip0_2_438">
<rect width="32" height="31.2" fill="white" transform="translate(0 0.0495605)"/>
</clipPath>
</defs>
</svg>
