<svg width="32" height="32" viewBox="0 0 32 32" fill="none" xmlns="http://www.w3.org/2000/svg">
<g clip-path="url(#clip0_2_376)">
<path d="M26.3333 0.192505H5.66667C2.53705 0.192505 0 2.72956 0 5.85917V25.7258C0 28.8555 2.53705 31.3925 5.66667 31.3925H26.3333C29.4629 31.3925 32 28.8555 32 25.7258V5.85917C32 2.72956 29.4629 0.192505 26.3333 0.192505Z" fill="#470137"/>
<path d="M16.8223 8.39765L12.8295 14.9879L17.1014 21.9861C17.1288 22.035 17.1365 22.0926 17.1229 22.147C17.1084 22.1974 17.0585 22.1657 16.9726 22.1798H13.9243C13.7096 22.1798 13.5594 22.1722 13.4735 22.029C13.187 21.4709 12.9008 20.9163 12.6148 20.3653C12.3284 19.8145 12.0243 19.2528 11.7025 18.6802C11.3805 18.108 11.0621 17.5284 10.7473 16.9414H10.7258C10.4393 17.5139 10.1424 18.0864 9.83489 18.6587C9.52702 19.2313 9.22292 19.8001 8.92259 20.3653C8.62207 20.9308 8.31439 21.4925 7.99954 22.0504C7.94219 22.1793 7.84186 22.1925 7.69896 22.1925H4.75807C4.70104 22.1925 4.66882 22.2151 4.66146 22.1578C4.65338 22.1054 4.66485 22.0519 4.69368 22.0075L8.83672 15.2026L4.80098 8.37616C4.75807 8.31916 4.75091 8.27266 4.77949 8.23664C4.79534 8.21833 4.81523 8.20395 4.83759 8.19463C4.85995 8.18532 4.88417 8.18132 4.90833 8.18297H7.93509C8.00109 8.17933 8.06708 8.19033 8.12832 8.21519C8.17965 8.24427 8.22368 8.28465 8.2571 8.33326C8.51471 8.90579 8.80093 9.47822 9.11576 10.0506C9.4304 10.6231 9.74883 11.1884 10.071 11.7464C10.393 12.3046 10.69 12.8699 10.9619 13.4423H10.9834C11.2695 12.8557 11.5593 12.2832 11.8528 11.725C12.146 11.1669 12.4465 10.6051 12.7544 10.0398C13.062 9.47467 13.3589 8.91296 13.6452 8.35471C13.6617 8.30174 13.6912 8.25375 13.7311 8.21519C13.7841 8.18828 13.8437 8.1771 13.9029 8.18297H16.715C16.7421 8.17627 16.7707 8.17901 16.796 8.19071C16.8214 8.20242 16.842 8.22241 16.8545 8.24738C16.867 8.27236 16.8706 8.30085 16.8647 8.32815C16.8589 8.35546 16.8439 8.37997 16.8223 8.39765L16.8223 8.39765Z" fill="#FF61F6"/>
<path d="M22.983 22.4583C21.9949 22.4734 21.0159 22.268 20.1172 21.8573C19.2799 21.4698 18.58 20.8372 18.1101 20.0433C17.6234 19.235 17.3801 18.2224 17.3802 17.0058C17.3721 16.0206 17.6239 15.0506 18.1101 14.1936C18.6109 13.3208 19.3474 12.6066 20.2353 12.1328C21.1654 11.6176 22.2888 11.36 23.6055 11.3601C23.6769 11.3601 23.77 11.3636 23.8846 11.3708C23.999 11.3782 24.1349 11.3889 24.2924 11.403V7.17406C24.2924 7.07409 24.3354 7.02379 24.4213 7.02379H27.126C27.1435 7.02129 27.1614 7.0229 27.1781 7.02848C27.1949 7.03407 27.2101 7.04348 27.2226 7.05597C27.2351 7.06847 27.2446 7.0837 27.2502 7.10047C27.2558 7.11723 27.2574 7.13507 27.2549 7.15257V19.8394C27.2549 20.0829 27.2656 20.3477 27.287 20.6336C27.3085 20.9201 27.3264 21.1777 27.3407 21.4064C27.3434 21.451 27.3325 21.4954 27.3095 21.5337C27.2865 21.572 27.2525 21.6025 27.2119 21.6211C26.5141 21.9121 25.7873 22.128 25.0438 22.2651C24.364 22.3906 23.6743 22.4552 22.983 22.4583ZM24.2924 19.7964V13.9361C24.1764 13.9046 24.0579 13.8831 23.9383 13.8716C23.792 13.8569 23.6451 13.8498 23.4982 13.8502C22.9772 13.845 22.4624 13.9627 21.9955 14.1936C21.5407 14.4197 21.1524 14.76 20.8685 15.1811C20.5751 15.6104 20.4284 16.1757 20.4284 16.877C20.418 17.3449 20.4944 17.8108 20.6538 18.2508C20.7836 18.6054 20.9886 18.9277 21.2549 19.1954C21.5098 19.4417 21.8185 19.6254 22.1565 19.7321C22.5135 19.8477 22.8867 19.9056 23.262 19.9038C23.4623 19.9038 23.6483 19.8966 23.8202 19.8823C23.9802 19.8703 24.1384 19.8415 24.2924 19.7964Z" fill="#FF61F6"/>
</g>
<defs>
<clipPath id="clip0_2_376">
<rect width="32" height="31.2" fill="white" transform="translate(0 0.192505)"/>
</clipPath>
</defs>
</svg>
