<svg id="Layer_1" data-name="Layer 1" xmlns="http://www.w3.org/2000/svg" viewBox="0 0 100 100"><defs><style>.cls-1{fill:#9987ff;}</style></defs><path class="cls-1" d="M87.72,36.41c-.35-2.68-.4-7.29,2.08-8.83a.63.63,0,0,0,.12-.11c2-.65,3.43-1.56,2.33-2.79l-30-9L13.76,22.4s-5.55.79-5.06,9.43c.27,4.69,1.75,7,3,8.14l-4,1.2c-1.1,1.22.3,2.14,2.34,2.79l.11.1c2.48,1.55,2.44,6.16,2.08,8.83-8.92,2.53-5.72,3.36-5.72,3.36l2,.47C7.14,58,5.78,60.33,6,64.8c.5,8.63,5.06,9.23,5.06,9.23L42.84,84.35,90.77,72.74s3.2-.83-5.72-3.36c-.36-2.67-.41-7.28,2.08-8.83a.63.63,0,0,0,.12-.11c2-.65,3.43-1.56,2.33-2.78L87.5,57c1.39-.84,3.47-3,3.8-8.72.22-3.91-.8-6.2-2-7.55l4.12-1S96.64,38.94,87.72,36.41Zm-40.09-.12,8.06-1.65L82.93,29,87,28.21c-1.3,2.37-1.24,5.62-1,7.7.05.48.1.91.15,1.24l-4.44,1.1L47.3,46.8ZM13,44.69l4.06.84,26.16,5.38,2.28.46h0l6.86,1.41.33,10.51L17.37,54.5l-3.48-.87c0-.32.1-.75.15-1.23C14.26,50.32,14.31,47.07,13,44.69ZM11.44,31.41c0-2.3.36-4,1.19-4.8A2.13,2.13,0,0,1,14.2,26a2.9,2.9,0,0,1,.4,0l20.9,6.82,10.43,3.4-.34,10.58L16.33,38.58l-1.54-.43-.2,0C14.47,38.11,11.58,37.85,11.44,31.41ZM42.92,79.76,12.11,71.13a.58.58,0,0,0-.19,0c-.12,0-3-.28-3.16-6.71,0-2.3.37-4,1.19-4.81a2.16,2.16,0,0,1,1.58-.65,2.66,2.66,0,0,1,.39,0h0L43.26,69.18ZM83.29,68.89c0,.47.1.9.15,1.23L44.62,79.78,45,69.27l8.3-1.71,1.23.3,4.59-1.49L80.26,62l4.06-.84C83,63.55,83.07,66.8,83.29,68.89Zm2.13-14.28a.64.64,0,0,0-.2,0l-2.93.82L54.41,63.28,54.07,52.7l9.15-3,22.14-7.22a2.31,2.31,0,0,1,2,.61c.83.84,1.24,2.5,1.19,4.8C88.42,54.33,85.53,54.6,85.42,54.61Z"/></svg>