<svg id="Layer_1" data-name="Layer 1" xmlns="http://www.w3.org/2000/svg" viewBox="0 0 100 100"><defs><style>.cls-1{fill:#9987ff;}</style></defs><path class="cls-1" d="M59.72,40.28a2.41,2.41,0,0,0,2.64.51l23.79-10.2a2.4,2.4,0,0,0,.75-3.9l-5.1-5.1,8.5-8.49a2.4,2.4,0,0,0-2.65-3.91L63.87,19.38a2.43,2.43,0,0,0-1.41,1.76,2.38,2.38,0,0,0,.66,2.15l5.09,5.1-8.49,8.49A2.4,2.4,0,0,0,59.72,40.28Z"/><path class="cls-1" d="M41.91,13.92l-8.49,8.49L47,36l8.49-8.49a2.4,2.4,0,0,0,0-3.4L45.31,13.92A2.4,2.4,0,0,0,41.91,13.92Z"/><path class="cls-1" d="M86.08,58.09a2.4,2.4,0,0,0,0-3.4L75.89,44.5a2.4,2.4,0,0,0-3.4,0L64,53,77.59,66.58Z"/><path class="cls-1" d="M62.3,81.87,74.19,70,60.6,56.39,48.71,68.28a12,12,0,0,1-17-17L43.61,39.4,30,25.81,18.13,37.7A31.23,31.23,0,0,0,62.3,81.87Z"/></svg>