<svg id="Layer_1" data-name="Layer 1" xmlns="http://www.w3.org/2000/svg" viewBox="0 0 100 100"><defs><style>.cls-1{fill:#9987ff;}</style></defs><path class="cls-1" d="M41.85,31.94a3.68,3.68,0,0,0,5.74,2.76,3.1,3.1,0,0,1,4.85,2.55V47.48H60.1a8.55,8.55,0,1,1,16.61,0h7.74A16,16,0,0,0,71.78,22.86a12.21,12.21,0,0,0-19.34-12V26.1a3.1,3.1,0,0,1-4.85,2.55A3.67,3.67,0,0,0,41.85,31.94Z"/><path class="cls-1" d="M26,47.48a3.09,3.09,0,0,1,2.55,4.84,3.67,3.67,0,1,0,6.05,0,3.09,3.09,0,0,1,2.55-4.84h10.4V40a8.55,8.55,0,1,1,0-16.6V10.83c-8.76-6.6-21.3.93-19.38,11.87-12.7.67-19.13,14.88-12.59,24.78Z"/><path class="cls-1" d="M84.37,52.36H74a3.09,3.09,0,0,1-2.54-4.84,3.67,3.67,0,1,0-6.06,0,3.09,3.09,0,0,1-2.55,4.84H52.44v7.5a8.55,8.55,0,1,1,0,16.6V89.17c8.75,6.6,21.29-.93,19.37-11.87A16.14,16.14,0,0,0,84.37,52.36Z"/><path class="cls-1" d="M58.14,68.43a3.67,3.67,0,0,0-5.74-3.29,3.09,3.09,0,0,1-4.84-2.55V52.36H39.89a8.55,8.55,0,1,1-16.61,0H15.59c-6.53,9.9-.12,24.13,12.62,24.78a12.21,12.21,0,0,0,19.35,12V73.74a3.09,3.09,0,0,1,4.84-2.55,3.68,3.68,0,0,0,5.74-2.76Z"/></svg>