<svg id="Layer_1" data-name="Layer 1" xmlns="http://www.w3.org/2000/svg" viewBox="0 0 100 100"><defs><style>.cls-1{fill:#9987ff;}</style></defs><path class="cls-1" d="M87.4,11c-15.23-.27-32.59,7.69-43.58,20a41.24,41.24,0,0,0-28.26,12,1.63,1.63,0,0,0-.41,1.66,1.64,1.64,0,0,0,1.32,1.1L29,47.64l-1.55,1.73a1.63,1.63,0,0,0,.07,2.23L48.4,72.49a1.63,1.63,0,0,0,1.15.47,1.61,1.61,0,0,0,1.08-.41L52.36,71l1.8,12.53a1.58,1.58,0,0,0,1.15,1.25,1.43,1.43,0,0,0,.46.07A1.86,1.86,0,0,0,57,84.33,41.15,41.15,0,0,0,69,56.17c12.36-11,20.38-28.37,20-43.57A1.63,1.63,0,0,0,87.4,11Zm-15,28.05a8.12,8.12,0,0,1-11.49,0,8.12,8.12,0,1,1,11.49,0Z"/><path class="cls-1" d="M19.85,65.94c-3.47,3.48-8.25,19.19-8.78,21A1.62,1.62,0,0,0,12.63,89a1.83,1.83,0,0,0,.46-.07c1.78-.53,17.49-5.31,21-8.79a10,10,0,1,0-14.21-14.2Z"/></svg>