<svg xmlns="http://www.w3.org/2000/svg" width="567.54" height="851.03" viewBox="0 0 567.54 851.03">
  <g>
    <path d="M283.83,63.34v100.6c-8,5-24.69,7.43-30.18,4.11a66.19,66.19,0,0,0-32.27-1.47,19.19,19.19,0,0,1-19,0c-3.56-3-11.3,1.23-11.3,1.23a13.67,13.67,0,0,1-3.37-2.32,13.86,13.86,0,0,1-.66-19.58c10.53-8.2,3.56-82.65,3.56-82.65Z" style="fill: #ff8d94"/>
    <g>
      <g>
        <path d="M372.55,810.42a16,16,0,0,0,12.69,5.46c5.75-.15,31.42-6.92,52.27-11.6,8.2-1.85,24-6.93,25.93-10.55.95-1.81-11.45-10.59-17.77-10.58s-81,16.37-81,16.37S369.63,807.25,372.55,810.42Z" style="fill: #494651"/>
        <g>
          <g>
            <g>
              <rect x="319.35" y="447.43" width="3.55" height="149.13" transform="translate(-133.86 111.4) rotate(-16.34)" style="fill: #d9d9d9"/>
              <rect x="305.86" y="473.26" width="3.55" height="130.17" transform="translate(-238.36 244.5) rotate(-31.97)" style="fill: #d9d9d9"/>
              <rect x="298.27" y="502.7" width="3.55" height="110.32" transform="translate(-319.47 425.81) rotate(-49.69)" style="fill: #d9d9d9"/>
              <rect x="294.91" y="528.58" width="3.55" height="96.73" transform="translate(-347.04 657.61) rotate(-69.93)" style="fill: #d9d9d9"/>
              <rect x="251.23" y="593.33" width="90.9" height="3.55" transform="matrix(1, -0.03, 0.03, 1, -20.23, 10.52)" style="fill: #d9d9d9"/>
              <rect x="254.07" y="610.33" width="91.95" height="3.55" transform="translate(-221.56 173.21) rotate(-23.81)" style="fill: #d9d9d9"/>
              <rect x="252.63" y="627.57" width="103.8" height="3.55" transform="translate(-350.03 383.65) rotate(-43.6)" style="fill: #d9d9d9"/>
              <rect x="251.48" y="645.04" width="121.94" height="3.55" transform="translate(-404.67 605.13) rotate(-60.89)" style="fill: #d9d9d9"/>
              <rect x="255.49" y="659.77" width="140" height="3.55" transform="matrix(0.24, -0.97, 0.97, 0.24, -394.43, 820.61)" style="fill: #d9d9d9"/>
              <rect x="341.25" y="593.54" width="3.55" height="153.99" transform="translate(-7.83 4.07) rotate(-0.67)" style="fill: #d9d9d9"/>
              <rect x="360.62" y="590.85" width="3.55" height="155.33" transform="translate(-162.04 117.87) rotate(-15.14)" style="fill: #d9d9d9"/>
              <rect x="376.76" y="583.56" width="3.55" height="142.87" transform="matrix(0.86, -0.51, 0.51, 0.86, -281.01, 284.44)" style="fill: #d9d9d9"/>
              <rect x="386.95" y="572.71" width="3.55" height="125.13" transform="translate(-343.88 501.2) rotate(-48.17)" style="fill: #d9d9d9"/>
              <rect x="393.78" y="557.36" width="3.55" height="115.12" transform="translate(-322.3 753.74) rotate(-68.19)" style="fill: #d9d9d9"/>
              <rect x="342.11" y="591.62" width="109.53" height="3.55" transform="translate(-1.65 1.11) rotate(-0.16)" style="fill: #d9d9d9"/>
              <rect x="338.04" y="570.94" width="110.71" height="3.55" transform="translate(-186.59 190.11) rotate(-22.1)" style="fill: #d9d9d9"/>
              <rect x="326.24" y="550.53" width="123.03" height="3.55" transform="translate(-270.24 402.48) rotate(-42.1)" style="fill: #d9d9d9"/>
              <rect x="307.62" y="531.51" width="139.75" height="3.55" transform="translate(-273.52 588.75) rotate(-59.58)" style="fill: #d9d9d9"/>
              <rect x="285.7" y="518.35" width="151.98" height="3.55" transform="translate(-234.06 735.59) rotate(-75.07)" style="fill: #d9d9d9"/>
              <rect x="263.61" y="512.62" width="158.3" height="3.55" transform="translate(-174.45 852.9) rotate(-89.53)" style="fill: #d9d9d9"/>
            </g>
            <g>
              <rect x="315.88" y="450.47" width="3.55" height="146.68" transform="translate(-182.82 170.53) rotate(-23.55)" style="fill: #d9d9d9"/>
              <rect x="304.41" y="478.75" width="3.55" height="127.09" transform="translate(-276.6 322.76) rotate(-39.91)" style="fill: #d9d9d9"/>
              <rect x="299.18" y="509" width="3.55" height="107.83" transform="translate(-336.31 526.25) rotate(-58.58)" style="fill: #d9d9d9"/>
              <rect x="298.09" y="534.5" width="3.55" height="95.76" transform="translate(-327.12 772.07) rotate(-79.59)" style="fill: #d9d9d9"/>
              <rect x="256.11" y="598.58" width="91.8" height="3.55" transform="translate(-115.67 73.88) rotate(-11.72)" style="fill: #d9d9d9"/>
              <rect x="252.55" y="616.55" width="102.3" height="3.55" transform="translate(-283.08 257.43) rotate(-32.25)" style="fill: #d9d9d9"/>
              <rect x="252.62" y="634.93" width="116.45" height="3.55" transform="translate(-381.4 485.65) rotate(-51.67)" style="fill: #d9d9d9"/>
              <rect x="252.73" y="653.01" width="137.36" height="3.55" transform="translate(-405.95 709.51) rotate(-68.16)" style="fill: #d9d9d9"/>
              <rect x="261.16" y="665.31" width="153.21" height="3.55" transform="translate(-365.02 922.39) rotate(-83.11)" style="fill: #d9d9d9"/>
              <rect x="355.19" y="590.38" width="3.55" height="153.42" transform="translate(-84.19 52.42) rotate(-7.52)" style="fill: #d9d9d9"/>
              <rect x="374.2" y="585.31" width="3.55" height="152.91" transform="translate(-223.16 192.37) rotate(-22.32)" style="fill: #d9d9d9"/>
              <rect x="388.63" y="575.85" width="3.55" height="139.53" transform="translate(-317.21 383.86) rotate(-38.54)" style="fill: #d9d9d9"/>
              <rect x="396.43" y="563.23" width="3.55" height="122.25" transform="translate(-342.3 618.16) rotate(-56.99)" style="fill: #d9d9d9"/>
              <rect x="400.8" y="546.13" width="3.55" height="113.8" transform="translate(-271.8 869.35) rotate(-77.82)" style="fill: #d9d9d9"/>
              <rect x="346.13" y="579.72" width="110.44" height="3.55" transform="translate(-94.39 78.05) rotate(-9.94)" style="fill: #d9d9d9"/>
              <rect x="338.74" y="559.85" width="113.42" height="3.55" transform="translate(-233.9 286.45) rotate(-31.23)" style="fill: #d9d9d9"/>
              <rect x="324.15" y="540.62" width="126.55" height="3.55" transform="matrix(0.64, -0.77, 0.77, 0.64, -277.32, 493.35)" style="fill: #d9d9d9"/>
              <rect x="303.55" y="523.55" width="142.88" height="3.55" transform="translate(-255.35 664.11) rotate(-66.9)" style="fill: #d9d9d9"/>
              <rect x="280.94" y="513.22" width="153.59" height="3.55" transform="translate(-202.36 796.96) rotate(-81.94)" style="fill: #d9d9d9"/>
              <rect x="336.48" y="433.64" width="3.55" height="157.88" transform="translate(-54.48 40.44) rotate(-6.33)" style="fill: #d9d9d9"/>
            </g>
            <path d="M299,742c-34.27-29.63-56.95-82.61-60.67-141.72-2.88-45.6,5.76-89.58,24.32-123.81,19.52-36,47.76-57.31,79.51-59.91,22.91-1.89,45.6,6.27,65.62,23.58,34.27,29.63,56.95,82.61,60.67,141.73,2.88,45.6-5.76,89.57-24.32,123.81-19.52,36-47.76,57.3-79.5,59.91q-3.24.26-6.47.26C337.47,765.8,317.14,757.63,299,742ZM344.2,441.28c-23.1,1.89-44.3,18.58-59.69,47-16.37,30.19-24,69.4-21.37,110.41,3.31,52.59,22.8,99.13,52.12,124.49,14.86,12.84,31.21,18.93,47.34,17.61,23.1-1.89,44.3-18.58,59.69-47,16.37-30.19,24-69.4,21.37-110.41-3.31-52.59-22.8-99.13-52.12-124.49-13.53-11.7-28.31-17.79-43-17.79C347.09,441.1,345.64,441.16,344.2,441.28Z" style="fill: #9996a3"/>
            <path d="M296.59,732.11c-30.9-26.72-51.43-75.6-54.9-130.77-2.65-42,4.91-82.27,21.27-113.53,16.73-32,40.68-50.77,67.46-53,18.67-1.55,37.33,5.27,54,19.67,30.9,26.72,51.43,75.61,54.9,130.78,2.65,41.94-4.91,82.26-21.27,113.53-16.72,31.95-40.68,50.76-67.46,53-1.73.14-3.45.21-5.17.21C328.48,752,311.7,745.18,296.59,732.11Zm34.56-288.42c-49.65,4.07-85.81,74.55-80.6,157.09,3.33,52.84,22.71,99.43,51.85,124.62,14.8,12.81,31.2,18.87,47.44,17.54,49.65-4.08,85.81-74.55,80.61-157.09-3.33-52.84-22.72-99.43-51.85-124.63-13.47-11.64-28.26-17.71-43-17.71Q333.35,443.51,331.15,443.69Z" style="fill: #d9d9d9"/>
          </g>
          <path d="M349,447l46.51,1.51a43.38,43.38,0,0,1,30.76,15.26l5,5.88a51.33,51.33,0,0,0,24.59,16l6.26,1.85A42,42,0,0,1,490.9,517.6l5.34,21.31c2.56,10.24-2.11,18.45-12.34,16.17L355.73,528.91c-15-3.32-20.88-1.9-20-17.3l2.32-39.71C338.92,457.31,334.5,446.21,349,447Z" style="fill: #494651"/>
          <path d="M541.94,757l19.14-3.89L530.6,603.27l-.18-.54a60.15,60.15,0,0,0-42.16-39.66l-6.91-1.81L316,517.66l-5,18.88L483.33,582a40.74,40.74,0,0,1,28.37,26.33Z" style="fill: #d8d7db"/>
          <path d="M491.37,708.84H510.9V563.7a80.13,80.13,0,0,0-8.11-35L464.31,450a47.1,47.1,0,0,0-42.17-26H344.05V443.5h78.09a27.43,27.43,0,0,1,24.63,15.1l38.48,78.71a60.5,60.5,0,0,1,6.12,26.39Z" style="fill: #c7c6c9"/>
          <path d="M335.47,411.05h94.81a19.7,19.7,0,0,1,17.6,10.32l3.5,6.76a3.92,3.92,0,0,1-3.77,5.6H335.47a3.92,3.92,0,0,1-4.05-3.78V414.83A3.93,3.93,0,0,1,335.47,411.05Z" style="fill: #494651"/>
          <path d="M334.84,414.83h80.1a16.67,16.67,0,0,1,14.87,8.6l3,5.64a3.27,3.27,0,0,1-3.18,4.66H334.84a3.3,3.3,0,0,1-3.42-3.15V418A3.3,3.3,0,0,1,334.84,414.83Z" style="fill: #2d2b33"/>
          <path d="M458.63,755.65c-1.52-21.3.27-39.53,17.27-44,1.84-.48,13.85-1.18,15.8-1.32,19.94-1.42,37.48,16.57,39.16,40.18s-13.12,43.9-33.07,45.32c-3.42.24-15.37,1.68-18.58.86C463.7,792.68,460,775.21,458.63,755.65Z" style="fill: #a6a4a8"/>
          <ellipse cx="480.17" cy="754.48" rx="36.21" ry="42.86" transform="translate(-52.44 36.06) rotate(-4.08)" style="fill: #b4b3b7"/>
          <ellipse cx="477.06" cy="754.48" rx="24.05" ry="28.47" transform="translate(-52.44 35.83) rotate(-4.08)" style="fill: #494651"/>
          <path d="M512.86,716.46c.93-2.33-1.43-15.87-1.43-15.87V680l-22.24.54v11.4s-9.65,5.92-13,12.29c-2.76,5.3-11.2,37.81-14,48.62a3.82,3.82,0,0,0,2.54,4.58l7.62,2.42a3.81,3.81,0,0,0,4.84-2.64c3-11.17,9.79-41.48,12.76-42C510.81,711.53,512.86,716.46,512.86,716.46Z" style="fill: #2d2b33"/>
          <path d="M470.2,747.53h.15a3.79,3.79,0,0,1,0,7.57h-.15a3.79,3.79,0,0,1,0-7.57Z" style="fill: #b4b3b7"/>
          <path d="M566.31,760c1.58-.44,1.4,10.31.77,12.83s-58.16,23.73-79.74,23.73c-5.15,0-20.31-10.37-20.46-12.21,0-.35-1.6-6.22,2.17-7.68C485.28,770.39,540.14,760,545,760,551,760,566.31,760,566.31,760Z" style="fill: #2d2b33"/>
          <path d="M563.9,761.13c1.89,2.73,2.31,4.62-13.65,10.29s-52.41,18-61.86,16.74-18.8-7.87-19.34-10.6,65.42-17.22,73.32-17.56S563.9,761.13,563.9,761.13Z" style="fill: #494651"/>
        </g>
        <path d="M321.66,662.69l19.52-.42c-.73-33.68-7.21-329.51-10.2-346.16-3.46-19.27-24.83-24.42-36.91-24.42v19.53c3.4,0,16.47,1.53,17.69,8.34C313.84,331.79,318.82,531.46,321.66,662.69Z" style="fill: #c7c6c9"/>
        <g>
          <path d="M297.3,309.21l.6,0A3.92,3.92,0,0,1,297.3,309.21Z" style="fill: #2d2b33"/>
          <path d="M260.52,291.17c36.89,0,37.38,2.1,37.38,2.1-2.85,1.84-5.67,15.34-.6,15.94-1.61,0-6.36-.17-12.18-.27a3.76,3.76,0,0,1-3.6,2.81h-.42a3.91,3.91,0,0,1-3.3-2,3.64,3.64,0,0,1-6.45-.95H271a3.64,3.64,0,0,1-6.55.07h-.21a3.4,3.4,0,0,1-3.25,2,3.43,3.43,0,0,1-3.14-1.76l-1.06.08C253.79,309.51,250.86,291.17,260.52,291.17Z" style="fill: #2d2b33"/>
        </g>
        <polygon points="107.22 317.84 322.68 317.84 331.42 527.4 115.96 534.12 107.22 317.84" style="fill: #2d2b33"/>
        <path d="M106.83,682.66l19.52-.36c-.66-35.73-6.53-349.52-9.53-366.19-3.46-19.27-24.82-24.42-36.91-24.42v19.53c3.4,0,16.47,1.53,17.7,8.34C99.68,332.12,104.26,543.59,106.83,682.66Z" style="fill: #c7c6c9"/>
        <path d="M327.86,534.69l19.52-.54c-1.09-39.49-.08-86.75,3.43-94.24a7.85,7.85,0,0,1-6.76,3.59V424a11.32,11.32,0,0,0-8.14,3.52c-4,4.11-7.65,11.78-8.34,59.75C327.23,511.19,327.86,534.46,327.86,534.69Z" style="fill: #c7c6c9"/>
        <rect x="256.86" y="636.17" width="21.74" height="15.61" rx="4.6" transform="translate(371.67 1333.59) rotate(-166)" style="fill: #494651"/>
        <path d="M331.42,527.4S503.63,561,501.11,561s-173,20.16-206.65,18.48S116,534.12,116,534.12,208.78,524.84,331.42,527.4Z" style="fill: #2d2b33"/>
        <path d="M35.27,288.25c50.9,0,51.58,2.9,51.58,2.9-3.94,2.54-4.52,18.33-1.16,21.74-2.22-.07-8.44,0-16.47-.11a5.19,5.19,0,0,1-5,3.86h-.58a5.41,5.41,0,0,1-4.56-2.72A4.71,4.71,0,0,1,55,316.07a4.77,4.77,0,0,1-4.76-3.46h-.55a5,5,0,0,1-9,.09h-.29a4.72,4.72,0,0,1-4.49,2.78,4.74,4.74,0,0,1-4.33-2.43l-1.47.12C26,313.55,21.94,288.25,35.27,288.25Z" style="fill: #2d2b33"/>
        <path d="M215.06,734.42a31.06,31.06,0,0,0,23.05-10.13,39.75,39.75,0,0,1,14.09-10.21A56.73,56.73,0,0,1,265,710.61a28.4,28.4,0,0,0,24.12-28.13H269.58a9,9,0,0,1-7.65,8.84A76.48,76.48,0,0,0,244.74,696a59,59,0,0,0-21.07,15.11,11.75,11.75,0,0,1-11.14,3.49L74.05,654.83l-7.74,17.93,140,60.44.73.19A31.75,31.75,0,0,0,215.06,734.42Z" style="fill: #d8d7db"/>
        <path d="M436.86,697.89a31.08,31.08,0,0,0,23.05-10.13A39.48,39.48,0,0,1,474,677.56a56.73,56.73,0,0,1,12.78-3.48A28.4,28.4,0,0,0,510.9,646H491.37a9,9,0,0,1-7.65,8.84,76.62,76.62,0,0,0-17.19,4.72,58.9,58.9,0,0,0-21.07,15.11A11.8,11.8,0,0,1,433.69,678L273,636.4l-4.89,18.9L428.8,696.86A31.82,31.82,0,0,0,436.86,697.89Z" style="fill: #c7c6c9"/>
        <g>
          <g>
            <path d="M264.34,121s-1.37,31.29,0,36.53,14.19,13.32,27.32,19.48c0,0-16.9,22.85-49.92,22.16s-41.29-14.48-46.54-22c0,0,25.07-7.92,25.68-18.64s0-37.52,0-37.52Z" style="fill: #e0af90"/>
            <path d="M242.91,149.61c-10.45,0-17.71-6-21.78-11.65-.07-9.51-.25-17-.25-17h43.46s-.36,7.43-.53,16.51C260.32,143.2,253.63,149.61,242.91,149.61Z" style="fill: #c6957d"/>
          </g>
          <path d="M426.71,382.54s39,21.36,29.72,43.83c0,0-4,9.75-6.17,11.29,0,0-2.5-.45-2.81-3.94s2.67-12.19-.5-14.09-11.79-8.73-12.48-6.5,9.24,12.41,5.54,15.69c0,0-1,.9-4.74-2.17s-16.76-16.74-18.43-20.06-9-10.47-9-10.47-.53-15.63,11.2-16.9Z" style="fill: #e0af90"/>
          <g>
            <rect x="391.81" y="378.41" width="36.09" height="20.9" transform="matrix(0.28, -0.96, 0.96, 0.28, -79.53, 671.17)" style="fill: #e6e8ef"/>
            <path d="M321.62,196s12.19,31.07,15.09,96.41c1.29,28.92,3,47.36,3,47.36l75.93,29.1s-7.72,24.24-13,39.62c0,0-94.55-23.42-106.72-43.38C284.81,346.91,281,267,281,267S292.11,210.44,321.62,196Z" style="fill: #464560"/>
          </g>
          <path d="M178.24,380.45s-39.66,98-30.33,128.71,27.67,33.49,55,34.16,142.67,0,142.67,0l61.33-3s28.33-3.75,29.67-36.42-19.67-41.59-37.67-45.59-87.5-17.91-87.5-17.91l-19.17-59.91Z" style="fill: #353549"/>
          <g>
            <path d="M273.53,166.81s-25.38,17.05-58.86.27c0,0-47.18,21.22-64.74,38.5,0,0,16.66,96.5,26.54,154.29.63,3.65-6.21,6-3.94,13.09.81,2.51,6.4,5.31,6.4,5.31s63.84,16.68,113.68-2.45a8.51,8.51,0,0,0,5.73-7.26c.34-2.4-4.66-7.39-4.22-10.51,5.42-38.74,27.3-152.76,26.51-160.28C320.63,197.77,305.36,182.67,273.53,166.81Z" style="fill: #e6e8ef"/>
            <path d="M248.87,178l-16.63,26.71-22-35.24c2.76-1.54,4.4-2.41,4.4-2.41,33.48,16.78,58.86-.27,58.86-.27,2.7.94,5.32,2,7.86,3.09l-14.31,32.93Z" style="fill: #ced2dd"/>
            <polygon points="267.54 151.82 248.07 174.1 219.44 153.01 210.01 167.84 232.03 196.4 248.19 175.86 267.32 193.35 280.7 166.66 267.54 151.82" style="fill: #e6e8ef"/>
            <path d="M212.65,162.93s8.58,68.84,38.59,131.51c0,0,29.46-64.42,27.3-130.82,0,0,9.12,4.32,13.68,9.77l0,1.39s11.53,4,30,23c0,0-17.51,106.21-24.65,161.76,0,0,8.65,10.53-1.2,17.41,0,0,16.44,53.71,20,65,0,0-21.46,4.48-33.78-10.14s-25.81-33.5-25.81-33.5-13.68,71.86-31.64,74-78.88-.38-84.28-16.36c-3.15-9.34,29.6-77.49,29.6-77.49s-2.57-10.87-.37-17.25c0,0-22.22-148.14-21.76-155.61,0,0,23.38-21.17,47.66-30.1l.14-2.22Z" style="fill: #464560"/>
            <path d="M247.89,295.76a1,1,0,0,1-.64-.22c-23.5-18.41-46.15-61.16-46.38-61.59l-.32-.62.46-.52c3-3.28,9.21-9.41,12.05-12.17l-15.23-2.21-.15-.69c-1.12-5.49-2.4-37.33-2.46-38.68a1,1,0,1,1,2-.08c0,.32,1.24,30.7,2.3,37.68l17.86,2.58-1.47,1.42c-.09.09-8.85,8.54-12.94,13C205.84,239,226.85,277,248.49,294a1,1,0,0,1-.6,1.79Z" style="fill: #333347"/>
            <path d="M253.66,298.13a1,1,0,0,1-.73-.29,1,1,0,0,1,0-1.41C278,271.19,290.36,235.25,292,230.1L276.73,217l16.15-3.31c0-8.53-.8-36.43-.81-36.72a1,1,0,0,1,1-1,1,1,0,0,1,1,1c0,.3.9,30.17.81,37.6v.81l-13.72,2.82,13.2,11.3-.18.62c-.13.4-12.54,40.33-39.82,67.78A1,1,0,0,1,253.66,298.13Z" style="fill: #333347"/>
          </g>
          <g>
            <path d="M391.05,537.27c.64,0,2.75,0,2.75,0,4.6-.23,5,6.51,5.64,16,6.47,98,43.77,197.94,43.77,197.94,15,1.22,23-.49,23-.49-14.76-140.53-9.76-164.91-14.71-227.41-2.13-27-13.15-47.61-35.31-52-6.43-1.26-17.23-3-26.35-2.52,0,0-24.56-.08-21.5,34C371.42,537.61,391.05,537.27,391.05,537.27Z" style="fill: #c6957d"/>
            <g>
              <path d="M478.93,785.19c-8.6-1.16-29.65-21.58-29.65-21.58s-6-8-6.07-12.44c17.79-6.06,23-.49,23-.49L484.38,776a56.39,56.39,0,0,0,6.47,3.21C490.57,782.25,484.26,785.91,478.93,785.19Z" style="fill: #c6957d"/>
              <path d="M451.25,761.55S470.35,781,479,782.16a17,17,0,0,0,11.9-3,87.25,87.25,0,0,0,12.36,4.29c11.68,3.11,4.63,11.84,4.63,11.84-6,3.83-29.66,1.65-34.06.73s-23.28-22.4-23.28-22.4l1.52,23.5-6.06.13c-.88-12-3.38-20-4.76-26.71-3.07-15,2-19,2-19C445.51,752.75,451.25,761.55,451.25,761.55Z" style="fill: #181823"/>
            </g>
          </g>
          <g>
            <path d="M343.05,537.27c.64,0,2.75,0,2.75,0,4.6-.23,5.11,6.5,5.64,16,4.1,73,62.77,197.94,62.77,197.94,15,1.22,23-.49,23-.49-33.46-152.25-28.75-172.52-33.71-227.41-2.43-26.93-13.15-47.61-35.31-52-6.43-1.26-17.23-3-26.35-2.52,0,0-21.5,4.2-21.5,34C320.3,537.75,343.05,537.27,343.05,537.27Z" style="fill: #e0af90"/>
            <g>
              <path d="M449.93,785.19c-8.6-1.16-29.65-21.58-29.65-21.58s-6-8-6.07-12.44c17.79-6.06,23-.49,23-.49L455.38,776a56.39,56.39,0,0,0,6.47,3.21C461.57,782.25,455.26,785.91,449.93,785.19Z" style="fill: #e0af90"/>
              <path d="M422.25,761.55S441.35,781,450,782.16a17,17,0,0,0,11.9-3,87.25,87.25,0,0,0,12.36,4.29c11.68,3.11,4.63,11.84,4.63,11.84-6,3.83-29.66,1.65-34.06.73s-23.28-22.4-23.28-22.4l1.52,23.5-6.06.13c-.88-12-3.38-20-4.76-26.71-3.07-15,2-19,2-19C416.51,752.75,422.25,761.55,422.25,761.55Z" style="fill: #242335"/>
            </g>
          </g>
          <path d="M306,300.87c.53.05,1-.1,1.06-.63l12.06-80.19a1,1,0,0,0-.87-1.07,1,1,0,0,0-1.12.89L305.08,300c-.07.55.33.86.88.91Z" style="fill: #333347"/>
        </g>
        <path d="M121.27,411.05h90A18.59,18.59,0,0,1,228,421.37l3.32,6.76a3.91,3.91,0,0,1-3.58,5.6H121.27a3.81,3.81,0,0,1-3.84-3.78V414.83A3.82,3.82,0,0,1,121.27,411.05Z" style="fill: #494651"/>
        <path d="M269.58,682.48H289.1V563.7a80.12,80.12,0,0,0-8.1-35L242.52,450a47.11,47.11,0,0,0-42.17-26H122.26V443.5h78.09A27.44,27.44,0,0,1,225,458.6l38.48,78.71a60.5,60.5,0,0,1,6.12,26.39Z" style="fill: #d8d7db"/>
        <rect x="55.99" y="654.68" width="21.74" height="15.61" rx="4.6" transform="translate(-126.15 1299.74) rotate(-157.39)" style="fill: #494651"/>
        <path d="M109.56,534.64l19.52-.44c-.93-41.58-.55-88.83,1.71-95.91a8.59,8.59,0,0,1-6.31,5l-3.94-19.13c-9.2,1.9-9.8,12.18-10.56,25.2-.5,8.57-.79,20.37-.86,35.08C109,509.33,109.55,534.39,109.56,534.64Z" style="fill: #d8d7db"/>
        <path d="M120.68,414.83h76a15.71,15.71,0,0,1,14.11,8.6l2.81,5.64a3.26,3.26,0,0,1-3,4.66H120.68a3.2,3.2,0,0,1-3.25-3.15V418A3.2,3.2,0,0,1,120.68,414.83Z" style="fill: #2d2b33"/>
        <path d="M110.24,488.53c.08-12.74-2.4-38.94,12-38.94l43.43,2.66c11.83,0,29.86,20.11,29.86,20.11,6.83,6.33,20.66,7,30.3,9l6.31,1.32c14.33,3,27.76,26.16,32.11,38.6l9.64,27.49c3.08,8.8-4.05,21.23-14.32,19.73L136,541.2c-15-2.2-26-13.7-25.92-27.15Z" style="fill: #494651"/>
        <path d="M231.07,805.51c-1.66-23.27.3-43.19,18.87-48.08,2-.53,15.13-1.29,17.26-1.44,21.8-1.56,41,18.1,42.79,43.89s-14.33,48-36.13,49.53c-3.74.26-16.79,1.84-20.3.94C236.61,846,232.59,826.88,231.07,805.51Z" style="fill: #a6a4a8"/>
        <ellipse cx="254.6" cy="804.23" rx="39.56" ry="46.83" transform="translate(-56.54 20.14) rotate(-4.08)" style="fill: #b4b3b7"/>
        <path d="M228.54,806.76c-1.12-15.69,8.71-29.17,22-30.11s24.9,11,26,26.69-8.72,29.16-22,30.1S229.65,822.44,228.54,806.76Z" style="fill: #494651"/>
        <rect x="269.58" y="676.08" width="19.53" height="53.86" style="fill: #d8d7db"/>
        <path d="M346.16,804l19.14-3.86L331.05,630.56l-.17-.54a60.18,60.18,0,0,0-42.17-39.66L282,588.6,117.23,539.4l-5.59,18.71,165.24,49.34,6.9,1.8a40.76,40.76,0,0,1,28.37,26.33Z" style="fill: #d8d7db"/>
        <path d="M262.49,553.07h.16a3.78,3.78,0,1,1,0,7.56h-.16a3.78,3.78,0,0,1,0-7.56Z" style="fill: #b4b3b7"/>
        <path d="M242.36,497.78h.16a3.78,3.78,0,0,1,0,7.56h-.16a3.78,3.78,0,0,1,0-7.56Z" style="fill: #b4b3b7"/>
        <path d="M291.25,763.42c.93-2.34-1.43-15.87-1.43-15.87V726.92l-22.24.54v11.4s-9.65,5.92-13,12.29c-2.77,5.3-11.2,37.81-14,48.62a3.81,3.81,0,0,0,2.54,4.58l7.62,2.42a3.81,3.81,0,0,0,4.84-2.64c3-11.17,10.54-41.65,13.53-42.1C289,759.06,291.25,763.42,291.25,763.42Z" style="fill: #2d2b33"/>
        <path d="M248.59,794.49h.15a3.78,3.78,0,1,1,0,7.56h-.15a3.78,3.78,0,0,1,0-7.56Z" style="fill: #b4b3b7"/>
        <path d="M465,793.41c-.29-.62-1.92-1.8-4.19-3.09,1.82,1.51,2.92,2.82,2.61,3.41-1.9,3.62-17.73,8.7-25.93,10.55-20.85,4.68-46.52,11.45-52.27,11.6a16,16,0,0,1-12.69-5.46c-2.92-3.17-7.92-10.9-7.92-10.9l-3.3-7.37-15.92,5.36s5.57,23.41,9.79,24.31,24.35,1.51,30.11,1.36,45.41-9.85,67.91-16.22C461.3,804.67,469.43,802.86,465,793.41Z" style="fill: #2d2b33"/>
        <g>
          <g>
            <rect x="78.72" y="482.97" width="3.55" height="148.8" transform="translate(-147.74 42.54) rotate(-15.69)" style="fill: #d9d9d9"/>
            <rect x="65.76" y="509.32" width="3.55" height="128.82" transform="translate(-285.13 116.18) rotate(-30.91)" style="fill: #d9d9d9"/>
            <rect x="58.48" y="539.36" width="3.55" height="107.82" transform="translate(-424.02 245.3) rotate(-48.5)" style="fill: #d9d9d9"/>
            <rect x="55.25" y="565.7" width="3.55" height="93.33" transform="translate(-535.54 447.7) rotate(-69.15)" style="fill: #d9d9d9"/>
            <rect x="13.4" y="628.77" width="87.27" height="3.55" transform="translate(-22.5 2.44) rotate(-2.05)" style="fill: #d9d9d9"/>
            <rect x="15.81" y="645.79" width="88.89" height="3.55" transform="translate(-265.13 84.45) rotate(-24.7)" style="fill: #d9d9d9"/>
            <rect x="13.71" y="663.04" width="101.69" height="3.55" transform="translate(-449.72 238.6) rotate(-44.8)" style="fill: #d9d9d9"/>
            <rect x="11.71" y="680.53" width="120.89" height="3.55" transform="translate(-563.7 424.56) rotate(-61.9)" style="fill: #d9d9d9"/>
            <rect x="14.77" y="695.27" width="139.81" height="3.55" transform="translate(-613.3 620.38) rotate(-76.8)" style="fill: #d9d9d9"/>
            <rect x="99.74" y="628.98" width="3.55" height="154.14" transform="translate(-8.27 1.24) rotate(-0.67)" style="fill: #d9d9d9"/>
            <rect x="118.34" y="626.5" width="3.55" height="155.06" transform="translate(-172.91 52.7) rotate(-14.54)" style="fill: #d9d9d9"/>
            <rect x="133.83" y="619.74" width="3.55" height="141.5" transform="translate(-323.55 157.25) rotate(-29.62)" style="fill: #d9d9d9"/>
            <rect x="143.61" y="609.54" width="3.55" height="122.43" transform="translate(-444.32 319.61) rotate(-47)" style="fill: #d9d9d9"/>
            <rect x="150.16" y="594.8" width="3.55" height="111.17" transform="translate(-506.83 540.34) rotate(-67.37)" style="fill: #d9d9d9"/>
            <rect x="100.63" y="627.06" width="105.14" height="3.55" transform="translate(-1.83 0.45) rotate(-0.17)" style="fill: #d9d9d9"/>
            <rect x="96.4" y="606.36" width="106.93" height="3.55" transform="translate(-225.28 106.59) rotate(-22.95)" style="fill: #d9d9d9"/>
            <rect x="84.25" y="585.93" width="120.4" height="3.55" transform="translate(-363.72 259.02) rotate(-43.3)" style="fill: #d9d9d9"/>
            <rect x="65.38" y="566.9" width="138.44" height="3.55" transform="translate(-426.95 406.9) rotate(-60.61)" style="fill: #d9d9d9"/>
            <rect x="43.57" y="553.72" width="151.72" height="3.55" transform="translate(-448.34 533.58) rotate(-75.66)" style="fill: #d9d9d9"/>
            <rect x="22.04" y="547.99" width="158.45" height="3.55" transform="translate(-449.29 646.66) rotate(-89.55)" style="fill: #d9d9d9"/>
          </g>
          <g>
            <rect x="75.39" y="486.24" width="3.55" height="145.88" transform="translate(-209.67 73.01) rotate(-22.68)" style="fill: #d9d9d9"/>
            <rect x="64.37" y="515.14" width="3.55" height="125.09" transform="translate(-347.08 168.62) rotate(-38.76)" style="fill: #d9d9d9"/>
            <rect x="59.35" y="545.96" width="3.55" height="104.74" transform="translate(-476.33 328.37) rotate(-57.5)" style="fill: #d9d9d9"/>
            <rect x="58.31" y="571.79" width="3.55" height="92.05" transform="translate(-558.01 560.71) rotate(-79.17)" style="fill: #d9d9d9"/>
            <rect x="18.01" y="634.03" width="88.28" height="3.55" transform="translate(-133.05 27.52) rotate(-12.21)" style="fill: #d9d9d9"/>
            <rect x="14.06" y="652.02" width="99.41" height="3.55" transform="translate(-348.83 142.64) rotate(-33.34)" style="fill: #d9d9d9"/>
            <rect x="13.25" y="670.42" width="114.75" height="3.55" transform="translate(-507.67 322.33) rotate(-52.83)" style="fill: #d9d9d9"/>
            <rect x="12.4" y="688.51" width="136.73" height="3.55" transform="translate(-592.54 518) rotate(-68.97)" style="fill: #d9d9d9"/>
            <rect x="19.83" y="700.83" width="153.27" height="3.55" transform="translate(-612.57 717.55) rotate(-83.39)" style="fill: #d9d9d9"/>
            <rect x="113.12" y="625.87" width="3.55" height="153.46" transform="translate(-86.93 19.87) rotate(-7.18)" style="fill: #d9d9d9"/>
            <rect x="131.37" y="621.19" width="3.55" height="152.17" transform="translate(-246.07 97.18) rotate(-21.48)" style="fill: #d9d9d9"/>
            <rect x="145.23" y="612.37" width="3.55" height="137.48" transform="translate(-383 228.76) rotate(-37.34)" style="fill: #d9d9d9"/>
            <rect x="152.71" y="600.39" width="3.55" height="118.87" transform="translate(-478.43 417.65) rotate(-55.88)" style="fill: #d9d9d9"/>
            <rect x="156.91" y="583.76" width="3.55" height="109.46" transform="translate(-499.06 653.3) rotate(-77.33)" style="fill: #d9d9d9"/>
            <rect x="104.43" y="615.15" width="106.15" height="3.55" transform="matrix(0.98, -0.18, 0.18, 0.98, -108.38, 38.38)" style="fill: #d9d9d9"/>
            <rect x="96.77" y="595.26" width="110.15" height="3.55" transform="translate(-295.58 173.57) rotate(-32.31)" style="fill: #d9d9d9"/>
            <rect x="81.85" y="576.01" width="124.58" height="3.55" transform="translate(-397.41 330.12) rotate(-51.42)" style="fill: #d9d9d9"/>
            <rect x="61.14" y="558.93" width="142.13" height="3.55" transform="translate(-436.81 470.74) rotate(-67.75)" style="fill: #d9d9d9"/>
            <rect x="38.83" y="548.59" width="153.61" height="3.55" transform="translate(-445.29 590.85) rotate(-82.26)" style="fill: #d9d9d9"/>
            <rect x="95.16" y="468.96" width="3.55" height="157.95" transform="matrix(0.99, -0.11, 0.11, 0.99, -57.25, 13.28)" style="fill: #d9d9d9"/>
          </g>
          <path d="M60.59,779C26.63,749.65,4.17,696.06.52,635.65-2.24,590.08,6,546.15,23.83,511.94c18.79-36.16,46.06-57.52,76.78-60.15,21.5-1.83,42.85,5.82,61.75,22.14,34,29.35,56.42,82.93,60.07,143.35,2.75,45.56-5.52,89.49-23.31,123.71-18.79,36.15-46.06,57.51-76.78,60.14q-3.14.27-6.27.27C96.71,801.4,77.65,793.73,60.59,779Zm42.13-302.44c-21.93,1.88-42.12,18.52-56.84,46.85-15.74,30.28-23,69.61-20.56,110.75,3.21,53.06,23,101.36,51.51,126,13.71,11.85,28.71,17.44,43.39,16.19,21.93-1.88,42.12-18.51,56.85-46.85,15.74-30.27,23-69.6,20.55-110.74-3.2-53.07-22.94-101.36-51.51-126-12.44-10.76-26-16.36-39.33-16.36C105.43,476.38,104.07,476.44,102.72,476.55Z" style="fill: #9996a3"/>
          <path d="M58.33,769C27.75,742.6,7.47,693.17,4.06,636.77c-2.54-41.95,4.71-82.28,20.41-113.56,16.07-32,39.12-50.87,64.92-53.07,17.39-1.49,34.83,4.85,50.45,18.35,30.58,26.41,50.87,75.85,54.28,132.24,2.53,42-4.72,82.29-20.41,113.57-16.07,32-39.13,50.86-64.92,53.07q-2.49.21-5,.21C88.09,787.58,72.46,781.23,58.33,769ZM90.15,479C42.57,483.05,7.92,553.6,12.92,636.24c3.21,53.25,22.84,101.55,51.21,126.06,13.77,11.9,29,17.52,43.9,16.23,47.58-4.07,82.22-74.62,77.23-157.26C182,568,162.41,519.72,134,495.21c-12.48-10.79-26.13-16.41-39.71-16.41C92.94,478.8,91.54,478.86,90.15,479Z" style="fill: #d9d9d9"/>
        </g>
        <g>
          <rect x="82.11" y="620.37" width="27.93" height="13.86" style="fill: #d8d7db"/>
          <ellipse cx="82.11" cy="627.3" rx="9.04" ry="11.97" style="fill: #d8d7db"/>
          <path d="M74.81,627.3c0-4,2.47-7.29,5.51-7.29s5.51,3.26,5.51,7.29-2.47,7.29-5.51,7.29S74.81,631.33,74.81,627.3Z" style="fill: #2d2b33"/>
        </g>
        <polygon points="559.07 747.53 561.62 760 544.58 762.08 542.37 752 559.07 747.53" style="fill: #2d2b33"/>
      </g>
      <g>
        <path d="M198.78,375.07a13.35,13.35,0,0,1,8.7,3.81c.15.18,13.7,19.17,13.83,19.39,1.86,3.24,2,13.23,1.69,16.35-.16,1.53-3.59,8.87-4.45,10.54-.42.82-5.2,6.23-5.38,6.43-1.33,1.54-3.86-.07-3.2-2.79.55-2.27,2.8-5.33,3.18-6.08.48-1,3-6.07,3.11-7.89a77.5,77.5,0,0,0-.34-8,43.69,43.69,0,0,1-2.24,9.16,44.32,44.32,0,0,1-3.69,7.78,41.84,41.84,0,0,1-5.43,7.09c-2.48,2.27-4.12-2.39-3.23-4.23.47-1,1.69-2.62,2.86-4.65.06-.11,2.79-5,3.34-8,.44-2.42.91-6.38,1.24-9.56-.81,3-1.23,6.62-2.37,9.21a55.24,55.24,0,0,1-3.34,6.94,34.08,34.08,0,0,1-4.56,6.1c-2.56,2.58-4.61-2.13-3.41-4,2.2-3.53,2.87-4.48,3.46-5.57a40.1,40.1,0,0,0,2.71-6.82c.75-2.49.64-4.69.82-8.3a27.41,27.41,0,0,1-3.71,5.23,56.62,56.62,0,0,1-5.57,6,62.08,62.08,0,0,1-4.81,4.18c-1.61,1.1-3.24-2.31-2.25-4s2.1-2.13,3.22-3.35a31.11,31.11,0,0,0,4.32-5.78c1.46-2.74,2.18-3.53,2.88-6.26a76.92,76.92,0,0,0-7.42-2.61c-11.24-3.16-1.93-18.08-1.93-18.08C191.32,373.92,198.78,375.07,198.78,375.07Z" style="fill: #e0af90"/>
        <rect x="164.47" y="366.7" width="34.19" height="19.79" transform="translate(-235.67 349.86) rotate(-60.59)" style="fill: #e6e8ef"/>
        <path d="M179.64,190.7s-27.65,3.2-60.77,39.56-75,74.86-62,99.05c9.08,16.91,112,62.2,112,62.2l19.82-34.31L114.5,311.79c29.1-33.69,37.8-31.3,50-48.21C173.14,251.67,187.44,203,179.64,190.7Z" style="fill: #464560"/>
        <path d="M186.82,356.47a.91.91,0,0,0,1.17-.34.89.89,0,0,0-.3-1.23l-51.2-31.36a.9.9,0,0,0-1.24.29.91.91,0,0,0,.3,1.24l51.2,31.36Z" style="fill: #333347"/>
        <path d="M148.89,278.1c7.43-5.25,21-16.07,27.16-46.77a.9.9,0,1,1,1.77.35c-6.56,32.47-21.21,43.23-28.64,48.41C149.11,279.42,149,278.76,148.89,278.1Z" style="fill: #333347"/>
      </g>
    </g>
    <path d="M275.94,93.52s2.32,10.21,9.36,6.81,9.44-24,1.7-24.69a9.53,9.53,0,0,0-10.37,5.5Z" style="fill: #e0af90"/>
    <path d="M207.37,93.52s-2.32,10.21-9.37,6.81-9.51-24-1.78-24.69a9.36,9.36,0,0,1,10.37,5.5Z" style="fill: #e0af90"/>
    <path d="M241.65,18.22c25.85,0,44.35,21.74,41.79,57-3.09,47.59-20.27,65-41.79,65s-38.31-21-41.87-65C196.84,38.65,215.8,18.22,241.65,18.22Z" style="fill: #e0af90"/>
    <path d="M261.85,85.14a2.63,2.63,0,1,1,5.26,0v0a2.63,2.63,0,0,1-5.26,0Z" style="fill: #23242b"/>
    <path d="M217.12,85.14a2.63,2.63,0,1,1,5.26,0v0a2.63,2.63,0,0,1-5.26,0Z" style="fill: #23242b"/>
    <path d="M272.38,75.26a11.3,11.3,0,0,0-13.47-1.71,1.62,1.62,0,0,1-2.09-.62,1.7,1.7,0,0,1,.62-2.16l.05,0a12.23,12.23,0,0,1,17.13,2.36,1.62,1.62,0,0,1,0,2.24,1.43,1.43,0,0,1-1,0A1.57,1.57,0,0,1,272.38,75.26Z" style="fill: #b28166"/>
    <path d="M210.62,74.87a11.29,11.29,0,0,1,13.47-1.7,1.62,1.62,0,0,0,2.08-.62,1.7,1.7,0,0,0-.61-2.17l-.05,0a12.24,12.24,0,0,0-17.14,2.36l-.08.09a1.48,1.48,0,0,0,.08,2.08,1.27,1.27,0,0,0,1,.46A1.71,1.71,0,0,0,210.62,74.87Z" style="fill: #b28166"/>
    <path d="M241,106.37a.28.28,0,0,1,0-.09,1.3,1.3,0,0,1,1.24-1.38,2.12,2.12,0,0,0,1.71-.93,17,17,0,0,0-1.09-11.69c-.46-.7-.69-1.62,0-1.93s1-.24,1.47.77,5.27,9.13,2.71,14.24a4.86,4.86,0,0,1-4.72,2.24A1.3,1.3,0,0,1,241,106.37Z" style="fill: #c6957d"/>
    <path d="M301.48,56.84a45.22,45.22,0,0,0-17.34-41.33A59.67,59.67,0,0,0,254,1.11c-28.56-6.26-36.3,16-36.3,16a25,25,0,0,0-27.32,19.35,91,91,0,0,0,2.87,40.93c2.63-2.63,4.79-1.7,4.79-1.7,3.41,12.77,4.26-1.08,4.26-1.08,8.05-7.59,17-37.46,17-37.46,3.17,29.95,19.5,27.17,19.5,27.17A43.29,43.29,0,0,1,237.24,59a8.91,8.91,0,0,0,11.15,4.88,30.91,30.91,0,0,1-7-16.72,26.25,26.25,0,0,0,9.29,16,24,24,0,0,0,12.07.7,21.56,21.56,0,0,1-6.5-14.78c1.47,10.83,22.29,14.24,18.81,43.57-4.73,40.24,6.19,76.46,10.13,75.53s6.89-3.48,9.06-2.17c10.45,6.27,14.39-8.51,14.39-8.51C295.67,134.77,299.54,103.35,301.48,56.84Z" style="fill: #f7c2d0"/>
    <path d="M256.36,116.74a1.57,1.57,0,0,0,.54-2h0a1.48,1.48,0,0,0-2-.54,21.26,21.26,0,0,1-23.22,0l0,0a1.4,1.4,0,0,0-2,0,1.47,1.47,0,0,0,0,2,23.61,23.61,0,0,0,13,3.8A25.9,25.9,0,0,0,256.36,116.74Z" style="fill: #ce6565"/>
  </g>
</svg>
