<svg xmlns="http://www.w3.org/2000/svg" xmlns:xlink="http://www.w3.org/1999/xlink" viewBox="0 0 1200 1820"><defs><style>.cls-1{fill:none;}.cls-2{isolation:isolate;}.cls-3{clip-path:url(#clip-path);}.cls-4{fill:url(#radial-gradient);}.cls-5{fill:#fff;}.cls-11,.cls-12,.cls-16,.cls-21,.cls-22,.cls-6,.cls-7,.cls-9{opacity:0.5;}.cls-10,.cls-11,.cls-12,.cls-13,.cls-14,.cls-15,.cls-16,.cls-17,.cls-21,.cls-22,.cls-6,.cls-7,.cls-8,.cls-9{mix-blend-mode:screen;}.cls-6{fill:url(#linear-gradient);}.cls-7{fill:url(#radial-gradient-2);}.cls-10,.cls-13,.cls-14,.cls-15,.cls-17,.cls-8{opacity:0.2;}.cls-8{fill:url(#radial-gradient-3);}.cls-9{fill:url(#linear-gradient-2);}.cls-10{fill:url(#radial-gradient-4);}.cls-11{fill:url(#linear-gradient-3);}.cls-12{fill:url(#radial-gradient-5);}.cls-13{fill:url(#radial-gradient-6);}.cls-14{fill:url(#radial-gradient-7);}.cls-15{fill:url(#radial-gradient-8);}.cls-16{fill:url(#linear-gradient-4);}.cls-17{fill:url(#radial-gradient-9);}.cls-18,.cls-23{mix-blend-mode:overlay;}.cls-18{fill:url(#radial-gradient-10);}.cls-19{clip-path:url(#clip-path-2);}.cls-20{fill:url(#radial-gradient-11);}.cls-21{fill:url(#linear-gradient-5);}.cls-22{fill:url(#radial-gradient-12);}.cls-23{fill:url(#radial-gradient-13);}.cls-24{fill:#3fc9e6;}.cls-25{fill:#453878;}.cls-26{fill:#6154c7;}.cls-27{fill:#443889;}.cls-28{fill:#f7c2d0;}.cls-29{fill:#8c4f45;}.cls-30{fill:#753c36;}.cls-31{fill:#ff8d94;}.cls-32{fill:#f04e98;}.cls-33{fill:#23242b;}.cls-34{fill:#30323d;}</style><clipPath id="clip-path"><rect class="cls-1" x="-916.11" y="2439.71" width="1920" height="1080"/></clipPath><radialGradient id="radial-gradient" cx="43.89" cy="2666.46" r="960" gradientUnits="userSpaceOnUse"><stop offset="0.41" stop-color="#6154c7"/><stop offset="1" stop-color="#453878"/></radialGradient><linearGradient id="linear-gradient" x1="-1032.41" y1="708.52" x2="-1032.41" y2="1757.81" gradientTransform="matrix(0.88, 0.48, -0.48, 0.88, 2069.86, 1703.17)" gradientUnits="userSpaceOnUse"><stop offset="0" stop-color="#fff"/><stop offset="0.21" stop-color="#b6b6b6"/><stop offset="0.43" stop-color="#757575"/><stop offset="0.62" stop-color="#434343"/><stop offset="0.78" stop-color="#1e1e1e"/><stop offset="0.91" stop-color="#080808"/><stop offset="1"/></linearGradient><radialGradient id="radial-gradient-2" cx="8391.4" cy="1380.83" r="727.12" gradientTransform="matrix(0.11, 0.06, -0.48, 0.88, 284.27, 716.42)" xlink:href="#linear-gradient"/><radialGradient id="radial-gradient-3" cx="-6128.53" cy="1109.69" r="727.25" gradientTransform="matrix(-0.09, -0.08, -0.69, 0.73, 482.31, 966.35)" xlink:href="#linear-gradient"/><linearGradient id="linear-gradient-2" x1="-6382.62" y1="3665.44" x2="-6382.62" y2="4714.73" gradientTransform="matrix(-0.88, 0.48, 0.48, 0.88, -8094.86, 1703.17)" xlink:href="#linear-gradient"/><radialGradient id="radial-gradient-4" cx="30906.21" cy="5305.57" r="727.24" gradientTransform="matrix(0.09, -0.08, 0.69, 0.73, -6507.3, 966.35)" xlink:href="#linear-gradient"/><linearGradient id="linear-gradient-3" x1="-23.14" y1="2642.02" x2="-23.14" y2="3199.92" gradientTransform="translate(1657.45 -523.7) rotate(26.26)" xlink:href="#linear-gradient"/><radialGradient id="radial-gradient-5" cx="16792.49" cy="2997.84" r="386.54" gradientTransform="matrix(0.11, 0.05, -0.44, 0.9, -172.6, -1425.74)" xlink:href="#linear-gradient"/><radialGradient id="radial-gradient-6" cx="13747.92" cy="2691.43" r="188.92" gradientTransform="matrix(0.1, 0.07, -0.55, 0.83, 523.26, -1261.08)" xlink:href="#linear-gradient"/><radialGradient id="radial-gradient-7" cx="8502.77" cy="2770.54" r="189" gradientTransform="matrix(-0.11, -0.04, -0.33, 0.95, 2318.16, -374.87)" xlink:href="#linear-gradient"/><radialGradient id="radial-gradient-8" cx="-18791.3" cy="2390.12" r="386.56" gradientTransform="matrix(-0.09, -0.08, -0.65, 0.76, 35.88, -1186.69)" xlink:href="#linear-gradient"/><linearGradient id="linear-gradient-4" x1="-3338.18" y1="4277.73" x2="-3338.18" y2="4835.62" gradientTransform="matrix(-0.9, 0.44, 0.44, 0.9, -5266.41, -523.7)" xlink:href="#linear-gradient"/><radialGradient id="radial-gradient-9" cx="4546.14" cy="4799.88" r="386.56" gradientTransform="matrix(0.09, -0.08, 0.65, 0.76, -3644.84, -1186.69)" xlink:href="#linear-gradient"/><radialGradient id="radial-gradient-10" cx="43.89" cy="3095.93" r="827.22" gradientTransform="translate(0 -1779) scale(1 1.44)" gradientUnits="userSpaceOnUse"><stop offset="0" stop-color="#fff"/><stop offset="0.09" stop-color="#eae8f0"/><stop offset="0.42" stop-color="#a49dbd"/><stop offset="0.69" stop-color="#716798"/><stop offset="0.89" stop-color="#514581"/><stop offset="1" stop-color="#453878"/></radialGradient><clipPath id="clip-path-2"><rect class="cls-1" x="1023.89" y="2439.71" width="1920" height="1080"/></clipPath><radialGradient id="radial-gradient-11" cx="1983.89" cy="2666.46" r="960" xlink:href="#radial-gradient"/><linearGradient id="linear-gradient-5" x1="-8080.61" y1="4603.87" x2="-8080.61" y2="5653.16" gradientTransform="matrix(-0.88, 0.48, 0.48, 0.88, -8094.86, 1703.17)" xlink:href="#linear-gradient"/><radialGradient id="radial-gradient-12" cx="-50297.82" cy="5276.91" r="727.11" gradientTransform="matrix(-0.11, 0.06, 0.48, 0.88, -6309.27, 716.42)" xlink:href="#linear-gradient"/><radialGradient id="radial-gradient-13" cx="1983.89" cy="3095.93" r="827.22" xlink:href="#radial-gradient-10"/></defs><g class="cls-2"><g id="Layer_1" data-name="Layer 1"><g class="cls-3"><rect class="cls-4" x="-916.11" y="1706.46" width="1920" height="1920"/><path class="cls-5" d="M889.75,1860.46c-5.22,9.45-39.07.74-75.62-19.46s-61.93-44.23-56.71-53.68,39.08-.74,75.63,19.46S895,1851,889.75,1860.46Z"/><polygon class="cls-6" points="889.75 1860.46 823.59 1823.89 757.42 1787.32 16.38 2567.67 319.83 2735.38 623.28 2903.08 889.75 1860.46"/><path class="cls-7" d="M574.73,2454.7c-194.24,351.45-385.92,617.45-428.13,594.12s81-327.14,275.28-678.6S807.79,1752.77,850,1776.1,769,2103.25,574.73,2454.7Z"/><path class="cls-8" d="M192.24,2218.48c-275.59,292.06-470.57,555.65-435.49,588.74s286.92-176.83,562.51-468.88,470.57-555.64,435.5-588.74S467.84,1926.43,192.24,2218.48Z"/><polygon class="cls-9" points="-801.98 1860.46 -735.82 1823.89 -669.65 1787.32 71.39 2567.67 -232.06 2735.38 -535.51 2903.08 -801.98 1860.46"/><path class="cls-10" d="M-104.47,2218.48C171.12,2510.54,366.1,2774.13,331,2807.22S44.1,2630.39-231.49,2338.34-702.06,1782.7-667,1749.6-380.07,1926.43-104.47,2218.48Z"/><path class="cls-5" d="M503.7,1853.24c-2.54,5.15-20.74,1.36-40.65-8.46s-34-22-31.44-27.12,20.74-1.35,40.64,8.47S506.24,1848.09,503.7,1853.24Z"/><polygon class="cls-11" points="503.7 1853.24 467.65 1835.45 431.61 1817.66 57.28 2250.41 222.58 2332 387.89 2413.59 503.7 1853.24"/><path class="cls-12" d="M351,2176.63c-94.5,191.46-189.74,337.47-212.73,326.12s35-175.76,129.46-367.21,189.74-337.47,212.73-326.12S445.54,1985.18,351,2176.63Z"/><path class="cls-13" d="M433,1906.52c-57.66,87-112.86,151.9-123.31,145s27.82-83.06,85.47-170,112.86-151.9,123.3-145S490.63,1819.53,433,1906.52Z"/><path class="cls-14" d="M429.55,1904.83c-34,98.67-51.92,182-40.07,186.05s49-72.6,83-171.27,51.92-182,40.08-186S463.54,1806.16,429.55,1904.83Z"/><path class="cls-15" d="M154.68,2066.84C15.51,2228.75-81.54,2373.56-62.1,2390.28s148-101,287.2-262.92,236.23-306.72,216.78-323.44S293.85,1904.92,154.68,2066.84Z"/><polygon class="cls-16" points="-415.92 1853.24 -379.88 1835.45 -343.83 1817.66 30.5 2250.41 -134.81 2332 -300.12 2413.59 -415.92 1853.24"/><path class="cls-17" d="M-66.91,2066.84c139.17,161.91,236.23,306.72,216.78,323.44s-148-101-287.2-262.92-236.22-306.72-216.78-323.44S-206.08,1904.92-66.91,2066.84Z"/><rect class="cls-18" x="-916.11" y="1706.46" width="1920" height="1920"/></g><g class="cls-19"><rect class="cls-20" x="1023.89" y="1706.46" width="1920" height="1920"/><path class="cls-5" d="M1138,1860.46c5.22,9.45,39.08.74,75.62-19.46s61.93-44.23,56.71-53.68-39.08-.74-75.62,19.46S1132.8,1851,1138,1860.46Z"/><polygon class="cls-21" points="1138.02 1860.46 1204.18 1823.89 1270.35 1787.32 2011.39 2567.67 1707.94 2735.38 1404.49 2903.08 1138.02 1860.46"/><path class="cls-22" d="M1453.05,2454.7c194.23,351.45,385.91,617.45,428.12,594.12s-81-327.14-275.27-678.6S1220,1752.77,1177.77,1776.1,1258.81,2103.25,1453.05,2454.7Z"/><rect class="cls-23" x="1023.89" y="1706.46" width="1920" height="1920"/></g><path class="cls-24" d="M835.65,902.38c20.94,13.86,25.09,46.51,19.89,73.79s-17.43,52.84-21.42,80.33c-4.84,33.24,2.67,66.48,3.69,99.89,2.28,74-27.21,145.79-59.26,212.16s-67.94,132.57-80.48,206,4.2,157.64,59.17,196.84c-52.64-21-103.75-50-142.07-94.91s-62.56-107.73-55.19-170.8c8.48-72.56,56.41-147.57,28.91-212.39-22-51.86-80.37-65.85-124.49-95-74-48.8-112-155.67-89.23-251,56.25-9.82,107.69-51.35,164-60.11C635.15,872.32,742.18,932.87,835.65,902.38Z"/><path class="cls-25" d="M354.54,667s0,111.48,5.37,167.22S376.7,947.71,376.7,947.71s19.93,19.7,41,31.34,54.17,22.84,54.17,22.84l61.79-68,93.12,71.63s97.16-36.26,149.54-62.23,57.63-40.11,57.63-40.11-5.95-32.42-3.59-92,11.77-86.85,11.77-86.85S929,789.93,948.21,783c20.69-7.51,38.47-29.54,72.5-56.4s95-98,95-98l-76.65-73.44s-10.74,7.61-29.54,20.15-44.78,19.25-44.78,19.25-22.83-45.67-44.32-86.86-17-55.51-60.89-83.27S781.66,376,781.66,376l-197-57.76s-46.12,7.16-90.44,28.65S400.66,384,377.82,413.15s-57.3,66.7-82.38,91.78-70.73,62.68-70.73,62.68l-31.34-34.48L89.83,569.94s16,52.61,27.61,80.81,30.26,64.6,87.57,68.18,88.2-17.91,105.21-26S354.54,667,354.54,667Z"/><path class="cls-26" d="M376.93,500.18c-2.9,5.27-4.08,11.17-5.22,17-1.33,6.91-2.88,13.75-4.26,20.65-3.13,15.72-6.74,31.38-9.23,47.22-4.9,31.08-6.53,63-6.09,94.45.26,18.58,2,37,3,55.52a.73.73,0,0,0,1.45,0c.67-15.87-1-31.71-.69-47.59s.66-31.58,1.35-47.35,1.63-31.34,3.36-46.91c1.75-15.76,4.88-31.25,7.71-46.84,1.4-7.76,3.16-15.49,4.37-23.29,1.16-7.49,1.54-15.51,5.11-22.36C378.13,500.13,377.25,499.58,376.93,500.18Z"/><path class="cls-26" d="M242.34,588c-5.21-6-10.35-11.73-15-18.27-4.32-6.14-8.51-11.81-14.43-16.53-.58-.46-1.34.51-.81,1,5.47,5.21,9.67,11.88,13.6,18.29a146.68,146.68,0,0,0,13,17.34,142.29,142.29,0,0,1,13.53,19.27c4.24,7.22,7.45,15,11.6,22.21a.23.23,0,0,0,.43-.17C261.34,615.14,252.88,600.18,242.34,588Z"/><path class="cls-26" d="M1003.62,577.48c-4.28,1-8.37,3.13-12.41,4.83q-7,2.93-14.11,5.55c-8.83,3.22-17.65,6.49-26.56,9.49s-17.9,5.93-26.84,8.91c-8.75,2.92-17.58,6.19-26.75,7.5-1,.14-.78,1.77.2,1.74,9.27-.31,18-3.28,26.88-5.61,9.49-2.49,19-5.15,28.25-8.27,8.9-3,17.78-6.14,26.35-10q6.82-3,13.53-6.38c4.05-2,8.44-4,11.87-7A.44.44,0,0,0,1003.62,577.48Z"/><path class="cls-26" d="M877.25,744.69c-8.06-7.86-17.54-13.17-26.91-19.25S832,712.58,823,705.94s-18.38-12.72-27.22-19.53c-8.5-6.56-15.55-15.13-25.06-20.31a.53.53,0,0,0-.55.9c8.85,6.82,15.7,15.85,24.4,22.87,8.35,6.73,17.25,12.76,25.79,19.24,8.76,6.65,17.49,13.32,26.69,19.37,4.74,3.12,9.65,5.9,14.59,8.72s9.45,6.22,14.42,9C877,746.66,878.05,745.47,877.25,744.69Z"/><path class="cls-27" d="M540.57,843s24.84-50.37,86.63-123.57,90-96.7,90-96.7l-25.9-50.5,67.84-8.56s28.21-88.35,34.62-132.34,4.7-60.44,4.7-60.44-56.35-66.67-122.84-77.25-54-.33-54-.33-77.42,1.06-124,127.94C478.94,472,466,497.35,466,497.35l59.1,19.89-51.71,25.44s-8.73,28.73,11.42,119.17S540.57,843,540.57,843Z"/><path class="cls-28" d="M593.62,350.69s-17.46,17.46-40.29,92S531.16,601.19,529.15,663s10.07,165.21,10.07,165.21,43.66-129.22,88-210.34S778,385.86,778,385.86Z"/><path class="cls-26" d="M832.35,905.53c-5.19,3.82-9.88,8.32-15,12.23a206.52,206.52,0,0,1-17.9,12.18,327.9,327.9,0,0,1-36.36,18.78c-28.3,12.73-57.32,23.79-86.27,34.91C660.22,990,643.5,996,626.86,1002.25c-15.15-11.34-30.46-22.46-45.61-33.8q-11.93-8.91-23.76-17.94c-7.8-6-15.34-12.65-23.56-18a1,1,0,0,0-1.5.63c-2.7,2-4.9,4.79-7.17,7.23l-7.71,8.32c-5.45,5.89-10.8,11.85-16.16,17.82-9.72,10.83-19.42,21.66-28.85,32.75-8.68-1.43-16.8-4.88-24.77-8.49-8.57-3.89-17.19-7.64-25.77-11.51a106.68,106.68,0,0,1-22.07-13.46c-3.53-2.74-7.08-5.46-10.58-8.23s-7.15-6.28-11.19-8.47a.48.48,0,0,0-.58.74c3,3.49,7.09,6.23,10.65,9.13s7.2,6,10.82,8.92a104.85,104.85,0,0,0,22.22,13.86c8.64,4.09,17.23,8.3,25.89,12.35,7.63,3.57,15.24,7,23.56,8.59a1.16,1.16,0,0,0,2,.36c10.08-11.6,20.56-22.88,30.85-34.3,5.23-5.79,10.45-11.58,15.6-17.44l7.49-8.56c2.24-2.56,4.93-5.1,6.74-8,6.68,6.31,14.43,11.74,21.65,17.39q12,9.36,24.13,18.53c15.36,11.65,30.63,23.41,46.05,35a1.54,1.54,0,0,0,1,.76l.23.17a1.62,1.62,0,0,0,2.58-.94q44.28-16.7,88.18-34.4c27.22-11,55-21.61,80.27-36.68a194.4,194.4,0,0,0,19-12.8c5.89-4.53,12.12-9.46,16.57-15.45C833.36,905.85,832.77,905.22,832.35,905.53Z"/><path class="cls-26" d="M798.66,386.44a.49.49,0,0,0-1,0,515.8,515.8,0,0,1-11.25,69.76c-5.48,23-12,45.67-18.4,68.41-3.5,12.44-6.88,24.91-10,37.46-11,.7-21.95,2.11-32.81,3.71-5.77.84-11.47,2-17.19,3.07-5.1,1-11.39,1.42-16.07,3.84-.38-.29-1.1,0-.9.54,3.08,8.29,7.87,16,12,23.77a151.33,151.33,0,0,1,11.34,26,1.57,1.57,0,0,0,.34.61q-39.25,37.93-75.47,78.75Q629.88,713,620.7,724c-5.88,7-11.3,14.3-17,21.43-11.17,13.93-22,28.2-32.21,42.87-11.33,16.31-21.38,33.36-31.28,50.55-7.47-20.36-14.43-40.9-21.29-61.47-3.6-10.81-7.28-21.59-10.76-32.44q-2.49-7.8-4.46-15.74c-1.36-5.48-2.2-11.19-4.16-16.49-1.07-4.53-2.66-9-3.9-13.44q-2.34-8.37-4.42-16.81-4-16.26-7-32.72a628,628,0,0,1-8.29-68.23c-.9-12.09-1-24.53-2.79-36.54,1.86-.12,3.19-1.07,4.95-2,2.34-1.19,4.71-2.34,7.06-3.5q7.07-3.5,14.12-7c4.69-2.36,9.41-4.67,14.09-7.07,4.22-2.17,9-4.1,12.83-6.94.5-.37,0-1.16-.57-1l-.65.2a1.22,1.22,0,0,0-.59-1.86c-9.39-3.52-18.86-6.66-28.4-9.76-5.06-1.65-10.12-3.28-15.2-4.85-4.52-1.41-9.16-3.14-13.83-4.08a809.63,809.63,0,0,1,58.64-126.23q10-17.56,20.52-34.86a.64.64,0,0,0-1.09-.67c-27.05,39.08-49,81.64-67.28,125.46q-7.79,18.67-14.58,37.74c-.6,1.68,1.74,2.53,2.69,1.32,4.12,1.66,8.5,2.78,12.71,4.14,5.28,1.7,10.54,3.43,15.81,5.13,9.74,3.15,19.43,6.23,29.29,8.94-3.92,1.37-7.75,3.56-11.46,5.27-4.58,2.11-9.12,4.32-13.67,6.48s-9.11,4.33-13.65,6.51c-2.37,1.14-4.73,2.29-7.11,3.42-1.75.83-3.7,1.43-5.18,2.66a1.25,1.25,0,0,0-2.12.79c-.36,11.57,1.09,23.38,1.8,34.92s1.63,22.85,3.09,34.22a625.71,625.71,0,0,0,11.95,67.14q2.25,9.39,4.83,18.69c1.68,6,3.1,12.42,5.66,18.15a.43.43,0,0,0,0,.07c1.09,9.51,4.26,19.15,7.24,28.1,3.67,11,7.44,21.93,11.14,32.9,7.25,21.5,14.37,43.06,22.4,64.29l0,.07c-.89,1.55,1.54,3,2.35,1.43.07-.13.15-.26.22-.4a.92.92,0,0,0,.21-.39c8.42-16,18.21-31.27,28.25-46.27,10.23-15.28,20.77-30.26,32-44.83s23.53-28.66,35.7-42.56c12-13.74,24.43-27.14,37-40.39q21.15-22.27,42.52-44.37a1.36,1.36,0,0,0,.78-1.76c-2.82-8.65-7-16.87-11.34-24.84s-8.58-15.76-13.32-23.3c4.74.07,9.94-1.66,14.54-2.5,5.74-1,11.53-1.81,17.3-2.66,11.35-1.68,22.73-2.76,34.15-3.86a1.47,1.47,0,0,0,1.8-.54,1.71,1.71,0,0,0,.45-1.49c11.37-45.82,27.32-90.61,34.46-137.4A233.44,233.44,0,0,0,798.66,386.44Z"/><path class="cls-29" d="M658.36,193.35S605.14,338.16,599.7,352.46s74.13,12.74,22.18,32.22c0,0,20.07,6.38,77.9,13.43,92.55,11.3,41.9,5.4,58.91-14.11,0,0,3.92,5.18,4.54-20.12.75-30.28,17.1-157.27,17.1-157.27Z"/><path class="cls-30" d="M658.36,193.35l122,13.26S772.94,264,767.87,310.83a178.71,178.71,0,0,1-29.68,21.24c-24.41,13.66-47.69,12.36-68.32,10.12-25.09-2.72-42.32-15-53.67-34.28C633.66,260.55,658.36,193.35,658.36,193.35Z"/><path class="cls-31" d="M663.44,393.26l35.25,47.27,74.89-47.35,4.38-7.32s-8.69-4.19-12.91-6.15C765.05,379.71,722,399.41,663.44,393.26Z"/><path class="cls-31" d="M662.22,393.13a215.91,215.91,0,0,1-82.79-26.88L576,377.44l35.84,52.66Z"/><path class="cls-32" d="M671.26,443.32l26.29-25.94-32.24-36-43.47,28.42,17.4,31s-77.38,189-104.72,267.9c-1.57,4.86-2.95,9.77-4.22,14.69,2.8,52.47,8.92,104.85,8.92,104.85s18.72-55.4,44.08-116.42C583.3,711.76,596.14,579.67,671.26,443.32Z"/><polygon class="cls-28" points="768.68 337.35 665.66 380.04 599.28 330.7 571.95 365.36 577.68 371.99 615.76 416.07 665.1 385.07 699.48 426.46 779.28 385.18 768.68 337.35"/><path class="cls-29" d="M793.42,164.81s5.06-15.22,25.4-13.59c19.66,1.58,13.37,52.11-3.87,60.55s-23.13-16.6-23.13-16.6Z"/><path class="cls-29" d="M602.94,166.21s-5.29-15.14-25.6-13.21c-19.64,1.87-12.6,52.29,4.76,60.49S605,196.55,605,196.55Z"/><path class="cls-29" d="M579.8,162.4c10.68,107.9,45.59,159.49,118.46,159s107.57-43.61,116.12-160.68c6.33-86.46-45.73-139.51-118.32-139S570.92,72.76,579.8,162.4Z"/><path class="cls-33" d="M751.56,178.53c0,4.09,2.93,7.38,6.48,7.35s6.39-3.36,6.36-7.44-2.92-7.39-6.47-7.36S751.53,174.44,751.56,178.53Z"/><path class="cls-33" d="M634.56,179.39c0,4.09,2.92,7.38,6.47,7.35s6.4-3.36,6.37-7.44-2.93-7.39-6.48-7.36S634.53,175.3,634.56,179.39Z"/><path class="cls-34" d="M779.88,154.83a3.84,3.84,0,0,0,2.8-6.43c-6-6.6-20.89-20.49-42.12-6.29a4,4,0,0,0-1.64,5.17,3.84,3.84,0,0,0,5.17,1.64c19.24-10,32.8,4.51,32.93,4.66A3.88,3.88,0,0,0,779.88,154.83Z"/><path class="cls-34" d="M614,156a3.82,3.82,0,0,1-2.89-6.37c5.93-6.7,20.58-20.8,42-6.91a4,4,0,0,1,1.72,5.14,3.84,3.84,0,0,1-5.15,1.71c-19.38-9.69-32.73,5-32.85,5.14A3.82,3.82,0,0,1,614,156Z"/><path class="cls-30" d="M692.66,241.29c5.39-.21,9.66-1.7,11.63-5.7,6.18-12.46-5.85-32.39-7-34.84-.78-1.7-1.94-2.69-3.63-1.91s-1,3-.26,4.72c3.69,8,6.05,22.95,2.75,28.67-.55,1-1.52,2.08-4.14,2.32a3.44,3.44,0,0,0-3.06,3.69C689.14,241.48,692.56,241.3,692.66,241.29Z"/><path class="cls-34" d="M741.64,293.59,746.38,307s-16,20.1-48.16,20.33-43.33-10.73-48.48-17.49l3.9-15.56s2.61,8.69,7.28,9.81c24.23,5.8,45.06,8.39,72.38-.53C733.3,303.52,740.53,297.4,741.64,293.59Z"/><path class="cls-34" d="M698.25,246.92s-21.54,2-29.78,3.75c0,0-5,1.9-4.89,14.11l35-3.13s22,1,33.24,4.06c0,0,.95-11.18-4.2-14.25S709.3,248.4,698.25,246.92Z"/><path class="cls-5" d="M729.29,279.56s-.26-.09-.73-.21c-.23-.06-.53-.12-.88-.19s-.75-.16-1.21-.23-1-.15-1.52-.22-1.17-.1-1.82-.13-1.35,0-2.08,0h-1.11l-1.19.08c-.8.06-1.63.12-2.48.22l-2.62.35c-.87.1-1.8.31-2.7.44s-1.81.26-2.74.42-1.85.27-2.77.36c-.47.05-.92.07-1.38.11s-.94.09-1.41.12c-.93.05-1.87.08-2.8.06-.47,0-.94,0-1.42,0s-.95,0-1.42,0c-1,0-1.91-.1-2.86-.2s-1.93-.15-2.89-.28-1.93-.27-2.9-.45-1.94-.33-2.9-.51c-1.92-.34-3.84-.84-5.67-1.13s-3.59-.61-5.22-.83c-.81-.1-1.6-.24-2.34-.28s-1.45-.11-2.11-.14c-1.32-.08-2.47-.1-3.43-.13l-2.2,0h-.78l-.13-.39.7-.25c.46-.16,1.13-.41,2-.74s1.9-.73,3.09-1.23l1.9-.82c.67-.29,1.39-.58,2.14-.89,1.5-.62,3.13-1.35,4.88-2.12.87-.4,1.8-.74,2.75-1.1s1.93-.73,2.93-1.08c.51-.18,1-.33,1.54-.51s1-.33,1.57-.46c1.07-.26,2.17-.5,3.29-.71s2.24-.39,3.38-.51,2.32-.15,3.48-.17,2.33,0,3.5,0,2.33.22,3.47.38c.57.08,1.14.18,1.7.28s1.12.26,1.67.4c1.1.28,2.18.61,3.22,1,.52.16,1,.39,1.53.59s1,.42,1.47.64c1,.42,1.88.85,2.76,1.34s1.71.93,2.5,1.37,1.53.95,2.23,1.38l1,.64,1,.64.88.6c.29.18.57.36.83.56l1.44,1,1.18.89c.36.26.65.52.91.73s.48.4.65.56a6.36,6.36,0,0,1,.5.48Z"/><path class="cls-29" d="M1028.53,574.6c2.54-17.76,15.22-34,54.55-37.6s79,5.57,82.45,15.4-.64,15.22-20,15.22-30.76,1-30.76,1,5.07,26.32,13,40.91S1138.57,626,1138.57,626s27-19.34,41.86-17.12,21.25,13.95,6,24.1-34.25,17.8-34.25,17.8a132.08,132.08,0,0,0,21.56,8.84c13,4.12,12.37,21.88-2.22,23.46s-27.9-6.66-40.91-12.37A66.89,66.89,0,0,1,1110,656.73s-10.78,1.27-16.49.64l-5.71-.64a19.1,19.1,0,0,1-15.85,6.34c-10.47-.63-23.47-12.36-32.67-33.29S1028.53,574.6,1028.53,574.6Z"/><path class="cls-29" d="M1075.46,625.34c.32-1,24.42-27.91,34.57-25.69s18.39,11.42,5.71,28.86-20.61,22.29-21.56,22.24S1075.46,625.34,1075.46,625.34Z"/><path class="cls-30" d="M1154.09,633.46c-7.83-6.42-19-5.52-28.4-5.33a.7.7,0,0,0,0,1.39c8,.19,17.56.86,24.55,5.12,4.34,2.63,6.1,7.05,3.16,11.45-2.59,3.88-6,5.81-10.42,7-8.91,2.5-18.49,2.56-27.68,2.51-4.77,0-9.54,0-14.3,0-2.37,0-5.52.3-8.31,0,1.14-1,2.27-2,3.39-3.06,3.52-3.18,7.51-6.07,10.8-9.46a113.54,113.54,0,0,0,7.89-9.86,46.38,46.38,0,0,0,6-10.45c2.55-6.07,4.74-14-.1-19.59s-12.57-5.89-18.93-2.81c-4.47,2.17-8.28,5.81-12,9.08s-6.34,7.71-10.06,11c-.65.56.2,1.74.91,1.22,7.63-5.6,13.3-13.5,21.91-17.91,4.06-2.08,8.89-3,13-.4,4.46,2.8,5,7.37,3.86,12.1-2.15,8.79-7.45,15.61-12.87,22.63-3,3.91-7.07,6.87-10.62,10.28-1.86,1.79-3.68,3.62-5.56,5.39-.37.35-.77.69-1.16,1l-.07,0c-1.63-.77-3.12,1.37-2,2.39a13.89,13.89,0,0,1-1.67,2.42.16.16,0,0,0,.19.25c1.32-.75,2.61-1.06,3.86-1.71,3.28.84,7,.47,10.33.55,6.38.17,12.8.12,19.18,0a154.78,154.78,0,0,0,16.67-1.06c4.95-.59,10.44-1.45,14.86-3.94C1157.89,649.53,1161.41,639.47,1154.09,633.46Z"/><path class="cls-29" d="M183.81,555.43c11.77-13.53,15.73-33.73-7.25-65.84S120.7,433.5,111,437.29s-11.09,10.44,1.56,25.07,19.4,23.89,19.4,23.89-23.23,13.38-39.45,16.92S73,505.81,73,505.81s-3-33.05-14.43-42.87S34.09,456,36.37,474.15s8.94,37.55,8.94,37.55a131.11,131.11,0,0,1-20.79-10.53c-11.63-7.14-24.64,5-16.3,17S31.51,535,44.33,541.05a67.18,67.18,0,0,0,24,6.47s6.09,9,10.31,12.88l4.21,3.91a19.12,19.12,0,0,0,5.58,16.14c7.32,7.5,24.7,9.66,46.55,2.92S183.81,555.43,183.81,555.43Z"/><path class="cls-29" d="M114.73,553.12c.51-.86,5.13-36.72-3.18-42.94S90.88,503.73,86,524.74s-3.38,30.17-2.72,30.86S114.73,553.12,114.73,553.12Z"/><path class="cls-30" d="M57.16,499c10,1.72,16.6,10.76,22.6,18,.57.69-.43,1.6-1,.93C73.35,512,66.59,505.18,58.8,502.67c-4.83-1.55-9.33,0-10.73,5.1-1.23,4.5-.48,8.33,1.48,12.5,4,8.37,10.17,15.65,16.21,22.57,3.14,3.59,6.23,7.23,9.4,10.79,1.57,1.77,3.38,4.37,5.4,6.31,0-1.52.06-3.05.09-4.57.11-4.74-.31-9.64.1-14.35A114,114,0,0,1,83,528.6a46.29,46.29,0,0,1,4-11.37c2.92-5.91,7.49-12.76,14.88-12.74s12.67,5.65,14.5,12.48c1.29,4.8,1,10.06,1,15s-1.69,9.84-1.71,14.78c0,.86-1.45,1-1.52.11-.75-9.44,1.51-18.89-.78-28.28-1.09-4.44-3.59-8.66-8.19-10.08-5-1.54-8.85,1-11.67,5-5.24,7.38-6.94,15.85-8.7,24.54-1,4.84-.57,9.85-.83,14.76-.14,2.58-.33,5.15-.44,7.73,0,.51,0,1,0,1.56l.07,0c1.65.73,1,3.25-.5,3.07a12.75,12.75,0,0,0-.73,2.84.16.16,0,0,1-.32,0c-.3-1.49-.92-2.67-1.24-4-2.78-1.93-5-5-7.17-7.45-4.3-4.72-8.46-9.61-12.58-14.48a155.06,155.06,0,0,1-10.1-13.3c-2.79-4.14-5.73-8.85-6.74-13.82C42.51,506.61,47.82,497.36,57.16,499Z"/></g></g></svg>