<svg xmlns="http://www.w3.org/2000/svg" width="31.51mm" height="6.41mm" viewBox="0 0 89.32 18.17">
  <g>
    <path d="M4.67,14S-.6,9.21.71,8c.45-.43,2,1.47,2,1.47S3.88,2.09,5.46,1.3s5.32,6.45,5.89,15.17" style="fill: none;stroke: #1d1d1b;stroke-linecap: round;stroke-miterlimit: 10"/>
    <path d="M16.22,14.54s-3.51,2,1.47,1.13" style="fill: none;stroke: #1d1d1b;stroke-linecap: round;stroke-miterlimit: 10"/>
    <line x1="19.05" y1="14.09" x2="19.73" y2="15.22" style="fill: none;stroke: #1d1d1b;stroke-linecap: round;stroke-miterlimit: 10"/>
    <path d="M17.69,4.47l2,8s.46-2.08,3.17-1.36c.15,0-1.47,1.36-1.47,1.36s-1.68,1.92,2.38,2" style="fill: none;stroke: #1d1d1b;stroke-linecap: round;stroke-miterlimit: 10"/>
    <path d="M39.31,8.85S36.57-2.44,29.58,1.24c-5.38,2.83-1.7,9.67-.22,10.71,2.4,1.69,6.71.82,6.71.82" style="fill: none;stroke: #1d1d1b;stroke-linecap: round;stroke-miterlimit: 10"/>
    <line x1="39.31" y1="12.01" x2="41.24" y2="9.22" style="fill: none;stroke: #1d1d1b;stroke-linecap: round;stroke-miterlimit: 10"/>
    <path d="M47.88,12.2s-4,1.93-4.57,0S44,9.49,45,9.51s.57,1.6-1.25,2.69" style="fill: none;stroke: #1d1d1b;stroke-linecap: round;stroke-miterlimit: 10"/>
    <line x1="50.22" y1="12.99" x2="51.27" y2="11.75" style="fill: none;stroke: #1d1d1b;stroke-linecap: round;stroke-miterlimit: 10"/>
    <line x1="48.33" y1="5.98" x2="47.88" y2="5.45" style="fill: none;stroke: #1d1d1b;stroke-linecap: round;stroke-miterlimit: 10"/>
    <path d="M57.2,9.67s-2.49,1.48-1.85,3.7,3.55-1.62,3.55-1.62l.53,5.92" style="fill: none;stroke: #1d1d1b;stroke-linecap: round;stroke-miterlimit: 10"/>
    <path d="M60.44,1.67s1,8.23,3,10.08c.68.62,3.85.26,3.85.26" style="fill: none;stroke: #1d1d1b;stroke-linecap: round;stroke-miterlimit: 10"/>
    <path d="M66.75,3.6a72.48,72.48,0,0,1,1.35,7.47" style="fill: none;stroke: #1d1d1b;stroke-linecap: round;stroke-miterlimit: 10"/>
    <line x1="70.82" y1="7.94" x2="66.41" y2="9.22" style="fill: none;stroke: #1d1d1b;stroke-linecap: round;stroke-miterlimit: 10"/>
    <path d="M74.82,9S72,9,73.24,10.92,76.67,9.83,74.82,9Z" style="fill: none;stroke: #1d1d1b;stroke-linecap: round;stroke-miterlimit: 10"/>
    <path d="M78.67,11.28S78.37,9.15,80.22,9s2,2,2,2" style="fill: none;stroke: #1d1d1b;stroke-linecap: round;stroke-miterlimit: 10"/>
    <line x1="88.18" y1="12.37" x2="88.82" y2="11.9" style="fill: none;stroke: #1d1d1b;stroke-linecap: round;stroke-miterlimit: 10"/>
  </g>
</svg>
