<?xml version="1.0" encoding="utf-8"?>
<!-- Generator: Adobe Illustrator 24.0.2, SVG Export Plug-In . SVG Version: 6.00 Build 0)  -->
<svg version="1.1" id="Layer_1" xmlns="http://www.w3.org/2000/svg" xmlns:xlink="http://www.w3.org/1999/xlink" x="0px" y="0px"
	 viewBox="0 0 745.1 264.6" style="enable-background:new 0 0 745.1 264.6;" xml:space="preserve">
<style type="text/css">
	.st0{fill:#3DE580;}
	.st1{fill:#453878;}
</style>
<title>Asset 1</title>
<g>
	<g>
		<path class="st0" d="M723.7,81.8C711.4,82,700,82.3,689.4,83c-5-14.6-10.9-28.6-17.7-40.8C657.9,17.4,640.2,0,617.7,0
			c-32.1,0-58.4,30.2-78,89.8c-1.3,3.9-2.6,8-3.8,12.3c-1.3,4.4-0.3,9,2.4,12.6c7,9.3,10.8,20.9,10.8,33.4
			c0,15.5-5.8,29.7-16.5,39.8c-2.8,2.7-5.9,5.1-9.3,7.1c-1.4,0.8-5.5,3.9-6.3,8.5c-0.4,2.2-0.3,3.8-0.4,5.9
			c-0.8,11.9,8.6,22.1,20.6,22.1h0.1c10.9,0,19.8-8.4,20.6-19.2c2.2-32.8,10.8-78.4,21.1-109.6c16-48.6,29.2-61.4,38.8-61.4
			c17,0,29.8,46.9,29.8,46.9c-23.3,4.9-39.9,13.3-50.5,27c-11.5,14.8-14.3,34-8.4,57.1c11.9,46.1,42.1,74.5,66.3,85.7
			c9.4,4.3,18.5,6.5,26.8,6.5c6.2,0,12-1.2,17.1-3.7c15.6-7.6,17.6-26.9,15.7-55.6c-0.9-12.8-2.7-27.5-5.3-42.7
			c-1.8-10.6-4-21.5-6.4-32.2c-0.5-2.2-1-4.5-1.6-6.7c8.1-0.4,16.2-0.6,23.6-0.7c11.6-0.1,20.9-9.9,20.3-21.6
			C744.6,90.2,734.9,81.6,723.7,81.8z M681.7,128.8c-6.7,0.9-20.6,3.9-18.1,16.2c0,0,8.5,37.1,10.1,72.7c0.1,1.6-1.6,2.7-3.1,2
			c-13.4-7.1-33.5-24.9-42-57.6c-3.9-15.1-0.2-19.9,1-21.5c3.5-4.5,14.5-11.9,51.7-15.7c1.2-0.1,2.2,0.8,2.2,2.1
			C683.4,127.9,682.6,128.7,681.7,128.8z"/>
	</g>
	<path class="st1" d="M313.3,103.1c0.2-1.7-1.1-3.2-2.8-3.2c-4.5,0-16.3,0-21.7,0c-1.5,0-2.6,1.6-1.9,3c0.3,0.8,0.8,1.7,1.5,2.6
		c0.5,0.6,0.5,1.6,0,2.2c-0.7,0.8-1.9,0.8-2.6,0c-6.6-7.6-17.4-9.6-27.4-9.6c-28.1,0-51,20.4-51,50.1c0,29.8,22.8,50.1,51,50.1
		c11.6,0,22.3-5.3,30.9-12.9c0.6-0.5,1.5-0.7,2.2-0.2c0.9,0.6,1,1.8,0.3,2.5c-1,1.1-2.4,2.9-3.1,4.9c-0.6,1.4,0.5,2.9,2,2.9l21.1,0
		c1.3,0,2.2-1.1,2.1-2.4C311,165.8,307.5,149.8,313.3,103.1z M258.4,171.8c-13.9,0-23.4-10.7-23.4-23.8s9.5-23.8,23.4-23.8
		s23.4,10.7,23.4,23.8S272.3,171.8,258.4,171.8z"/>
	<path class="st1" d="M541.1,148c0-13.1-4.4-24.4-11.8-32.9c-9.3-10.9-23.4-17.2-39.2-17.2c-28.1,0-51,20.4-51,50.1
		s22.8,50.1,51,50.1c9.1,0,17.7-2.1,25.1-6C530.6,183.9,541.1,168.1,541.1,148z M490.1,171.8c-13.9,0-23.4-10.7-23.4-23.8
		s9.5-23.8,23.4-23.8c13.9,0,23.4,10.7,23.4,23.8S504,171.8,490.1,171.8z"/>
	<path class="st1" d="M428.1,66.1h-23.6c-1.1,0-2,0.8-2.1,1.8c-1.7,11.3-2.4,22.9-2.7,28.6c-0.1,2.3,0.6,4.5,2,6.3l0.2,0.3
		c0.5,0.7,0.6,1.6,0.1,2.3c-0.7,0.9-1.9,1-2.7,0.3c-6.7-6-16.4-7.6-25.4-7.6c-28.1,0-51,20.4-51,50.1c0,29.8,22.8,50.1,51,50.1
		c11.6,0,22.3-5.3,30.9-12.9c0.6-0.5,1.5-0.7,2.2-0.2c0.9,0.6,1,1.8,0.3,2.5c-1,1.1-2.4,2.9-3.1,4.9c-0.6,1.4,0.5,2.9,2,2.9l21.2,0
		c1.2,0,2.2-1.1,2.1-2.3c-2.5-30.4-6-71.6,0.9-124.7C430.4,67.2,429.4,66.1,428.1,66.1z M373.8,171.8c-13.9,0-23.4-10.7-23.4-23.8
		s9.5-23.8,23.4-23.8s23.4,10.7,23.4,23.8S387.7,171.8,373.8,171.8z"/>
	<path class="st1" d="M71.2,73.5c-0.5-1.1-1.5-1.7-2.7-1.7H45c-1.2,0-2.2,0.7-2.7,1.7C18.9,125.8,3.5,180,0.1,192.7
		c-0.4,1.4,0.7,2.8,2.1,2.8l24,0c1.3,0,2.4-0.9,2.7-2.1c0.7-3,2.3-9,4.6-17.4c0.3-1,1.2-1.7,2.2-1.7h42c1,0,1.9,0.7,2.2,1.7
		c2.3,8.4,3.9,14.4,4.6,17.4c0.3,1.3,1.4,2.1,2.7,2.1l24,0c1.5,0,2.5-1.4,2.1-2.8C110,180,94.7,125.8,71.2,73.5z M42.9,145
		c3.4-10.6,7.4-23.1,11.9-35.5c0.3-0.7,0.8-1.3,1.5-1.4c1.1-0.3,2.1,0.3,2.4,1.3c4.6,12.4,8.5,24.9,11.9,35.5
		c0.5,1.5-0.7,3.1-2.3,3.1l-23.4,0C43.5,148,42.4,146.5,42.9,145z"/>
	<path class="st1" d="M202,99.9l-22.9,0.2c-1.2,0-2.3,0.8-2.7,2c-4.3,14.3-9.6,31.9-19.6,55.8c-0.3,0.8-1.1,1.3-2,1.3
		s-1.7-0.5-2-1.3c-10-23.9-15.3-41.5-19.6-55.8c-0.4-1.2-1.5-2-2.7-2l-23.9-0.2c-1.4,0-2.4,1.3-2.1,2.7
		c3.2,11.8,16.8,59.6,37.7,91.7c0.5,0.8,1.4,1.3,2.4,1.3h20.3c1,0,1.9-0.5,2.4-1.3c20.4-31.3,33.9-77.6,37.4-90.8
		C205.2,101.7,203.9,99.9,202,99.9z"/>
</g>
</svg>
