<svg id="Layer_1" data-name="Layer 1" xmlns="http://www.w3.org/2000/svg" viewBox="0 0 1200 1820"><defs><style>.cls-1{fill:#3fc9e6;}.cls-2{fill:#453878;}.cls-3{fill:#ff8f00;}.cls-4{fill:#c3c3d1;}.cls-5{fill:#abaaba;}.cls-6{fill:#6154c7;}.cls-7{fill:#8c4f45;}.cls-8{fill:#753c36;}.cls-9{fill:#443889;}.cls-10{fill:#f7c2d0;}.cls-11{fill:#ff8d94;}.cls-12{fill:#f04e98;}.cls-13{fill:#23242b;}.cls-14{fill:#30323d;}.cls-15{fill:#fdf5ed;}</style></defs><path class="cls-1" d="M401.54,858.43c-25.51,10.21-36.08,41.72-35.39,69.49s9.37,55,8.69,82.76c-.82,33.58-15.17,65.12-22.45,97.9-16.13,72.65,3,148.28,25.92,219s50.08,142,50.3,216.47S395,1698.86,327.49,1728.42c61.59-12,123-32.12,173.26-70.08s88.44-95.87,92-159.29c4.07-73-34.67-154.88,7.42-214.25,33.68-47.5,100.25-51.63,154-73,90.1-35.87,151.45-135,144.07-232.73-59.87-19-108.64-68.47-168.82-86.44C626.93,862,498.42,904,401.54,858.43Z"/><path class="cls-2" d="M470.47,406.13s-27.78,6.95-51.77,27.78-22.1,24.63-29.05,63.14-46.08,68.18-46.08,68.18l-13.26-53-79.55,9.47s-22.73,65-34.09,97.23S185.1,708.55,193.31,737s72,56.82,147.73,21.46,99.12-75.13,99.12-75.13,19.57,34.73,28.41,53,22.73,32.2,22.73,32.2S451.53,800.72,428.8,826s-28.41,33.46-28.41,33.46,13.89,40.41,65.66,86.49,158.46,80.19,196.35,87.76,68.18,11.37,68.18,11.37l39.14-44.2,13.89,47.35s53-8.84,73.24-17.68,36-24.62,36-24.62,23.36-54.29,18.94-130.69-16.42-128.16-16.42-128.16,37.88,28.41,70.71,6.31,72-80.81,83.34-131.32,3.79-102.27-1.89-127.53-12.63-48.61-12.63-48.61h-60s-5,36-24.62,77.65-41,66.93-41,66.93-32.83-32.83-61.87-82.08-51.14-75.13-105.44-91.54-137-29.68-137-29.68Z"/><polygon class="cls-3" points="1020.65 496.37 993.12 499.81 968.2 340.09 1005.45 335.43 1020.65 496.37"/><path class="cls-4" d="M1017.69,311.69c-2.54-20.34-19.65-35-38.21-32.63s-31.54,20.69-29,41,19.65,35,38.21,32.64S1020.24,332,1017.69,311.69Z"/><rect class="cls-5" x="949.1" y="313.44" width="70.18" height="6.53" transform="translate(-31.7 124.63) rotate(-7.13)"/><path class="cls-6" d="M368.28,624.71c-.73-3.59-2.68-6.33-4.48-9.45A67.41,67.41,0,0,1,359,603.54c-2.94-8.42-5.9-16.83-8.82-25.25s-5.7-16.7-8.21-25.16-4.61-17.11-7.26-25.56c-.25-.82-1.68-.77-1.6.19,1.54,17.52,7.24,35,12.68,51.66,2.78,8.49,5.85,16.86,9.13,25.16a81.9,81.9,0,0,0,4.78,10.64c2,3.54,4.59,6.75,6.44,10.36C366.74,626.81,368.54,626,368.28,624.71Z"/><path class="cls-6" d="M464.54,641.43a1,1,0,0,0-1.89-.55c-1.71,2.15-2.4,4.45-3.38,7-1.1,2.87-2.25,5.71-3.52,8.51a171.69,171.69,0,0,1-8.19,15.83,127.62,127.62,0,0,1-21.94,28.09c-.6.58.26,1.43.88.92,9.28-7.62,17.2-17.34,23.72-27.39a132.21,132.21,0,0,0,8.86-16C461.38,652.89,464.83,647,464.54,641.43Z"/><path class="cls-6" d="M901.33,767.3c-1.25-7.72-2.93-15.28-4.85-22.87-3.9-15.48-8.43-30.79-12.77-46.16-4.08-14.43-7.16-29.29-12.26-43.41a170.21,170.21,0,0,0-8.38-19.56c-3-5.94-6.84-11.42-9.9-17.33-3.43-6.64-5.45-13.91-7.88-21a70.1,70.1,0,0,0-9.43-18.7c-.58-.8-1.94-.09-1.37.77,7.11,10.72,8.71,24.46,13.26,36.32,2.27,5.92,5.56,11.23,8.38,16.88a194.41,194.41,0,0,1,8.47,19.76c5.12,14,8.23,28.58,12.22,42.91,4.17,15,8.65,29.92,12.89,44.9,2.33,8.26,4.66,16.55,6.48,24.95.95,4.4,1.68,8.84,2.69,13.24a103.82,103.82,0,0,0,4.23,12.85c.09.24.53.24.5-.06C902.88,782.94,902.61,775.15,901.33,767.3Z"/><path class="cls-6" d="M936.05,551c-3.66,4.83-6.26,10.37-9.71,15.35a177.84,177.84,0,0,1-12.47,15.94c-7.9,9.07-15.87,18.28-24.73,26.37-.41.37.09,1,.56.75,11.23-5.43,19.31-14.63,26.88-24.27a183.16,183.16,0,0,0,11.14-15.93c3.52-5.66,5.68-12,9.45-17.54C937.65,551,936.55,550.35,936.05,551Z"/><path class="cls-7" d="M972.7,437.07s-11.05,2.21-15.78-10.1-7.26-25.57-8.84-30.94-1.37-11.15,7.26-16.73,21.47,0,21.47,0,.56-23.67,18.9-25.25,49.28,31.88,51.49,36.62,1.89,46.08-1,61.24-16.1,24-22.73,27.46S989.91,477.16,983,474s-12.86-8.2-12.86-18.94A60.09,60.09,0,0,1,972.7,437.07Z"/><path class="cls-8" d="M1038.33,422.55c-1.27-1.81-3.08-2.67-4.94-3.78-2.73-1.62-5.3-3.44-8.13-4.91-5.43-2.83-10.82-5.78-16.66-7.72-4.59-1.53-10.27-2.44-14.86-.42a11.74,11.74,0,0,0-5.89,6.45h0a71.72,71.72,0,0,0-1.91-16.85.65.65,0,0,0,.25-.53c-.53-8.54,6-18.37,15.41-16.42a54.58,54.58,0,0,1,12.85,4.24c4,1.95,6.95,4.89,10.62,7.2a1.09,1.09,0,0,0,1.5-1.45c-2.44-4.37-8.55-7-13-8.77-2.72-1.06-5.54-1.82-8.34-2.63-2.63-.77-5.5-1.74-8.29-1.55-6.35.44-12.07,7.47-12.87,14.1a31.38,31.38,0,0,0-6.24-10.05c-.76-.8-1.86.34-1.21,1.17,6.42,8.3,8.79,19,9.12,29.27.15,4.95.11,10.12-1.63,14.83a20.74,20.74,0,0,1-7.83,9.78.91.91,0,0,0-.62.35,9.26,9.26,0,0,1-2.35.9,1.37,1.37,0,0,0,.31,2.68c.31,0,.62,0,.92-.07-.36,3.22.74,6.82,3.63,8.11,2,.89,4.36.73,6.5.53a73.26,73.26,0,0,1,8.38-.42,100.39,100.39,0,0,1,21.57,2.65c6.89,1.66,13.53,4.78,20.53,5.86.49.08,1.07-.52.57-.95-4.18-3.66-10.25-4.75-15.46-6.25a104.24,104.24,0,0,0-18.11-3.43,100.53,100.53,0,0,0-16.64-.31c-2.19.14-6,.63-7.34-1.63-.92-1.52-.54-3.34-.53-5.08a16.65,16.65,0,0,0,7.57-8.26,31.76,31.76,0,0,0,2.44-10.64.52.52,0,0,0,.27-.26c2.13-4.13,4-9.33,9.17-10.15,4.7-.75,9.89.46,14.25,2.17a129.65,129.65,0,0,1,13.35,6.52c2,1.09,4,2.37,5.9,3.61a43,43,0,0,1,5.69,3.65C1037.29,425,1039.22,423.84,1038.33,422.55Z"/><path class="cls-9" d="M596.53,614.48,543.7,670.9s70.71,40.17,137.64,100.15S787.4,911.75,787.4,911.75s23.36-82.61,30.31-180.47-6.32-154.69-6.32-154.69l-60-18.2,59.35-17.46S776,475,727.42,429.49s-77-60.6-111.74-73.23-108.6.63-123.75,10.1S452.16,394.74,450.26,433s30.94,138.6,38.52,162,20.2,36.5,20.2,36.5Z"/><path class="cls-10" d="M540.55,486.32c1.89-.64,92.17,104.8,138.26,178.67S781.72,886.38,783,889s-.63-91.44-16.41-189.93S680.5,397.86,680.5,397.86L486.73,417Z"/><path class="cls-6" d="M882.58,1014.19c-7.56,4.22-15,8.63-22.79,12.36a191.78,191.78,0,0,1-24.78,9.67,174.72,174.72,0,0,1-24.82,5.84c-4.7.75-9.42,1.39-14.13,2.07-4,.57-8.28.83-12.28,1.71-2.09-7.3-4.08-14.62-6.1-21.93-1-3.83-2.09-7.67-3.21-11.48s-2-8-3.83-11.53a.85.85,0,0,0-1.23-.24.86.86,0,0,0-.75,0c-4,2-7.36,6.62-10.4,9.85q-5.25,5.58-10.31,11.34c-6.21,7.06-12,14.36-17.49,22l-.23,0a619,619,0,0,1-149.78-36.42q-9.78-3.75-19.45-7.83c-3.22-1.36-6.43-2.73-9.65-4.08-2.14-.91-4.29-2-6.5-2.82a1.34,1.34,0,0,0-.75-.87c-12.57-6.24-25.32-12.19-37.45-19.25A267.23,267.23,0,0,1,476.35,952a271.51,271.51,0,0,1-51.53-53.48c-3.95-5.4-7.68-11-11.21-16.65-3.68-5.91-6.76-12.46-10.89-18-.46-.63-1.67-.34-1.39.55,1.82,5.7,5.23,11.16,8.27,16.29q4.74,8,10,15.6a249.63,249.63,0,0,0,23.15,28.84,283.65,283.65,0,0,0,57.47,47.28c13.52,8.33,28,15.08,42.17,22.09a1.63,1.63,0,0,0,1,.16c3.9,2.33,8.46,4,12.46,5.78,6,2.68,12.15,5.18,18.28,7.62q18.13,7.22,36.72,13.24a591.17,591.17,0,0,0,76.19,19.33q21.27,3.93,42.78,6.28a1.34,1.34,0,0,0,1.76-.36c6.1-8.25,12.84-16.08,19.68-23.73,3.27-3.66,6.61-7.27,9.93-10.89,2.55-2.78,6-5.74,7.93-9.15a73.22,73.22,0,0,0,2.19,9.84c1,4.06,2.11,8.09,3.23,12.12,2.06,7.38,4.24,14.73,6.38,22.09a1.52,1.52,0,0,0,.86,2.54,1.56,1.56,0,0,0,2.37-.07c4-.27,8.14-1.21,12.08-1.77,4.72-.68,9.44-1.33,14.15-2.06a179.06,179.06,0,0,0,26.47-6.19c16.37-5.19,33.19-12.93,46.46-24C884,1014.77,883.24,1013.82,882.58,1014.19Z"/><path class="cls-6" d="M822.13,674.78c-.58-11.19-1.64-22.34-2.5-33.51-.85-11-1.62-22-2.63-32.94-.49-5.32-1.06-10.64-1.84-15.93s-1.51-11.22-3.56-16.34a1.66,1.66,0,0,0-1.45-1,55.39,55.39,0,0,0-6.93-2.11c-2.48-.77-4.93-1.6-7.38-2.46-5.07-1.79-10.09-3.73-15.14-5.57s-10.09-3.57-15.26-5c-2.48-.68-5-1.23-7.53-1.67l-.63-.12c2.44-.79,4.85-1.75,7.24-2.54,5.12-1.68,10.34-3,15.52-4.52,10.18-2.92,20.48-5.37,30.87-7.44a1.64,1.64,0,0,0,1.34-2,1.41,1.41,0,0,0-.11-1c-19.52-40.44-48-77-79.84-108.43a283.72,283.72,0,0,0-28.38-24.72c-.48-.36-1.1.41-.66.82,16.38,15.1,32.67,30.34,47.2,47.27a464.24,464.24,0,0,1,40,53.68c6.44,10.13,12.33,20.52,18.17,31q-14.89,3.06-29.49,7.31c-5,1.46-9.88,3.25-14.8,4.94-4.35,1.49-9.3,2.81-13.21,5.36l-.31.08a.68.68,0,0,0-.41.42l-.11.08c-.45.32-.41,1.26.3,1.2l.93-.11c1.87.89,4.12,1,6.12,1.51,2.68.62,5.35,1.34,8,2.11,5,1.46,9.83,3.2,14.67,5s9.72,3.68,14.61,5.42c4.24,1.51,9.5,4,14.15,4.33.67,4.71,1.83,9.38,2.54,14.09.82,5.37,1.4,10.78,1.9,16.19,1,11,1.84,22,2.77,33,.93,11.15,1.9,22.32,2.46,33.5s.15,22.36-.06,33.6a1,1,0,0,0,.1.47c-1,7.33-1.93,14.66-2.71,22.06-1.13,10.79-2.34,21.59-3.53,32.38s-2.39,21.58-3.63,32.37c-.6,5.17-1.18,10.35-1.91,15.51-.62,4.41-1.67,8.79-2,13.21a165.24,165.24,0,0,0-4,18.52c-1.27,7.82-3,15.54-4.58,23.3q-2.31,11.33-4.7,22.63c-1.42,6.71-2.55,13.55-4.09,20.25-9.71-18.82-21.24-36.9-33.15-54.36a571.44,571.44,0,0,0-40.09-52c-6.11-7.06-12.48-14.79-20-20.68-3.73-4.61-8.54-8.51-12.94-12.46q-6.91-6.21-14-12.18Q653.7,745.82,639.38,735c-19.62-15-39.81-29.2-60-43.33-10.37-7.24-21.07-15.21-32.69-20.45,7.76-9.71,15.87-19,24.46-28,4.35-4.57,8.76-9.09,13.15-13.62,2.38-2.45,4.77-4.88,7.06-7.41,2.06-2.27,4.44-4.34,6.18-6.87a.81.81,0,0,0-.67-1.19,1.21,1.21,0,0,0-.88-.34c-3.59.05-7.19,1.54-10.67,2.35s-7.26,1.6-10.92,2.27c-7.52,1.4-15.09,2.47-22.66,3.55-7.38,1.06-14.77,2.08-22.12,3.34-7,1.19-14.48,2.16-21,5.23a1.14,1.14,0,0,0-.17-.3c-12.33-17-19-36.9-25.25-56.75C476.37,551.73,469.65,530,463.83,508q-2.4-9.06-4.39-18.23c-1.23-5.7-2.16-11.48-3.61-17.13.22-8.61-2.3-17.45-3.47-25.85-1.51-10.76-1.65-21.59,1.32-32.12.18-.62-.73-1.06-1.05-.47-4.88,9.21-5.13,20-4,30.17.59,5.43,1.48,10.81,2.35,16.2.94,5.82,1.51,11.68,3,17.4a.76.76,0,0,0,.71.53c1,8.62,3.14,17.22,5,25.59,2.51,11.45,5.62,22.75,8.89,34,6.21,21.39,12.4,43.14,20.69,63.83a132.44,132.44,0,0,0,16.51,30.43,1.68,1.68,0,0,0,2.64-.2c7.22-.39,14.34-2.44,21.47-3.63,7.55-1.26,15.15-2.26,22.74-3.27,7.39-1,14.78-2,22.11-3.35,3.85-.7,7.69-1.47,11.5-2.36,1.74-.4,3.61-.74,5.43-1.22-3.21,3-6.21,6.36-9.21,9.35-4.75,4.73-9.51,9.44-14.21,14.21-8.71,8.85-17.46,18.07-24.69,28.22a1.07,1.07,0,0,0-.67,1l-.25.35c-1.12,1.62,1.23,3,2.5,1.81,9.72,6.35,19.78,12.12,29.34,18.75,10.08,7,20,14.16,30,21.3C624.33,727.47,644.12,742,663,757.64q7.82,6.51,15.41,13.27c4.1,3.67,8,7.74,12.24,11.26,6.43,6.44,13,12.71,19,19.62,7.13,8.21,14.08,16.58,20.77,25.16a593.73,593.73,0,0,1,37.38,53.7c6.51,10.58,12.43,21.46,18.52,32.28A1.51,1.51,0,0,0,789,911.8c1.47-7.47,3.49-14.88,5.07-22.34q2.48-11.61,4.83-23.24c1.52-7.55,2.83-15.15,4.55-22.65a152.85,152.85,0,0,0,3-16.9c2-4.44,2.67-9.28,3.42-14.12.8-5.2,1.43-10.43,2-15.66q1.89-16.17,3.68-32.36c1.2-10.79,2.31-21.59,3.44-32.38.57-5.4,1.18-10.8,1.67-16.2.26-2.79.4-5.57.52-8.35C823.06,696.89,822.68,685.57,822.13,674.78Z"/><path class="cls-7" d="M591.19,226.71S650.42,362,656.44,375.36s-70.1,16.46-19.33,32.06c0,0-18.81,7.26-73.66,17.34-87.79,16.14-39.74,7.58-57.12-10.08,0,0-3.44,5.18-5.5-19-2.46-28.89-25.42-149.3-25.42-149.3Z"/><path class="cls-8" d="M591.19,226.71,475.41,246.42s10.38,54.42,17.93,98.87a170.35,170.35,0,0,0,29.59,18.58c24.11,11.65,46.28,9.06,65.86,5.73,23.82-4.05,39.58-16.81,49.31-35.86C618.67,289.49,591.19,226.71,591.19,226.71Z"/><path class="cls-11" d="M597.89,418l-30.95,47.2-74.3-40.91L488,417.57s8.07-4.5,12-6.62C500,411,542.28,427.28,597.89,418Z"/><path class="cls-11" d="M599,417.83a206.42,206.42,0,0,0,77.56-30.46l3.9,10.49-31.2,52.39Z"/><path class="cls-12" d="M769.47,718.17c-9.58-23.51-20.56-46.55-31.94-69.6-6.35-12.68-48.78-99.7-68.07-125.06A759.11,759.11,0,0,0,623.76,462l14.84-30.6-43.19-24.64-28.72,36.29,26.62,23.26C607,475.06,631,505,630.64,505a610.69,610.69,0,0,1,45,78.29c12.35,27.38,20.56,50.49,23.21,58.23.62,1.84,29.64,90.87,37.1,135.57C762,835,782.23,887.45,783,889,784.16,891.47,782.58,809.37,769.47,718.17Z"/><polygon class="cls-10" points="494.09 370.68 595 405.52 655.58 354.54 683.71 386.08 678.61 392.75 644.77 437.07 595.83 410.3 565.36 451.83 486.73 417 494.09 370.68"/><path class="cls-7" d="M460.48,207.24s-5.71-14.25-25.05-11.52c-18.7,2.65-9.76,50.56,7.2,57.64s21.14-17.2,21.14-17.2Z"/><path class="cls-7" d="M642.59,197.57s4.17-14.77,23.69-14.1c18.87.65,15.07,49.24-1,58.07s-22.84-14.86-22.84-14.86Z"/><path class="cls-7" d="M664.48,192.6c-4,103.72-34.36,155-104,158.73S455.15,315.88,440.22,204.5c-11-82.25,35.64-135.95,105-139.64S667.78,106.43,664.48,192.6Z"/><path class="cls-13" d="M501.28,217.93c.2,3.91-2.37,7.22-5.77,7.4s-6.3-2.84-6.51-6.75,2.37-7.22,5.76-7.4S501.07,214,501.28,217.93Z"/><path class="cls-13" d="M613.13,212c.21,3.91-2.36,7.22-5.76,7.4s-6.3-2.84-6.51-6.75,2.37-7.22,5.76-7.4S612.92,208.08,613.13,212Z"/><path class="cls-14" d="M472.84,196.92a3.67,3.67,0,0,1-3-6c5.38-6.66,18.78-20.79,39.89-8.44a3.83,3.83,0,0,1,1.86,4.84,3.66,3.66,0,0,1-4.84,1.86c-19-8.42-31.09,6.21-31.2,6.36A3.72,3.72,0,0,1,472.84,196.92Z"/><path class="cls-14" d="M631.43,188.5a3.73,3.73,0,0,0,2.41-1.07,3.69,3.69,0,0,0,0-5.2c-6.06-6-20.87-18.68-40.56-4.17a3.83,3.83,0,0,0-1.34,5,3.67,3.67,0,0,0,5,1.34c18-10.38,31.56,2.88,31.69,3A3.71,3.71,0,0,0,631.43,188.5Z"/><path class="cls-8" d="M561.19,274.5c-5.16.11-9.33-1.07-11.45-4.77-6.62-11.55,3.72-31.29,4.66-33.7.65-1.67,1.7-2.69,3.36-2s1.17,2.83.52,4.5c-3.06,7.9-4.46,22.28-1,27.55.58.88,1.57,1.9,4.09,2a3.3,3.3,0,0,1,3.14,3.35C564.56,274.48,561.29,274.5,561.19,274.5Z"/><path class="cls-14" d="M556.17,280.2s20.7.68,28.67,1.87c0,0,4.87,1.52,5.49,13.19l-33.63-1s-20.94,2.25-31.53,5.8c0,0-1.55-10.63,3.19-13.87S545.69,282.25,556.17,280.2Z"/><path class="cls-14" d="M517.41,327.31l-3.76,13.05s16.42,18.28,47.19,16.64,40.79-12.76,45.31-19.52l-4.62-14.64s-2,8.46-6.39,9.8c-22.82,6.93-42.57,10.62-69.19,3.67C526,336.31,518.69,330.88,517.41,327.31Z"/><path class="cls-7" d="M372,437.07c-.15-3.12-4.59-3.46-11.06-.94-7.08,2.77-11.07,10.2-10.77,15.14,0,0,.06,9.44-.73,19.51h.06c-5.73,6.25-11.16,11.1-13.45,10.58-5.33-1.21-14.13-15.25-14.13-15.25-3.06-13.67.3-28.48.3-28.48s7.19-13.72,9.76-13.72c4.06,0,13.58-.68,14.41.75,1.31,2.25,3.69,17.71,22.62,8.28,2-1-2.55-5-4.86-10.21-1.87-4.24-3.89-9.36-4.81-10.4-2-2.33-19.9-8.12-34.54-5.75-5.07.82-18.54,15.55-25.61,24,0,0-3.5,2.68-6.28,3.27-1.52.32-4.05-2.16-4.8-4.11l-15-77.8c-1-4.83-6.66-8.08-12.82-6.87s-10.3,6-9.32,10.77l13.76,80.63c.64,2.33-3,4.47-4.54,2.05l-25-69.22c-.93-4.57-6.4-7.35-12.23-6.2s-9.79,5.77-8.86,10.34l22.75,78c.88,3.42-2.84,4.54-3.7,2.35l0,0-32-48.29c-3.43-4.55-7.29-7.55-12.83-5.35s-7.06,5.57-4.75,9.92l29.15,58.23c12.36,64.6,37.45,84.34,37.45,84.34,52.59,35.61,74.32-11.44,74.32-11.44a132.15,132.15,0,0,0,31.79-34.92c3.39-5.52,10.44-18,17.85-30.23,1.88-3.1.05-6.8.05-6.8-1.09-7.37-2-14.72-2.43-20.73A70.76,70.76,0,0,1,372,437.07Z"/><path class="cls-15" d="M526.76,298.91a12.53,12.53,0,0,0,1.27,4.28c8.24,1.14,16.74,0,25-.58,12.08-.79,24.16.8,36-1.39a25.22,25.22,0,0,0,2.39-7.85c-11.19,5.41-28.86,1.63-41.79,3.69C542.28,298.23,534.38,300,526.76,298.91Z"/><path class="cls-15" d="M528,303.19c1.22,2.8,3.66,4.89,6.42,7.06A67,67,0,0,1,547,303.08C540.66,303.53,534.3,304,528,303.19Z"/><path class="cls-15" d="M559.09,315.39c13.18-.15,25.22-5.27,29.93-14.17-13.57,2.5-28.13.71-42.06,1.86a67,67,0,0,0-12.51,7.17C541.16,314.59,550.56,315.48,559.09,315.39Z"/><path class="cls-8" d="M552.41,320.3s12.56,1.62,18-.41C565.17,324.09,552.41,320.3,552.41,320.3Z"/><path class="cls-15" d="M559,315.38c7.33-.2,15.14-1.65,21.19-5.22-16.29-3.16-28.35-2.6-44.43.93C542.41,314.74,551.26,315.6,559,315.38Z"/></svg>