<svg xmlns="http://www.w3.org/2000/svg" xmlns:xlink="http://www.w3.org/1999/xlink" viewBox="0 0 1200 1820"><defs><style>.cls-1{fill:none;}.cls-2{isolation:isolate;}.cls-3{clip-path:url(#clip-path);}.cls-4{fill:url(#radial-gradient);}.cls-10,.cls-12,.cls-13,.cls-17,.cls-18,.cls-5,.cls-6,.cls-9{opacity:0.5;}.cls-10,.cls-11,.cls-12,.cls-13,.cls-14,.cls-15,.cls-16,.cls-17,.cls-18,.cls-19,.cls-20,.cls-21,.cls-5,.cls-6,.cls-7,.cls-9{mix-blend-mode:screen;}.cls-5{fill:url(#linear-gradient);}.cls-6{fill:url(#radial-gradient-2);}.cls-11,.cls-14,.cls-15,.cls-16,.cls-19,.cls-20,.cls-21,.cls-7{opacity:0.2;}.cls-7{fill:url(#radial-gradient-3);}.cls-8{fill:#fff;}.cls-9{fill:url(#linear-gradient-2);}.cls-10{fill:url(#radial-gradient-4);}.cls-11{fill:url(#radial-gradient-5);}.cls-12{fill:url(#linear-gradient-3);}.cls-13{fill:url(#radial-gradient-6);}.cls-14{fill:url(#radial-gradient-7);}.cls-15{fill:url(#radial-gradient-8);}.cls-16{fill:url(#radial-gradient-9);}.cls-17{fill:url(#linear-gradient-4);}.cls-18{fill:url(#radial-gradient-10);}.cls-19{fill:url(#radial-gradient-11);}.cls-20{fill:url(#radial-gradient-12);}.cls-21{fill:url(#radial-gradient-13);}.cls-22{mix-blend-mode:overlay;fill:url(#radial-gradient-14);}.cls-23{fill:#3fc9e6;}.cls-24{fill:#453878;}.cls-25{fill:#6154c7;}.cls-26{fill:#ff8f00;}.cls-27{fill:#c3c3d1;}.cls-28{fill:#abaaba;}.cls-29{fill:#8c4f45;}.cls-30{fill:#753c36;}.cls-31{fill:#443889;}.cls-32{fill:#f7c2d0;}.cls-33{fill:#30323d;}.cls-34{fill:#23242b;}.cls-35{fill:#fdf5ed;}.cls-36{fill:#9e005d;}.cls-37{fill:#da727e;}.cls-38{fill:#ff8d94;}.cls-39{fill:#f04e98;}</style><clipPath id="clip-path"><rect class="cls-1" x="-144.47" y="2439.71" width="1920" height="1080"/></clipPath><radialGradient id="radial-gradient" cx="815.53" cy="2666.46" r="960" gradientUnits="userSpaceOnUse"><stop offset="0.41" stop-color="#6154c7"/><stop offset="1" stop-color="#453878"/></radialGradient><linearGradient id="linear-gradient" x1="-16.26" y1="1656.63" x2="-16.26" y2="2705.91" gradientTransform="matrix(0.88, 0.48, -0.48, 0.88, 2410.77, 381.87)" gradientUnits="userSpaceOnUse"><stop offset="0" stop-color="#fff"/><stop offset="0.21" stop-color="#b6b6b6"/><stop offset="0.43" stop-color="#757575"/><stop offset="0.62" stop-color="#434343"/><stop offset="0.78" stop-color="#1e1e1e"/><stop offset="0.91" stop-color="#080808"/><stop offset="1"/></linearGradient><radialGradient id="radial-gradient-2" cx="-3161.6" cy="2329.12" r="727.12" gradientTransform="matrix(0.11, 0.06, -0.48, 0.88, 2728.82, 557.71)" xlink:href="#linear-gradient"/><radialGradient id="radial-gradient-3" cx="8477.95" cy="2455.06" r="727.25" gradientTransform="matrix(-0.09, -0.08, -0.69, 0.73, 3452.43, 1191.43)" xlink:href="#linear-gradient"/><linearGradient id="linear-gradient-2" x1="-1935.48" y1="2717.33" x2="-1935.48" y2="3766.62" gradientTransform="matrix(-0.88, 0.48, 0.48, 0.88, -2972.48, 381.87)" xlink:href="#linear-gradient"/><radialGradient id="radial-gradient-4" cx="-19142.67" cy="3390.02" r="727.11" gradientTransform="matrix(-0.11, 0.06, 0.48, 0.88, -3290.53, 557.71)" xlink:href="#linear-gradient"/><radialGradient id="radial-gradient-5" cx="21763.02" cy="3960.2" r="727.24" gradientTransform="matrix(0.09, -0.08, 0.69, 0.73, -4014.13, 1191.43)" xlink:href="#linear-gradient"/><linearGradient id="linear-gradient-3" x1="950.87" y1="3509.27" x2="950.87" y2="4067.17" gradientTransform="translate(1939.36 -1732.45) rotate(26.26)" xlink:href="#linear-gradient"/><radialGradient id="radial-gradient-6" cx="4891.81" cy="3865.86" r="386.54" gradientTransform="matrix(0.11, 0.05, -0.44, 0.9, 2264.84, -1571.06)" xlink:href="#linear-gradient"/><radialGradient id="radial-gradient-7" cx="2881.19" cy="3772.97" r="188.92" gradientTransform="matrix(0.1, 0.07, -0.55, 0.83, 2981.19, -1442.19)" xlink:href="#linear-gradient"/><radialGradient id="radial-gradient-8" cx="26671.77" cy="3408.93" r="189" gradientTransform="matrix(-0.11, -0.04, -0.33, 0.95, 5359.85, -268.06)" xlink:href="#linear-gradient"/><radialGradient id="radial-gradient-9" cx="-3686.17" cy="3667.77" r="386.56" gradientTransform="matrix(-0.09, -0.08, -0.65, 0.76, 3016.38, -972.8)" xlink:href="#linear-gradient"/><linearGradient id="linear-gradient-4" x1="1151.09" y1="3410.48" x2="1151.09" y2="3968.37" gradientTransform="matrix(-0.9, 0.44, 0.44, 0.9, -85.03, -1732.45)" xlink:href="#linear-gradient"/><radialGradient id="radial-gradient-10" cx="6558.66" cy="3766.98" r="386.54" gradientTransform="matrix(-0.11, 0.05, 0.44, 0.9, -410.51, -1571.06)" xlink:href="#linear-gradient"/><radialGradient id="radial-gradient-11" cx="4430.26" cy="3649.76" r="188.92" gradientTransform="matrix(-0.1, 0.07, 0.55, 0.83, -1126.86, -1442.19)" xlink:href="#linear-gradient"/><radialGradient id="radial-gradient-12" cx="24913.22" cy="3336.21" r="189.01" gradientTransform="matrix(0.11, -0.04, 0.33, 0.95, -3505.52, -268.06)" xlink:href="#linear-gradient"/><radialGradient id="radial-gradient-13" cx="-5095.71" cy="3522.23" r="386.56" gradientTransform="matrix(0.09, -0.08, 0.65, 0.76, -1162.05, -972.8)" xlink:href="#linear-gradient"/><radialGradient id="radial-gradient-14" cx="815.53" cy="3095.93" r="827.22" gradientTransform="translate(0 -1779) scale(1 1.44)" gradientUnits="userSpaceOnUse"><stop offset="0" stop-color="#fff"/><stop offset="0.09" stop-color="#eae8f0"/><stop offset="0.42" stop-color="#a49dbd"/><stop offset="0.69" stop-color="#716798"/><stop offset="0.89" stop-color="#514581"/><stop offset="1" stop-color="#453878"/></radialGradient></defs><g class="cls-2"><g id="Layer_1" data-name="Layer 1"><g class="cls-3"><rect class="cls-4" x="-144.47" y="1706.46" width="1920" height="1920"/><polygon class="cls-5" points="1661.4 1860.46 1595.23 1823.89 1529.07 1787.32 788.03 2567.67 1091.47 2735.38 1394.93 2903.08 1661.4 1860.46"/><path class="cls-6" d="M1346.37,2454.7c-194.24,351.45-385.92,617.45-428.13,594.12s81-327.14,275.28-678.6,385.91-617.45,428.12-594.12S1540.61,2103.25,1346.37,2454.7Z"/><path class="cls-7" d="M963.89,2218.48c-275.59,292.06-470.57,555.65-435.5,588.74s286.92-176.83,562.52-468.88,470.57-555.64,435.49-588.74S1239.48,1926.43,963.89,2218.48Z"/><path class="cls-8" d="M-30.34,1860.46c5.22,9.45,39.08.74,75.62-19.46s61.94-44.23,56.71-53.68-39.08-.74-75.62,19.46S-35.56,1851-30.34,1860.46Z"/><polygon class="cls-9" points="-30.34 1860.46 35.83 1823.89 101.99 1787.32 843.03 2567.67 539.58 2735.38 236.13 2903.08 -30.34 1860.46"/><path class="cls-10" d="M284.69,2454.7c194.24,351.45,385.92,617.45,428.12,594.12s-81-327.14-275.27-678.6S51.62,1752.77,9.42,1776.1,90.45,2103.25,284.69,2454.7Z"/><path class="cls-11" d="M667.17,2218.48c275.59,292.06,470.57,555.65,435.5,588.74s-286.93-176.83-562.52-468.88S69.58,1782.7,104.65,1749.6,391.58,1926.43,667.17,2218.48Z"/><polygon class="cls-12" points="1275.34 1853.24 1239.3 1835.45 1203.25 1817.66 828.92 2250.41 994.22 2332 1159.54 2413.59 1275.34 1853.24"/><path class="cls-13" d="M1122.68,2176.63C1028.19,2368.09,933,2514.1,910,2502.75s35-175.76,129.46-367.21,189.74-337.47,212.74-326.12S1217.18,1985.18,1122.68,2176.63Z"/><path class="cls-14" d="M1204.62,1906.52c-57.65,87-112.86,151.9-123.3,145s27.81-83.06,85.46-170,112.86-151.9,123.31-145S1262.27,1819.53,1204.62,1906.52Z"/><path class="cls-15" d="M1201.2,1904.83c-34,98.67-51.93,182-40.08,186.05s49-72.6,83-171.27,51.93-182,40.08-186S1235.18,1806.16,1201.2,1904.83Z"/><path class="cls-16" d="M926.32,2066.84c-139.16,161.91-236.22,306.72-216.77,323.44s148-101,287.2-262.92,236.22-306.72,216.78-323.44S1065.49,1904.92,926.32,2066.84Z"/><path class="cls-8" d="M355.72,1853.24c2.54,5.15,20.74,1.36,40.64-8.46s34-22,31.45-27.12-20.74-1.35-40.65,8.47S353.18,1848.09,355.72,1853.24Z"/><polygon class="cls-17" points="355.72 1853.24 391.76 1835.45 427.81 1817.66 802.14 2250.41 636.83 2332 471.52 2413.59 355.72 1853.24"/><path class="cls-18" d="M508.38,2176.63c94.49,191.46,189.73,337.47,212.73,326.12s-35-175.76-129.47-367.21-189.73-337.47-212.73-326.12S413.88,1985.18,508.38,2176.63Z"/><path class="cls-19" d="M426.44,1906.52c57.65,87,112.86,151.9,123.3,145s-27.82-83.06-85.46-170-112.86-151.9-123.31-145S368.79,1819.53,426.44,1906.52Z"/><path class="cls-20" d="M429.86,1904.83c34,98.67,51.93,182,40.08,186.05s-49-72.6-83-171.27-51.93-182-40.08-186S395.88,1806.16,429.86,1904.83Z"/><path class="cls-21" d="M704.73,2066.84C843.9,2228.75,941,2373.56,921.51,2390.28s-148-101-287.2-262.92-236.22-306.72-216.78-323.44S565.56,1904.92,704.73,2066.84Z"/><rect class="cls-22" x="-144.47" y="1706.46" width="1920" height="1920"/></g><path class="cls-23" d="M807.45,856.59c26.86,5.76,42.59,35,46.59,62.53s0,55.79,5.37,83c6.47,33,25.93,61.63,38.62,92.71,28.14,68.9,22,146.67,11.36,220.28S884,1463.56,896.27,1537,955.49,1683.9,1027,1701.66c-62.73-1.46-126.62-10.93-182.58-39.88s-103.33-79.61-117.5-141.52c-16.3-71.24,8.08-158.51-43.41-209.94-41.2-41.15-107.51-34-164.09-46-94.86-20.18-172-107.53-181.21-205.13C394,1030.33,433.75,973.35,490,945.5,585.88,898.08,719.62,917.81,807.45,856.59Z"/><path class="cls-24" d="M686.56,450.58s46.44-9.68,90.2-5.52,51.16,14.94,78.76,61.39S932.25,635,933.6,637s88-66.2,88-66.2l39.94,53-38.6,149s-33.2,52.5-82.57,49.36-106.8-42.63-133.73-66-35-40.38-35-40.38L764,807.34l43.08,48.47s-28.72,66-108.6,119.37-254,94.24-254,94.24l-33.21-50.71-4.49,56.1-72.7-20.65s-47.12-51.6-69.11-99.17S243.4,860.3,245.2,840.55a349.91,349.91,0,0,1,4.93-35S212,817.66,159,763.36s-70.9-95.58-70.45-147.19,9.87-82.12,9.87-82.12l59.69-12.57s3.59,20.64,21.54,53.4S235.77,635,235.77,635s68.21-67.77,128.8-110.4,170.08-61.48,170.08-61.48Z"/><path class="cls-25" d="M899.89,657.72c5.87-3,10.42-7.42,15.72-11.25,6-4.32,12.25-8.29,18.43-12.33,6-3.93,12.13-7.7,18-11.79q4.26-3,8.38-6.07c3-2.25,5.88-4.9,9.27-6.53.34-.16.84.18.59.57-3.58,5.51-10,9.59-15.17,13.55-6,4.63-12.14,9.21-18.41,13.52-6.09,4.19-12.25,8.3-18.39,12.42-5.45,3.67-11.06,8.35-17.34,10.44C899.53,660.74,898.47,658.45,899.89,657.72Z"/><path class="cls-25" d="M739.56,661.1c6,12.39,12.66,24.72,19.6,36.6A149,149,0,0,0,771,714.61c2.13,2.71,4.38,5.35,6.41,8.14,2.17,3,3.81,6.15,6.53,8.69.68.63-.29,1.61-1,1-5.23-4.45-9.22-10.49-13.57-15.76-4.48-5.45-9.1-10.78-13.16-16.56A151.66,151.66,0,0,1,745.89,682c-3.35-6.57-6.53-12.92-8.1-20.15C737.57,660.88,739.05,660,739.56,661.1Z"/><path class="cls-25" d="M248.62,806.93c1.95-10.43,5.61-20.46,8.11-30.76s4.72-20.49,8.1-30.44S272.65,726,277,716.37c8.68-19.38,17.73-39,29.22-56.92s21.9-36.53,33.42-54.47c6.13-9.56,11.68-19.31,18.86-28.15,3.68-4.54,7.12-9.27,10.85-13.78,2.72-3.28,5.35-7,9.24-9a.74.74,0,0,1,.76,1.26c-3.2,2.4-5.54,6-8,9.12-3.19,4.07-6.25,8.23-9.44,12.3a238.7,238.7,0,0,0-17.3,25.44c-5.25,8.79-10.5,17.56-15.45,26.52-5,9.15-10,18.27-15.66,27a269.31,269.31,0,0,0-15.05,25.82c-4.76,9.56-9.23,19.28-13.57,29q-6.36,14.28-12.13,28.81c-3.83,9.64-6.46,19.62-8.9,29.69-2.64,10.91-5.92,21.53-9.18,32.27-1.68,5.53-3,11.16-4.55,16.72a92.41,92.41,0,0,0-3.55,18c-.07.92-1.6,1.36-1.78.27C243.2,826.45,246.82,816.56,248.62,806.93Z"/><path class="cls-25" d="M202.88,605.85c5.54,3.35,9.54,8.56,14.42,12.76,5.85,5,12.41,8.59,19,12.54,6,3.63,11.52,8.12,17.87,11.25,5.41,2.66,11.79,4.59,15.82,9.32a1.12,1.12,0,0,1-1.32,1.77C263,650.81,257,649,251.44,646.23c-6.55-3.19-12.15-8.06-18.29-11.93a122.3,122.3,0,0,1-16.42-12.49c-5.22-4.64-9.32-10.44-14.61-14.94C201.56,606.4,202.25,605.47,202.88,605.85Z"/><polygon class="cls-26" points="1051.03 652.6 1079.63 653.81 1091.7 487.49 1053.01 485.86 1051.03 652.6"/><path class="cls-27" d="M1038.41,462.49c.89-21.14,17.24-37.61,36.52-36.8s34.18,18.61,33.29,39.74S1091,503,1071.7,502.23,1037.52,483.62,1038.41,462.49Z"/><rect class="cls-28" x="1069.91" y="428.6" width="6.73" height="72.4" transform="matrix(0.04, -1, 1, 0.04, 563.68, 1517.55)"/><path class="cls-29" d="M1083.06,625.39s18.6,1.77,21.52-5.63-3.59-20-3.59-20,21.09.22,20-10.1-9.87-19.29-9.87-19.29,15.93-15,12.34-22-14.14-11-14.14-11,9.87-9.87,5.39-15.93-16.61-17.05-29-18.85-16.15-2-20,7.41,8.08,24.45,8.08,24.45-6.73-1.57-8.53-1.34a5.37,5.37,0,0,0-2.91,1.34,11.58,11.58,0,0,0-7.36-7.4c-6.11-2.24-19.57-13-22.49-14.36s-11.89-4-16.38,13.46-10.54,34.56-2.47,57S1051,619.83,1051,619.83l.75-30.29-6.44-18.7s.45,12.57,4.49,15.94a31.72,31.72,0,0,0,8.3,4.93s-5.16,2.69-5.16,9.87,4.94,11.22,14.81,12.57,15.1,4.71,15.1,4.71Z"/><path class="cls-30" d="M1025.47,549.43c.29-.69,1.42-.22,1.21.49-1.2,4.11,4,9.09,6.83,11.48A49.06,49.06,0,0,0,1040,566c1.47.88,3.11,1.48,4.47,2.44,1.17-3.82,4.9-6.5,8.63-8.09a31.66,31.66,0,0,1,5.29-1.7,24.94,24.94,0,0,1-2-5.95,22,22,0,0,1-.8-8.54c.61-4.6,3-8.76,7.58-10.09.69-.2,1.22.86.53,1.19-3.81,1.83-5.16,7.06-5,10.94a26.06,26.06,0,0,0,1.71,7.63,24.08,24.08,0,0,1,1.45,4.2,63.84,63.84,0,0,1,11-.4c12.86.49,28.8,3.67,38.46,12.85a.8.8,0,0,1-.94,1.26c-5.55-3.09-10.82-6.14-17-8-5.65-1.71-11.59-1.88-17.46-2-5.59-.17-11.25-.23-16.73,1a26,26,0,0,0-8,3.15c-2.68,1.68-3.08,3.67-4.17,6.45a1.46,1.46,0,0,1-2.85-.34c0-.06,0-.12,0-.18-2.84-.12-5.55-2.29-7.77-3.9a35,35,0,0,1-6.48-5.92C1027,558.63,1023.58,554,1025.47,549.43Z"/><path class="cls-30" d="M1074.53,534.24c2.88-1.17,6.31-.39,9.31,0,3.25.37,6.5.7,9.77.82,5.28.21,10.23.23,15.11,2.49a.66.66,0,0,1-.49,1.21c-5.1-1.76-11.12-.67-16.42-.85-3.26-.11-6.5-.61-9.73-1-2.58-.29-5.32-.24-7.7-1.31C1073.74,535.3,1074,534.45,1074.53,534.24Z"/><path class="cls-30" d="M1058.41,590.36c4.09-1.27,9.17-.76,13.39-.41a62.32,62.32,0,0,1,13.4,2.55c2.74.85,11.66,2.33,10.94,6.53a.56.56,0,0,1-.92.26c-1.52-1.63-3.94-2.15-6-2.67-2.81-.7-5.61-1.42-8.46-1.93a67.55,67.55,0,0,0-11.35-1.1c-3.56,0-7.5.52-10.93-.52A1.42,1.42,0,0,1,1058.41,590.36Z"/><path class="cls-31" d="M384.31,857.16c2-1.35,59.24-59.91,137.32-120.5s177-117.8,177-117.8-7.4-10.59-32.53-24.37-43.53-23.65-43.53-23.65a509.23,509.23,0,0,1,63.72-9.25A571.38,571.38,0,0,1,751,560.07s3.14-48-.44-83.92-5.39-54.3-5.39-54.3S699.33,358.69,615,400.31c-86.5,42.68-102.77,16.16-142.26,47.57s-76.29,82.57-76.29,82.57L440,554l-53.4,19.41S371.3,621.55,370.85,692,384.31,857.16,384.31,857.16Z"/><path class="cls-32" d="M699.33,460.54c-.18-2.17-88.6,90.33-164.78,177.17s-146.2,211.37-146.2,211.37,10.1-88.86,37.7-180.41,73.41-228.6,73.41-228.6Z"/><path class="cls-25" d="M281.21,983.23c4.44,6,8.29,12.38,12.55,18.48,4.37,6.26,8.87,12.44,13.39,18.61,8.57,11.72,18.05,22.26,27.87,32.86a1.5,1.5,0,0,1,.89,0c23.73,6.8,47.67,13.29,71.14,21-.33-3.69.47-7.57.79-11.23q.62-7.2,1.09-14.41c.65-9.62,1-19.26,1.7-28.88a.44.44,0,0,1,.17-.33l-.34-.55c-.4-.65.53-1.45,1.06-.85a169,169,0,0,1,19.08,25.88c4.86,8.26,9,16.62,14.79,24.27,45.14-11.53,89.82-24.7,134.11-39.15,11-3.6,21.79-7.89,32.62-12a1.23,1.23,0,0,1,.68-.87c23.48-11.33,48.05-20.23,70.68-33.34a280.05,280.05,0,0,0,31.45-21.58c10-7.76,19.49-16.25,29.68-23.71,4.68-5.81,10-11.2,15.06-16.68,5.65-6.2,11-12.61,16.45-19a219.7,219.7,0,0,0,15.31-20.24c4.77-7.1,8.87-14.61,13.48-21.8a.45.45,0,0,1,.78.43c-6.3,15.36-17.2,29.16-27.08,42.35-5,6.71-10.61,13-16.1,19.34-5.67,6.55-11.64,13.39-18.28,19a.88.88,0,0,1-1.22,0c-7.85,8-16.88,15-25.7,21.8a324.39,324.39,0,0,1-32.49,22.31A379,379,0,0,1,650,1002.72c-11.92,5.48-23.87,11.09-36,16a1.21,1.21,0,0,1-1.15-.11c-8.6,4.66-17.9,8-27.09,11.27-11,3.93-22.11,7.55-33.24,11.09q-34,10.83-68.44,20.38-18.79,5.22-37.72,10a1.73,1.73,0,0,1-2,.45,1.79,1.79,0,0,1-1.76-1.79c-6-6.91-9.89-15.65-14.22-23.6-4.95-9.12-11.38-17.25-16.91-26a226.51,226.51,0,0,1,0,28.66c-.25,4.81-.62,9.61-1.08,14.41-.38,4-.36,8.32-1.92,12a1,1,0,0,1-1.36,1c-23.5-5.92-46.73-13.08-70.05-19.72a1.26,1.26,0,0,1-2,.31c-11.14-10.05-20.88-22.3-29.93-34.23-4.62-6.08-8.89-12.4-13-18.85s-8.58-13.21-12-20.2A.6.6,0,0,1,281.21,983.23Z"/><path class="cls-25" d="M369.82,716.55c-.05-12.78.51-25.55.47-38.33-.66-3.51-.08-7.63,0-11q.15-7.11.65-14.21c.62-9,1.69-17.87,2.91-26.76A250.12,250.12,0,0,1,379.3,599c1.12-4.44,2.4-8.85,3.53-13.29.93-3.67,1.4-7.41,2.11-11.1a1.07,1.07,0,0,1,.11-1.37l.2-.17c0-.15.07-.3.1-.45a1.14,1.14,0,0,1,1.51-.69c3.11-1.91,7.07-3,10.31-4.36q7.08-2.89,14.28-5.55c4.77-1.77,9.6-3.5,14.5-4.9,3.48-1,7.36-2.69,11.1-3.29-2.82-1.2-5.53-2.78-8.24-4.15q-6.1-3.07-12.18-6.22c-3.52-1.82-7.08-3.56-10.46-5.63s-6.8-4.42-10.7-5.71l-.11-.05a1.24,1.24,0,0,1-1.07-1.74c2.68-6.85,8.46-12.8,13.54-18,2.83-2.87,5.72-5.68,8.47-8.63s5-6.33,7.8-9.11a.52.52,0,0,1,.82.61c-1.4,3.2-4,5.92-6.17,8.59-2.45,3-5,5.83-7.53,8.76s-4.75,5.56-7,8.41-4.13,6-6.16,9a54.57,54.57,0,0,1,8.08,4.55c3.43,2.21,7,4.12,10.61,6q6,3.21,12,6.47c3.81,2.08,8,3.92,11.42,6.58.46.36.08,1.1-.44,1.11-3.77,2.39-8.89,3.26-13.05,4.83-4.58,1.74-9.21,3.33-13.8,5s-9.16,3.47-13.69,5.31c-3.65,1.48-7.64,3.85-11.56,4.82.48,7.51-2.63,15.46-4.46,22.54-2.33,9-4.09,18.07-5.79,27.2a251.92,251.92,0,0,0-3.52,28.46q-.5,7.09-.68,14.21c-.09,3.49.49,7.67-.16,11.24,1.23,10.85.36,22,.3,32.86q-.09,17.7.63,35.38c1,23.4,3.81,46.53,5.9,69.83,1.11,12.45,3.73,24.91,6.23,37.2,9.65-9.24,19.22-18.57,29.11-27.56,10.47-9.51,20.41-19.66,31-29.14,21.29-19.1,43.48-37.1,66-54.74q9.52-7.47,19.09-14.88c5.65-4.39,11.31-9.34,17.42-13.19,36.92-27.19,76.12-51.26,114.77-75.86q8.49-5.4,17-10.78c5.43-3.42,10.79-7.09,16.64-9.78-5.84-2.72-10.83-8-15.81-11.87-6.09-4.73-13-7.9-19.64-11.71s-13.69-7.29-20.57-10.83q-5.49-2.84-11-5.53a81.79,81.79,0,0,1-8.17-4l-.9.19c-2.12.45-3.1-2.71-1-3.26,21.53-5.54,43.77-8.32,65.8-11.07,21-2.62,43.63-6,64.45-.7-.22-9.15.27-18.35.39-27.5.13-9.58.07-19.16-.12-28.74s-.59-19.12-1.25-28.67-1.85-19-2.47-28.49a.7.7,0,0,1,1.36-.21c4.69,18.24,5.19,37.94,5.65,56.66.23,9.58.19,19.16.2,28.74,0,9.73.33,19.54-.16,29.26a1.83,1.83,0,0,1-3.29,1,223.16,223.16,0,0,0-31.67-1c-10.83.51-21.62,1.83-32.37,3.17-20.38,2.55-40.61,5.6-60.7,9.75,1.48.61,2.94,1.31,4.32,1.94,3.75,1.71,7.43,3.56,11.11,5.42,7.3,3.69,14.52,7.59,22,11a101.79,101.79,0,0,1,19,10.77c3,2.24,5.85,4.63,8.73,7,3,2.48,6.37,5,8.5,8.32a.64.64,0,0,1,0,.6,1,1,0,0,1-.25,1c-8.85,7.82-19.84,13.65-29.78,20q-15.27,9.74-30.55,19.46c-20.11,12.8-40.09,25.69-59.79,39.09-11.48,7.81-22.91,15.73-34.68,23.09l-.06,0c-2.65,2.12-5.39,4.15-8,6.21l-17,13.31c-11.61,9.07-23.18,18.18-34.59,27.5q-16.61,13.56-32.61,27.81c-5.14,4.57-10.22,9.2-15.31,13.83-5.4,4.92-11.07,9.62-16.39,14.59-5.63,5.26-10.92,11-16.44,16.37q-8.67,8.48-17.24,17c-.25,1.29-2.32,1.72-2.61.21,0-.15-.05-.3-.08-.44a1.41,1.41,0,0,1-.18-1C375.2,810.07,370,763.46,369.82,716.55Z"/><path class="cls-29" d="M206.63,475.53c-5.22-.53-11.49,3.44-14.08,7.06,0,0-20.7,26.67-24.66,25.63-3.66-1-3.72-12.69-3.72-12.69.43-9.3-3.09-29.21-3.09-29.21l-3.16-57.56c-.32-3.88-4.17-6.21-8.59-5.22s-8.12,6-7.8,9.84l1.62,52.39a2.52,2.52,0,0,1-2.11,2.1c-1.09.26-2.54.52-2.91-1l-4.59-62.48c-.31-3.88-4.07-6.47-8.49-5.47s-7.72,4.8-7.4,8.68l3.47,64.76c.27,1.86-2.48,3.59-3.35,1.66l-7.16-56.64c-.31-3.67-3.94-5.89-8.13-4.95s-7.34,4.67-7,8.34l4.89,63.68c.36,2.74-2.35,3.66-2.78,1.89h0l-8.75-43.12c-.3-3.67-3-5.69-7.17-4.75s-5.86,4.81-5.56,8.48L82,498c-1.3,55.83,17.62,72.69,17.62,72.69,34.27,28.46,55.45-14.47,55.45-14.47a117.75,117.75,0,0,0,25.07-28.17c4.42-7,16.56-27.85,25.16-40a93.13,93.13,0,0,1,6.52-8C213.5,477.81,211.39,476,206.63,475.53Z"/><path class="cls-29" d="M592.2,262.33s-61.5,140.51-67.75,154.38,72.79,17.08,20.07,33.29c0,0,19.53,7.54,76.49,18,91.17,16.76,41.27,7.87,59.31-10.47,0,0,3.59,5.37,5.72-19.69,2.55-30,26.4-155,26.4-155Z"/><path class="cls-30" d="M592.2,262.33l120.24,20.48s-10.78,56.51-18.62,102.67a177.21,177.21,0,0,1-30.73,19.29c-25,12.1-48.06,9.42-68.39,6-24.74-4.21-41.1-17.45-51.21-37.23C563.66,327.53,592.2,262.33,592.2,262.33Z"/><path class="cls-29" d="M768,244.92C753.24,323.06,698.66,368,663.09,385.16c-25,12.09-48.06,9.41-68.39,5.95-65-11.06-72.48-84.15-59.31-175.55,13.14-91.19,53.78-135.38,134.05-121.72C758.87,109.07,785,154.82,768,244.92Z"/><path class="cls-30" d="M575.07,305.3c-5.17-1.05-9.05-3.15-10.33-7.32-4-13,10.73-30.31,12.2-32.5,1-1.51,2.29-2.29,3.8-1.28s.53,3.09-.48,4.61C575.43,276,570.82,290,573.1,296c.38,1,1.14,2.24,3.63,2.89a3.35,3.35,0,0,1,2.37,4C578.43,306,575.16,305.32,575.07,305.3Z"/><path class="cls-33" d="M533,213.08a2.73,2.73,0,0,1-1.85-1.29,4.35,4.35,0,0,1,.66-5.25c5.79-5.6,19.68-17.11,34.13-.73a4.38,4.38,0,0,1,.47,5.19c-1.06,1.69-3,2.1-4.32.93-13.55-12.06-26.52.19-26.64.31A2.84,2.84,0,0,1,533,213.08Z"/><path class="cls-33" d="M667.28,236a3.74,3.74,0,0,0,3.79-5.69c-4.68-7.39-16.59-23.29-39.44-13.26a3.9,3.9,0,0,0-2.46,4.69,3.74,3.74,0,0,0,4.69,2.46c20.21-6.31,30.77,9.95,30.88,10.11A3.71,3.71,0,0,0,667.28,236Z"/><path class="cls-30" d="M714,251.2s7.82-17.64,27-11.7c18.57,5.73,9.55,63.95-8.64,70.94S706.52,288,706.52,288Z"/><path class="cls-29" d="M707.81,254.51s7.47-13.77,26.76-8.72c18.64,4.88,10.74,50.65-7.28,55.82s-26.21-18.17-26.21-18.17Z"/><path class="cls-34" d="M622.33,259.85c.31-1.56,1.47-3.24,2.14-4.76a35.34,35.34,0,0,1,2.51-4.84,11.67,11.67,0,0,1,10.48-5.56c5.9.17,7.49,4.06,8.33,7.57.74,3.09,4.07,9.68-.58,11.87-.57.27-1.49,0-1.64-.45-.49-1.61-.08-3.32-.5-5s-1.13-3.5-1.64-5.25c-.68-2.33-1.38-6.55-6.23-5.08-6.58,2-4.57,9.81-8.24,13.32C625.12,263.48,622,261.53,622.33,259.85Z"/><path class="cls-34" d="M539,244.72c1-3.33,2.2-6.88,4.76-9.79,2.07-2.36,5.94-4.92,10.11-3.56,3.58,1.17,4.24,4.57,4.32,7.06a10.4,10.4,0,0,1-3,8.32c-.51.49-1.85.27-1.54-.44.77-1.73.53-4.3.54-6.12,0-1.41.18-5-1.93-5.84-4.73-1.82-7.71,9.46-8.19,11.3a2.3,2.3,0,0,1-1.78,1.32,3.39,3.39,0,0,1-2-.16C539.23,246.31,538.71,245.59,539,244.72Z"/><path class="cls-35" d="M553.78,318a29.45,29.45,0,0,0-.33,6c6.62,3.91,26.27,13.79,46.84,7.78a47.38,47.38,0,0,0,4.2-10.29C581.63,333.72,553.78,318,553.78,318Z"/><path class="cls-36" d="M553.45,324a26.71,26.71,0,0,0,2.68,10.93,25.74,25.74,0,0,1,11-4.68A73.79,73.79,0,0,1,553.45,324Z"/><path class="cls-37" d="M573.14,346.59c14.33,2.67,22.72-6.78,27.15-14.84-12.22,3.57-24.12,1.53-33.16-1.53a25.74,25.74,0,0,0-11,4.68C558.74,340.05,563.73,344.83,573.14,346.59Z"/><path class="cls-30" d="M566.79,351.25s7.68,4.89,13.75,2.48C580.54,353.73,573.08,360.75,566.79,351.25Z"/><path class="cls-33" d="M577.22,307.08s-14.69-1.54-21.79-1.52c0,0-4.39.57-5.67,8.7l26.11,2.66s24.87,3.91,34,7.47c0,0,2-7.31-1.93-10.06S586.32,309.58,577.22,307.08Z"/><path class="cls-33" d="M606.4,368l1.68,9.42s-12.84,11.6-34.28,8.22-27.63-11.91-30.31-17l4.3-9.92s.79,6.07,3.77,7.33c15.47,6.52,29,10.54,48.19,7.62C599.75,373.64,605.24,370.36,606.4,368Z"/><path class="cls-38" d="M585.25,461l32.14,49,77.16-42.49,4.78-7s-8.37-4.68-12.43-6.88C686.9,453.66,643,470.63,585.25,461Z"/><path class="cls-38" d="M584.05,460.81a214.36,214.36,0,0,1-80.54-31.64l-4.05,10.9,32.4,54.4Z"/><path class="cls-39" d="M372,880.31S377.7,830.45,392.14,767c25.39-46.82,52.84-91.53,81.76-135.15,10.68-21.43,22.54-42.22,37-61.26a790.35,790.35,0,0,1,47.46-63.88L543,474.9l44.84-25.59L617.65,487,590,511.16C531.86,548.37,463.11,728.84,459.36,744,409.46,813.73,372,880.31,372,880.31Z"/><polygon class="cls-32" points="693.04 411.84 588.25 448.03 525.34 395.08 496.13 427.83 501.42 434.76 536.56 480.79 587.39 452.99 619.02 496.12 700.68 459.94 693.04 411.84"/></g></g></svg>