<svg xmlns="http://www.w3.org/2000/svg" xmlns:xlink="http://www.w3.org/1999/xlink" viewBox="0 0 1200 1820"><defs><style>.cls-1{fill:none;}.cls-2{isolation:isolate;}.cls-3{clip-path:url(#clip-path);}.cls-4{fill:url(#radial-gradient);}.cls-12,.cls-13,.cls-17,.cls-18,.cls-5,.cls-6,.cls-8,.cls-9{opacity:0.5;}.cls-10,.cls-12,.cls-13,.cls-14,.cls-15,.cls-16,.cls-17,.cls-18,.cls-19,.cls-20,.cls-21,.cls-5,.cls-6,.cls-7,.cls-8,.cls-9{mix-blend-mode:screen;}.cls-5{fill:url(#linear-gradient);}.cls-6{fill:url(#radial-gradient-2);}.cls-10,.cls-14,.cls-15,.cls-16,.cls-19,.cls-20,.cls-21,.cls-7{opacity:0.2;}.cls-7{fill:url(#radial-gradient-3);}.cls-8{fill:url(#linear-gradient-2);}.cls-9{fill:url(#radial-gradient-4);}.cls-10{fill:url(#radial-gradient-5);}.cls-11{fill:#fff;}.cls-12{fill:url(#linear-gradient-3);}.cls-13{fill:url(#radial-gradient-6);}.cls-14{fill:url(#radial-gradient-7);}.cls-15{fill:url(#radial-gradient-8);}.cls-16{fill:url(#radial-gradient-9);}.cls-17{fill:url(#linear-gradient-4);}.cls-18{fill:url(#radial-gradient-10);}.cls-19{fill:url(#radial-gradient-11);}.cls-20{fill:url(#radial-gradient-12);}.cls-21{fill:url(#radial-gradient-13);}.cls-22{mix-blend-mode:overlay;fill:url(#radial-gradient-14);}.cls-23{fill:#3fc9e6;}.cls-24{fill:#ffb762;}.cls-25{fill:#c3c3d1;}.cls-26{fill:#abaaba;}.cls-27{fill:#453878;}.cls-28{fill:#6154c7;}.cls-29{fill:#8c4f45;}.cls-30{fill:#753c36;}.cls-31{fill:#443889;}.cls-32{fill:#f7c2d0;}.cls-33{fill:#30323d;}.cls-34{fill:#23242b;}.cls-35{fill:#fdf5ed;}.cls-36{fill:#9e005d;}.cls-37{fill:#da727e;}.cls-38{fill:#ff8d94;}.cls-39{fill:#f04e98;}</style><clipPath id="clip-path"><rect class="cls-1" x="-341.94" y="2439.71" width="1920" height="1080"/></clipPath><radialGradient id="radial-gradient" cx="618.07" cy="2666.46" r="960" gradientUnits="userSpaceOnUse"><stop offset="0.41" stop-color="#6154c7"/><stop offset="1" stop-color="#453878"/></radialGradient><linearGradient id="linear-gradient" x1="-700.24" y1="-229.91" x2="-700.24" y2="819.37" gradientTransform="matrix(0.88, 0.48, -0.48, 0.88, 1899.41, 2363.82)" gradientUnits="userSpaceOnUse"><stop offset="0" stop-color="#fff"/><stop offset="0.21" stop-color="#b6b6b6"/><stop offset="0.43" stop-color="#757575"/><stop offset="0.62" stop-color="#434343"/><stop offset="0.78" stop-color="#1e1e1e"/><stop offset="0.91" stop-color="#080808"/><stop offset="1"/></linearGradient><radialGradient id="radial-gradient-2" cx="21164.45" cy="442.23" r="727.12" gradientTransform="matrix(0.11, 0.06, -0.48, 0.88, -938, 795.77)" xlink:href="#linear-gradient"/><radialGradient id="radial-gradient-3" cx="-19248.02" cy="-221.95" r="727.25" gradientTransform="matrix(-0.09, -0.08, -0.69, 0.73, -1002.75, 853.8)" xlink:href="#linear-gradient"/><linearGradient id="linear-gradient-2" x1="-9446.43" y1="4603.87" x2="-9446.43" y2="5653.16" gradientTransform="matrix(-0.88, 0.48, 0.48, 0.88, -10656.05, 2363.82)" xlink:href="#linear-gradient"/><radialGradient id="radial-gradient-4" cx="-51663.64" cy="5276.91" r="727.11" gradientTransform="matrix(-0.11, 0.06, 0.48, 0.88, -7818.64, 795.77)" xlink:href="#linear-gradient"/><radialGradient id="radial-gradient-5" cx="41294.06" cy="6637.21" r="727.24" gradientTransform="matrix(0.09, -0.08, 0.69, 0.73, -7753.89, 853.8)" xlink:href="#linear-gradient"/><linearGradient id="linear-gradient-3" x1="350.73" y1="1783.62" x2="350.73" y2="2341.51" gradientTransform="translate(1516.5 80.68) rotate(26.26)" xlink:href="#linear-gradient"/><radialGradient id="radial-gradient-6" cx="29909.68" cy="2138.68" r="386.54" gradientTransform="matrix(0.11, 0.05, -0.44, 0.9, -1391.32, -1353.07)" xlink:href="#linear-gradient"/><radialGradient id="radial-gradient-7" cx="25841.71" cy="1620.92" r="188.92" gradientTransform="matrix(0.1, 0.07, -0.55, 0.83, -705.71, -1170.53)" xlink:href="#linear-gradient"/><radialGradient id="radial-gradient-8" cx="-8142.87" cy="2138.66" r="189" gradientTransform="matrix(-0.11, -0.04, -0.33, 0.95, 797.32, -428.27)" xlink:href="#linear-gradient"/><radialGradient id="radial-gradient-9" cx="-32404.36" cy="1125.5" r="386.56" gradientTransform="matrix(-0.09, -0.08, -0.65, 0.76, -1454.36, -1293.63)" xlink:href="#linear-gradient"/><linearGradient id="linear-gradient-4" x1="-6443.7" y1="5136.13" x2="-6443.7" y2="5694.03" gradientTransform="matrix(-0.9, 0.44, 0.44, 0.9, -7857.1, 80.68)" xlink:href="#linear-gradient"/><radialGradient id="radial-gradient-10" cx="-26654.14" cy="5494.16" r="386.54" gradientTransform="matrix(-0.11, 0.05, 0.44, 0.9, -4949.27, -1353.07)" xlink:href="#linear-gradient"/><radialGradient id="radial-gradient-11" cx="-26725.19" cy="5801.81" r="188.92" gradientTransform="matrix(-0.1, 0.07, 0.55, 0.83, -5634.89, -1170.53)" xlink:href="#linear-gradient"/><radialGradient id="radial-gradient-12" cx="51532.93" cy="4606.48" r="189.01" gradientTransform="matrix(0.11, -0.04, 0.33, 0.95, -7137.92, -428.27)" xlink:href="#linear-gradient"/><radialGradient id="radial-gradient-13" cx="15427.55" cy="6064.5" r="386.56" gradientTransform="matrix(0.09, -0.08, 0.65, 0.76, -4886.23, -1293.63)" xlink:href="#linear-gradient"/><radialGradient id="radial-gradient-14" cx="618.06" cy="3095.93" r="827.22" gradientTransform="translate(0 -1779) scale(1 1.44)" gradientUnits="userSpaceOnUse"><stop offset="0" stop-color="#fff"/><stop offset="0.09" stop-color="#eae8f0"/><stop offset="0.42" stop-color="#a49dbd"/><stop offset="0.69" stop-color="#716798"/><stop offset="0.89" stop-color="#514581"/><stop offset="1" stop-color="#453878"/></radialGradient></defs><g class="cls-2"><g id="Layer_1" data-name="Layer 1"><g class="cls-3"><rect class="cls-4" x="-341.93" y="1706.46" width="1920" height="1920"/><polygon class="cls-5" points="1463.93 1860.46 1397.77 1823.89 1331.6 1787.32 590.56 2567.67 894.01 2735.38 1197.46 2903.08 1463.93 1860.46"/><path class="cls-6" d="M1148.91,2454.7C954.67,2806.15,763,3072.15,720.78,3048.82s81-327.14,275.27-678.6S1382,1752.77,1424.18,1776.1,1343.14,2103.25,1148.91,2454.7Z"/><path class="cls-7" d="M766.42,2218.48c-275.59,292.06-470.57,555.65-435.49,588.74s286.92-176.83,562.51-468.88S1364,1782.7,1328.94,1749.6,1042,1926.43,766.42,2218.48Z"/><polygon class="cls-8" points="-227.8 1860.46 -161.64 1823.89 -95.47 1787.32 645.57 2567.67 342.12 2735.38 38.67 2903.08 -227.8 1860.46"/><path class="cls-9" d="M87.23,2454.7c194.23,351.45,385.91,617.45,428.12,594.12s-81-327.14-275.27-678.6S-145.84,1752.77-188,1776.1-107,2103.25,87.23,2454.7Z"/><path class="cls-10" d="M469.7,2218.48c275.6,292.06,470.58,555.65,435.5,588.74s-286.92-176.83-562.51-468.88S-127.89,1782.7-92.81,1749.6,194.11,1926.43,469.7,2218.48Z"/><path class="cls-11" d="M1077.88,1853.24c-2.54,5.15-20.74,1.36-40.65-8.46s-34-22-31.44-27.12,20.74-1.35,40.64,8.47S1080.41,1848.09,1077.88,1853.24Z"/><polygon class="cls-12" points="1077.88 1853.24 1041.83 1835.45 1005.79 1817.66 631.46 2250.41 796.76 2332 962.07 2413.59 1077.88 1853.24"/><path class="cls-13" d="M925.22,2176.63c-94.5,191.46-189.74,337.47-212.73,326.12S747.46,2327,842,2135.54s189.74-337.47,212.73-326.12S1019.71,1985.18,925.22,2176.63Z"/><path class="cls-14" d="M1007.16,1906.52c-57.66,87-112.86,151.9-123.31,145s27.82-83.06,85.47-170,112.86-151.9,123.3-145S1064.81,1819.53,1007.16,1906.52Z"/><path class="cls-15" d="M1003.73,1904.83c-34,98.67-51.92,182-40.07,186.05s49-72.6,83-171.27,51.92-182,40.07-186S1037.72,1806.16,1003.73,1904.83Z"/><path class="cls-16" d="M728.86,2066.84c-139.17,161.91-236.22,306.72-216.78,323.44s148-101,287.2-262.92,236.23-306.72,216.78-323.44S868,1904.92,728.86,2066.84Z"/><path class="cls-11" d="M158.25,1853.24c2.54,5.15,20.74,1.36,40.65-8.46s34-22,31.44-27.12-20.74-1.35-40.64,8.47S155.71,1848.09,158.25,1853.24Z"/><polygon class="cls-17" points="158.25 1853.24 194.3 1835.45 230.34 1817.66 604.68 2250.41 439.37 2332 274.06 2413.59 158.25 1853.24"/><path class="cls-18" d="M310.91,2176.63c94.5,191.46,189.74,337.47,212.73,326.12s-35-175.76-129.46-367.21-189.74-337.47-212.73-326.12S216.42,1985.18,310.91,2176.63Z"/><path class="cls-19" d="M229,1906.52c57.66,87,112.86,151.9,123.31,145s-27.82-83.06-85.47-170-112.85-151.9-123.3-145S171.32,1819.53,229,1906.52Z"/><path class="cls-20" d="M232.4,1904.83c34,98.67,51.92,182,40.07,186.05s-49-72.6-83-171.27-51.92-182-40.07-186S198.41,1806.16,232.4,1904.83Z"/><path class="cls-21" d="M507.27,2066.84c139.17,161.91,236.22,306.72,216.78,323.44s-148-101-287.2-262.92-236.23-306.72-216.78-323.44S368.1,1904.92,507.27,2066.84Z"/><rect class="cls-22" x="-341.94" y="1706.46" width="1920" height="1920"/></g><path class="cls-23" d="M386.69,903.14c-28.66,10.21-40.53,41.72-39.76,69.48s10.53,55,9.77,82.77c-.92,33.58-17.06,65.12-25.23,97.9-18.12,72.65,3.37,148.28,29.12,219s56.27,142,56.53,216.47-37.79,154.77-113.63,184.33c69.2-12,138.16-32.12,194.67-70.08s99.37-95.87,103.35-159.29c4.57-73-39-154.88,8.33-214.25,37.84-47.5,112.64-51.63,173-73,101.23-35.87,170.15-135,161.86-232.73-67.27-19-122.06-68.47-189.67-86.44C639.94,906.71,495.55,948.69,386.69,903.14Z"/><polygon class="cls-24" points="1046.92 476.33 1024.19 496.43 903.14 367.61 933.89 340.42 1046.92 476.33"/><path class="cls-25" d="M930.3,311.43c-14.86-16.8-39.32-19.43-54.64-5.88s-15.7,38.14-.85,54.94,39.32,19.44,54.64,5.89S945.15,328.23,930.3,311.43Z"/><rect class="cls-26" x="864.77" y="333.06" width="76.74" height="7.14" transform="translate(3.57 682.69) rotate(-41.48)"/><path class="cls-27" d="M405.77,779.31s6.31,38.58,0,70.84-19.94,52.45-19.94,52.45,15,95.53,153.89,153,179.55,36.57,179.55,36.57L767,1024.37,781,1088.6s79.2-4.9,132.5-35.06,79.25-147.28,78.55-211.11-21.74-104.5-21.74-104.5,72.23,28.06,121.33,4.21,69.43-94.68,51.9-161.31-72.94-138.16-72.94-138.16l-79.25,37.17s-2.11,9.82-5.61,33.66-7,33-7,33S920.55,534.54,863,477.74,779.58,409,725.58,386.56,574.09,348,553.75,348s-87.67,26.65-123.44,50.49-76.44,51.2-79.95,70.14-7.57,63.12-30.09,117.12-60.38,89.77-60.38,89.77L215,653.77l-87.67,9.82s2.81,24.16,0,58.37,9.82,107.85,60.32,130.29,116.42,10.52,155.7-13.32S405.77,779.31,405.77,779.31Z"/><path class="cls-28" d="M336.91,713.21c-3.53-5-9.85-8-15-11-6.28-3.63-12.4-7.56-18.78-11a170.77,170.77,0,0,0-18.21-8.06c-5.7-2.28-11.44-4.58-17.59-4.61-1.13-.59-2.26-1.17-3.4-1.74-9.12-4.53-18-9.51-27.75-12.64-.51-.16-.89.64-.39.87a272.31,272.31,0,0,1,26.33,14.73c8.21,5,16.47,10,24.27,15.68s14.85,12.34,21.84,19.13c3.61,3.51,7,7,9.57,11.41,2.09,3.61,3.86,7.26,7.06,10a1.33,1.33,0,0,0,1.91-1.84c-2.8-3.65-4.39-8-6.69-12a54,54,0,0,0-8.71-10.66,185.07,185.07,0,0,0-22.22-19.46,171.28,171.28,0,0,0-15.37-10c3.33,1,6.6,2.29,9.78,3.6A178.83,178.83,0,0,1,302.14,694c5.67,3.12,11.11,6.63,16.71,9.87s11,7.31,16.58,10.74C336.28,715.17,337.56,714.12,336.91,713.21Z"/><path class="cls-28" d="M442.71,712.52c-2.72,9.3-8.86,17.35-13.58,25.71s-10.08,16.61-15.54,24.7c-5.24,7.79-10.35,15.65-15.78,23.31C392,794.43,386.16,803,379.55,810.6a.38.38,0,0,0,.53.55c14.74-13.26,26.13-29.65,37-46.08a264.59,264.59,0,0,0,15.22-25.65c4.41-8.59,9-17.18,11.54-26.56A.6.6,0,0,0,442.71,712.52Z"/><path class="cls-28" d="M978.8,754.92c-7.12-20.84-16.61-40.47-26.5-60.1S934.2,654.5,922.07,636c-5.93-9-11.39-18.25-16.68-27.67-5.53-9.85-11.35-19.51-16.51-29.56-10.13-19.73-21.62-38.67-33.35-57.48-6.11-9.8-12.43-19.78-20-28.56-6.62-7.7-15.65-14.2-20-23.58-.42-.91-1.72-.14-1.34.75,3.48,8.18,9.5,14,15.53,20.38,7.23,7.6,13.12,16.45,18.73,25.29,5.91,9.3,11.27,19,16.84,28.48s11.11,19.18,16.05,29.12,10,19.56,15.44,29.19,10.39,19.47,16.29,28.78c5.59,8.83,11.39,17.4,16,26.83,5,10.21,9.73,20.51,14.72,30.71,5.52,11.29,11.78,22.18,17.21,33.51,5.34,11.14,9.84,22.66,15.53,33.62C977.14,757.07,979.26,756.28,978.8,754.92Z"/><path class="cls-28" d="M990.5,484.79c-3.51,8.3-4.89,17.34-6.64,26.13-1.79,9-4.1,17.84-6.64,26.68a197.63,197.63,0,0,1-8.85,25.17c-3.61,8.14-9.07,15.41-12.21,23.75-.59,1.58,1.63,2.26,2.51,1.11a111.19,111.19,0,0,0,13.7-22.71c3.62-8.26,6-16.94,8.23-25.67,4.52-17.82,7.88-36,11.21-54.07A.68.68,0,0,0,990.5,484.79Z"/><path class="cls-29" d="M957.87,404.09s-19.08-7.71-15.58-20.68,21.25-50.85,35.52-46.64,43,15.78,67.93,46.64,33.66,69.78,30.51,78.9-24.55,41-51.9,42.08-78.55-16.18-92.23-35.62-12.43-43.21,3.78-48.33,20.52-2,20.52-2S953.11,413.91,957.87,404.09Z"/><path class="cls-30" d="M1038.35,458.36c-3,5.55-8,10.16-12.37,14.66-2.13,2.18-4.78,3.68-7.1,5.63-1.61,1.36-4.13,3-5,4.84a1.09,1.09,0,0,0,.61,1.58c2.27.68,3.86-1.1,5.42-2.58,2.52-2.39,5.51-4.25,7.92-6.75a66.31,66.31,0,0,0,12-16.5C1040.27,458.27,1038.89,457.38,1038.35,458.36Z"/><path class="cls-30" d="M1037.64,402.51c-3.12-3-6-5.48-10-7.26a39.41,39.41,0,0,0-11.48-3.11c-8.26-1-14.19,1.56-19.54,7.92a108.15,108.15,0,0,0-13.57,20.24A33.65,33.65,0,0,0,979.18,434a47.47,47.47,0,0,0-10.64-9.87c-4-2.68-9.16-6.6-14.08-7.18-.77-.09-1,1-.4,1.38,10.5,6.87,32.33,18.24,25.62,34.21-4.57,10.87-26.9,13.88-31.07,1.15-.32-1-1.93-.93-1.91.22.14,8.14,7.51,11.25,14.72,11.8,7.88.61,16.68-1.94,20.93-9.08a16,16,0,0,0,1.81-4.48,23.46,23.46,0,0,0,11,3.41,47.45,47.45,0,0,0-4.27,12.79c-1.36,7.76.37,14.14,6.74,19,5.66,4.33,16.43,8.27,23.22,4.31a1,1,0,0,0-.45-1.77c-3.94,0-7.36.31-11.21-1a29.92,29.92,0,0,1-10.4-6.1c-5.32-4.89-4.54-11.88-2.61-18.26,4.33-14.35,14.78-26.82,25.94-36.44,1-.88-.23-2.42-1.36-1.83-8.63,4.45-14.84,13.29-20.5,20.92a53.33,53.33,0,0,0-3.3,5,34.75,34.75,0,0,1-7.49-1.1c-1.66-.5-3.24-1.34-4.86-2a20.94,20.94,0,0,0-2.43-10.63,36,36,0,0,1,.3-7.55,33.94,33.94,0,0,1,3.7-10,128.2,128.2,0,0,1,11.21-16.8c2.1-2.74,4.48-5.47,7.56-7.12,3.31-1.77,7-1.58,10.6-1.16,7.28.84,15,4.06,21.35,7.66C1037.47,403.77,1038.15,403,1037.64,402.51Z"/><path class="cls-30" d="M1023.18,377.62c-3.39-5.34-9.91-8.06-15.84-9.53-7.23-1.79-14.72-2.44-21.73.46-8,3.3-11.83,9.83-16.74,16.48-5.27,7.16-10.44,14.16-13.42,22.62-.24.69.87,1.2,1.2.53,3.17-6.61,7.57-12.59,11.92-18.45,4.65-6.28,8.73-12.72,15.88-16.39,6.77-3.47,13.66-3.35,20.92-1.67,5.45,1.26,12.25,2.84,16.11,7.22A1.07,1.07,0,0,0,1023.18,377.62Z"/><path class="cls-31" d="M776.07,897.84s-27.35-90.47-95.38-148.68-169-110.26-169-110.26l55.4-68.2-101,14.61S443.64,514.52,438,471.58s0-89.23,0-89.23,37.17-37.17,114.32-45.58,169,77.63,169,77.63,36.47,49.31,63.82,87.88,28.95,51.29,28.95,51.29L765.55,570.7l61.72,35.83S822.06,698.66,814.14,759,776.07,897.84,776.07,897.84Z"/><path class="cls-32" d="M482.91,405.5s25.95,80.15,30.16,83.91,89.07,66.89,155,161.21S776.78,882.41,776.78,882.41s11.22-92.58-.71-198.48-88.54-308.3-88.54-308.3Z"/><path class="cls-28" d="M944,1022.05c-11.56,20.07-32,31.75-53,39.9a391.47,391.47,0,0,1-69.34,19.46,409.93,409.93,0,0,1-40.85,5.43c-2-10.4-4.15-20.78-6.26-31.16q-1.66-8.22-3.35-16.44c-1-5-1.41-11.24-3.78-15.85a2.25,2.25,0,0,0-1.59-.95c-2.33,2.34-3.95,5.36-5.69,8.15-2.09,3.34-4.17,6.67-6.24,10a176.1,176.1,0,0,1-12,16.58c-4.36,5.53-8.54,11.21-12.55,17-3.85,5.55-8.55,11.3-11.6,17.4a1.69,1.69,0,0,0-.38,0c-15,3-30.42,2.1-45.53.63a329.6,329.6,0,0,1-43.1-7.43c-28.21-6.61-55.56-16.39-82.07-28-13.77-6-27.18-12.83-40.9-18.91a1.19,1.19,0,0,0-.67-.93c-21-11.27-41.29-23.62-58.91-39.89a210.44,210.44,0,0,1-43.51-56c-6.31-12-11-24.46-15.27-37.26a.92.92,0,0,0-1.78.46c4.76,23.27,16.62,45.35,30.65,64.29,14.2,19.16,32,35.66,51.42,49.44a227.93,227.93,0,0,0,36,21.28,1.35,1.35,0,0,0,1,.07,356.71,356.71,0,0,0,36.65,18.44c13.27,6,26.74,11.45,40.44,16.33,27.53,9.78,55.9,17.2,85,20.54,17,2,34.57,3.77,51.52.53l0,0a1.26,1.26,0,0,0,.92-.45c4.64-5,8-11.49,11.91-17.1,4.26-6.16,8.57-12.27,13.14-18.19a177.69,177.69,0,0,0,11.74-16.7q2.88-4.76,5.73-9.52c1.28-2.13,2.73-4.28,3.9-6.54.3,4.21,1.75,8.67,2.51,12.64q1.65,8.6,3.29,17.18c2.14,11.22,4.19,22.46,6.34,33.68.35,1.79,2.59,1.6,3.3.32a406,406,0,0,0,73.55-13c23.27-6.37,48-13.83,67.74-28.18,9.54-6.94,17.72-15.76,23-26.39C945.76,1022,944.48,1021.15,944,1022.05Z"/><path class="cls-28" d="M828.06,606.38c-1.93-2.38-5-3.94-7.48-5.66s-4.94-3.38-7.43-5c-5.17-3.41-10.41-6.71-15.8-9.75s-10.83-5.6-16.38-8.15c-2.62-1.2-5.24-2.42-7.79-3.76-1.66-.86-3.26-1.92-4.92-2.82,3.2-.67,6.42-2.19,9.4-3.22,4.15-1.44,8.28-2.92,12.42-4.39,8.13-2.88,16.63-5.4,24.46-9a.83.83,0,0,0,.16-.09c1.08.1,2.2-.68,1.72-2-7.32-19.58-19.14-36.54-31.37-53.31-6.14-8.43-18.67-26.93-24.95-35.26-3.59-4.75-34.8-44.32-38.34-49.11-3.29-4.46-23.82-18.84-27.82-22.69a.22.22,0,0,0-.34.26c2.56,5.1,23.74,19.22,27.11,23.81,3.16,4.32,33.8,43.56,36.91,47.91,6.16,8.58,18.66,27.26,24.84,35.82,11.73,16.22,22.79,33.34,30.17,52-8.37,2.31-16.57,5.83-24.7,8.83-4.12,1.53-8.25,3-12.36,4.6-3.38,1.28-7.41,2.28-10.33,4.47-1.22-.37-1.82,1.13-1.17,2,3.34,4.39,10.14,6.78,15,9,5.55,2.56,11,5.18,16.36,8.19s10.62,6.35,15.77,9.78q3.75,2.49,7.43,5c2.23,1.54,4.42,3.46,6.91,4.57-1,5.65-1,11.67-1.29,17.37-.36,6.68-.74,13.37-1.06,20q-.9,19.36-2.31,38.7t-3.3,38.62c-1.18,12-3.34,24.07-4.17,36.1-1.81,5.45-2.68,11.36-3.85,17s-2.33,11.22-3.53,16.83c-2.52,11.85-5.4,23.63-8.49,35.34-5.86,22.14-12.43,44.41-21,65.67-14.64-42.32-36.95-81.94-66.41-115.75-4.33-5-8.78-9.85-13.45-14.51-2.74-2.74-5.57-5.76-8.6-8.42-7.58-8.64-16.41-15.7-25.74-22.53q-17.67-12.9-35.65-25.37c-23.91-16.66-48-33.14-72.77-48.55-12.44-7.75-25.49-15.7-39.45-20.45,4-4.43,7.58-9.51,11.3-14.07q6.84-8.38,13.53-16.89c9.06-11.51,17.34-23.73,26.91-34.82l.11,0a1.17,1.17,0,0,0-.24-2.11c-3.44-.64-7.06.11-10.5.57-4.39.59-8.78,1.2-13.16,1.8l-25.63,3.5c-8.27,1.13-16.56,2.26-24.78,3.7-7.95,1.39-16.05,2.25-24,3.81-5-11.11-7.92-23.48-11.24-35.18-3.39-11.92-6.54-23.92-9.33-36a425.42,425.42,0,0,1-10.83-73.94q-.51-10-.4-20.09c.09-7.12.89-14.37.28-21.46,0-.67-1-.92-1.23-.19-1.6,5.7-1.77,11.69-2.05,17.57-.31,6.47-.33,12.95-.17,19.42a351,351,0,0,0,3,37.21c3.31,25.21,8.94,50.09,15.79,74.56,3.73,13.34,7,27.41,12.79,40,.69,1.5,2.39,1.17,3.17.13,8-.58,15.93-1.92,23.88-2.7,8.23-.82,16.44-1.9,24.64-3s16.63-2.25,24.94-3.39l13.16-1.79a77.3,77.3,0,0,0,8.43-1.26c-4.13,3.76-7.52,8.27-10.87,12.74q-6.78,9.06-13.72,18t-14.42,17.86c-4.71,5.66-10.28,11-14.54,17-1,1.46,1.16,3.11,2.4,1.92l.62-.62c12,5.74,23.91,11.56,35.35,18.52,12,7.33,23.81,15.16,35.57,23q36.24,24.07,71.54,49.53c12.19,8.78,24.82,17.77,34.53,29.36a1.16,1.16,0,0,0,.85.46c.76.77,1.51,1.54,2.23,2.32,3.83,4.12,7.66,8.26,11.37,12.49,7.57,8.64,14.8,17.6,21.54,26.9a359,359,0,0,1,34.23,58.1,346.65,346.65,0,0,1,14.65,36.27c.66,1.94,3.63,1.3,3.34-.53,4.62-11.3,9.28-22.68,13.07-34.29,3.68-11.29,7-22.7,10-34.19s5.74-23.08,8.44-34.67c1.4-6,2.75-12,4-18.06.8-3.89,1.77-7.87,2.41-11.86a1.18,1.18,0,0,0,.34-.61c3-12.56,3.78-26,5.09-38.81,1.35-13.08,2.42-26.19,3.35-39.31s1.72-26.25,2.52-39.39c.4-6.45.7-12.9,1-19.36.27-6,1-12.3.4-18.34A1.69,1.69,0,0,0,828.06,606.38Z"/><path class="cls-29" d="M594.14,199.94s64.76,148,71.35,162.56-76.66,18-21.15,35.06c0,0-20.56,7.94-80.54,19-96,17.65-43.46,8.29-62.46-11,0,0-3.77,5.66-6-20.73-2.69-31.6-27.8-163.27-27.8-163.27Z"/><path class="cls-30" d="M594.14,199.94,467.52,221.5S478.87,281,487.13,329.62a185.9,185.9,0,0,0,32.36,20.31c26.36,12.74,50.61,9.92,72,6.27,26-4.44,43.28-18.38,53.92-39.21C624.19,268.6,594.14,199.94,594.14,199.94Z"/><path class="cls-29" d="M409,181.6c15.54,82.29,73,129.6,110.47,147.68,26.36,12.73,50.61,9.91,72,6.26,68.41-11.64,76.32-88.61,62.45-184.85C640.12,54.66,597.32,8.12,512.8,22.51,418.62,38.55,391.11,86.72,409,181.6Z"/><path class="cls-30" d="M612.18,245.19c5.44-1.11,9.53-3.33,10.87-7.71,4.21-13.67-11.29-31.92-12.84-34.22-1.08-1.6-2.42-2.42-4-1.35s-.55,3.25.52,4.84c5.07,7.56,9.94,22.3,7.53,28.65-.4,1.06-1.2,2.37-3.82,3a3.55,3.55,0,0,0-2.5,4.25C608.64,246,612.08,245.21,612.18,245.19Z"/><path class="cls-33" d="M656.51,148.08a2.9,2.9,0,0,0,2-1.36,4.58,4.58,0,0,0-.7-5.53c-6.1-5.91-20.72-18-35.94-.77a4.62,4.62,0,0,0-.5,5.46c1.13,1.78,3.17,2.22,4.56,1,14.27-12.7,27.92.2,28,.33A3,3,0,0,0,656.51,148.08Z"/><path class="cls-33" d="M515.08,172.16a3.87,3.87,0,0,1-2.77-.56,3.94,3.94,0,0,1-1.22-5.44c4.92-7.78,17.47-24.52,41.53-14a4.12,4.12,0,0,1,2.59,4.94,3.94,3.94,0,0,1-4.94,2.59c-21.28-6.65-32.41,10.47-32.52,10.65A3.94,3.94,0,0,1,515.08,172.16Z"/><path class="cls-30" d="M465.92,188.21s-8.23-18.57-28.45-12.32c-19.55,6-10.06,67.34,9.09,74.71s27.2-23.6,27.2-23.6Z"/><path class="cls-29" d="M472.39,191.7s-7.86-14.5-28.17-9.18c-19.63,5.14-11.32,53.33,7.66,58.78s27.6-19.13,27.6-19.13Z"/><path class="cls-34" d="M562.41,197.32c-.32-1.64-1.55-3.41-2.25-5a36.28,36.28,0,0,0-2.65-5.09,12.3,12.3,0,0,0-11-5.87c-6.22.19-7.89,4.28-8.78,8-.77,3.24-4.28,10.19.62,12.49.59.29,1.56,0,1.72-.48.52-1.69.09-3.49.53-5.22s1.19-3.68,1.73-5.52c.71-2.46,1.45-6.91,6.56-5.35,6.92,2.11,4.81,10.32,8.67,14C559.48,201.15,562.76,199.09,562.41,197.32Z"/><path class="cls-34" d="M650.19,181.39c-1.07-3.5-2.32-7.24-5-10.31-2.18-2.48-6.26-5.18-10.65-3.74-3.77,1.23-4.46,4.8-4.54,7.42a10.92,10.92,0,0,0,3.21,8.77c.54.52,1.95.28,1.61-.46-.81-1.82-.55-4.53-.56-6.44,0-1.5-.19-5.3,2-6.16,5-1.91,8.11,10,8.63,11.9a2.35,2.35,0,0,0,1.87,1.39,3.48,3.48,0,0,0,2.1-.17C649.91,183.07,650.47,182.31,650.19,181.39Z"/><path class="cls-35" d="M634.59,258.52a31,31,0,0,1,.36,6.33c-7,4.11-27.67,14.51-49.33,8.18a50,50,0,0,1-4.43-10.83C605.27,275.11,634.59,258.52,634.59,258.52Z"/><path class="cls-36" d="M635,264.85a28.21,28.21,0,0,1-2.83,11.5,27.23,27.23,0,0,0-11.59-4.93A78.45,78.45,0,0,0,635,264.85Z"/><path class="cls-37" d="M614.2,288.66c-15.08,2.82-23.91-7.13-28.58-15.63,12.87,3.77,25.4,1.62,34.91-1.61a27.23,27.23,0,0,1,11.59,4.93C629.37,281.78,624.11,286.81,614.2,288.66Z"/><path class="cls-30" d="M620.9,293.57s-8.09,5.15-14.48,2.61C606.42,296.18,614.27,303.58,620.9,293.57Z"/><path class="cls-38" d="M601.46,409.16l-33.85,51.62L486.36,416l-5-7.37s8.82-4.93,13.1-7.24C494.42,401.42,540.64,419.28,601.46,409.16Z"/><path class="cls-38" d="M602.72,409a226.11,226.11,0,0,0,84.81-33.32l4.27,11.48-34.13,57.28Z"/><path class="cls-39" d="M781.11,756.11c-11.93-48.27-29.35-95.3-49.92-140.91-14.52-31.72-30.37-63-51.46-90.69a831,831,0,0,0-50-67.27L646,423.78l-47.22-26.95-31.41,39.69L596.45,462c61.23,39.18,108,170,115.45,191.63,5.21,15.59,10,31.49,14.38,47.87,8.2,29.1,11.84,58,15.13,86.71,22.5,52.9,35.37,94.24,35.37,94.24S783.3,828.61,781.11,756.11Z"/><polygon class="cls-32" points="487.95 357.38 598.3 395.49 664.55 339.73 695.3 374.22 689.73 381.51 652.73 429.98 599.2 400.71 565.89 446.13 479.9 408.03 487.95 357.38"/><path class="cls-29" d="M179.26,697.57s30-30,39-57.61c2.83-8.69,5.77-25-9-37.32L197.53,482.82S198,466.34,187,466.35c-12.92,0-12,15.57-12,15.57l.08,78.16s-5.6-12.65-17.24-12c-12.29.66-15.94,13-15.94,13s-4.15-5.33-16.16-3.37c-9.87,1.61-13.78,10.6-13.78,10.6A36.88,36.88,0,0,0,99.83,570c-8.62,3.2-14,14.21-14,14.21S74.55,634.2,100,686.61C100,686.61,126.37,751.13,179.26,697.57Z"/><path class="cls-30" d="M144.75,573.31c3.51-4.42,19.22,7.08,35.19,10,7.6,1.37,29.33,19.37,29.33,19.37s-19.07-19-34-22.13c-.25-.06-.55-.17-.81-.23,1.22-2.32,1.68-14.21.65-20.2,0,0-2.27,16.58-1.49,20-7.37-2.12-18.58-8.59-27.86-9.66a3.48,3.48,0,0,0-.73,0c-.5-3-3.1-9.35-3.1-9.35s.54,6.62,1.7,9.55a3.18,3.18,0,0,0-1.5,1.08s-7,15,2.6,26.47a81.54,81.54,0,0,0,.8,12.23c1.44,10.78-9.61,12.5-9.73,12.52l-1,.07a13.72,13.72,0,0,1-13.46-7.5L112,568.29s5.87,39.78,6.6,46.86-6.58,9-6.6,9l-4.93.22c-11.85.44-18.46-39.15-18.46-39.15-2.91,9.59-.73,37.22-.73,37.22,44.75,7.31,56.44,37.47,56.44,37.47,16.37-30.74,37.19-36.7,37.19-36.7l4.06-1.9-11.37-16.83C134.59,601,142.91,575.64,144.75,573.31Zm20.8,46.76.06,0c-1.64.21-3.37.41-5.18.61-9.55.11-12.16-10.33-12.16-10.33l-2.08-10.67a29.12,29.12,0,0,0,8.6,5.78c8.29,3.76,17.86,4.23,17.9,5C173.17,619.23,165.55,620.07,165.55,620.07Z"/><path class="cls-33" d="M609.91,247.06s15.48-1.63,23-1.6c0,0,4.62.6,6,9.16l-27.49,2.8s-26.2,4.11-35.78,7.87c0,0-2.15-7.7,2-10.59S600.33,249.69,609.91,247.06Z"/><path class="cls-33" d="M579.19,311.16l-1.77,9.91s13.51,12.23,36.09,8.66,29.1-12.54,31.92-17.88l-4.53-10.44s-.82,6.39-4,7.71c-16.3,6.87-30.59,11.11-50.76,8C586.18,317.14,580.41,313.7,579.19,311.16Z"/></g></g></svg>