<svg id="Layer_1" data-name="Layer 1" xmlns="http://www.w3.org/2000/svg" viewBox="0 0 1200 1820"><defs><style>.cls-1{fill:#3fc9e6;}.cls-2{fill:#ffb762;}.cls-3{fill:#c3c3d1;}.cls-4{fill:#abaaba;}.cls-5{fill:#453878;}.cls-6{fill:#6154c7;}.cls-7{fill:#8c4f45;}.cls-8{fill:#753c36;}.cls-9{fill:#443889;}.cls-10{fill:#f7c2d0;}.cls-11{fill:#30323d;}.cls-12{fill:#23242b;}.cls-13{fill:#fdf5ed;}.cls-14{fill:#9e005d;}.cls-15{fill:#da727e;}.cls-16{fill:#ff8d94;}.cls-17{fill:#f04e98;}</style></defs><path class="cls-1" d="M773.88,859.35c25.52,10.21,36.08,41.71,35.4,69.48s-9.38,55-8.7,82.77c.82,33.58,15.18,65.12,22.45,97.89,16.13,72.66-3,148.29-25.91,219S747,1470.53,746.81,1545s33.63,154.77,101.13,184.33c-61.6-12-123-32.11-173.26-70.07s-88.44-95.88-92-159.3c-4.07-73,34.68-154.88-7.42-214.24-33.68-47.51-100.25-51.63-154-73-90.1-35.88-151.44-135-144.06-232.73C337.1,961,385.86,911.48,446,893.51,548.49,862.92,677,904.9,773.88,859.35Z"/><polygon class="cls-2" points="184.94 481.22 205.74 499.6 316.47 381.76 288.34 356.89 184.94 481.22"/><path class="cls-3" d="M291.63,330.37c13.58-15.36,36-17.77,50-5.38s14.36,34.9.77,50.27-36,17.77-50,5.38S278,345.74,291.63,330.37Z"/><rect class="cls-4" x="313.2" y="318.33" width="6.53" height="70.2" transform="translate(-157.93 356.4) rotate(-48.52)"/><path class="cls-5" d="M771.44,758.37s-5.77,35.28,0,64.79,18.24,48,18.24,48-13.75,87.38-140.78,140-164.23,33.45-164.23,33.45l-43.63-62-12.88,58.75s-72.44-4.49-121.2-32.08-72.5-134.72-71.85-193.1S255,720.52,255,720.52s-66.08,25.66-111,3.85S80.49,637.76,96.53,576.81s66.72-126.39,66.72-126.39l72.5,34s1.92,9,5.13,30.79,6.42,30.15,6.42,30.15,53.24-10.9,105.85-62.87,76.34-62.87,125.74-83.4,138.58-35.29,157.18-35.29S716.27,388.19,749,410s69.93,46.83,73.13,64.15,6.93,57.74,27.53,107.14,55.23,82.12,55.23,82.12l41.06-19.89,80.2,9s-2.57,22.1,0,53.39-9,98.66-55.18,119.19-106.49,9.62-142.42-12.19S771.44,758.37,771.44,758.37Z"/><path class="cls-6" d="M834.42,697.9c3.23-4.53,9-7.32,13.72-10,5.75-3.31,11.35-6.91,17.19-10.07A157.58,157.58,0,0,1,882,670.42c5.2-2.09,10.45-4.18,16.08-4.22q1.54-.81,3.12-1.59c8.34-4.14,16.48-8.7,25.38-11.56.46-.15.81.58.35.8a248.78,248.78,0,0,0-24.08,13.47c-7.51,4.61-15.07,9.17-22.2,14.34s-13.59,11.29-20,17.5a49.13,49.13,0,0,0-8.75,10.44c-1.91,3.31-3.53,6.64-6.46,9.19a1.21,1.21,0,0,1-1.75-1.68c2.56-3.34,4-7.36,6.12-11a49.4,49.4,0,0,1,8-9.75,170.16,170.16,0,0,1,20.32-17.8,155.07,155.07,0,0,1,14.06-9.14c-3,.94-6,2.09-8.94,3.29a166,166,0,0,0-17,7.62c-5.19,2.86-10.16,6.07-15.28,9s-10,6.68-15.17,9.82C835,699.7,833.83,698.73,834.42,697.9Z"/><path class="cls-6" d="M737.65,697.26c2.48,8.51,8.1,15.88,12.42,23.53s9.22,15.19,14.21,22.6c4.79,7.12,9.47,14.31,14.44,21.31,5.32,7.5,10.66,15.36,16.7,22.28a.35.35,0,0,1-.49.51c-13.48-12.13-23.89-27.12-33.86-42.15a243,243,0,0,1-13.93-23.46c-4-7.86-8.26-15.72-10.55-24.3A.55.55,0,0,1,737.65,697.26Z"/><path class="cls-6" d="M247.26,736.06c6.52-19.07,15.19-37,24.25-55s16.55-36.89,27.64-53.78c5.42-8.26,10.43-16.69,15.26-25.31,5.06-9,10.38-17.85,15.1-27,9.27-18.05,19.78-35.37,30.51-52.58,5.59-9,11.37-18.09,18.26-26.12,6.06-7.05,14.32-13,18.31-21.58.39-.82,1.57-.13,1.23.69-3.19,7.49-8.69,12.84-14.21,18.64-6.61,6.95-12,15.05-17.13,23.13-5.4,8.52-10.31,17.35-15.4,26.06s-10.17,17.55-14.69,26.64-9.19,17.89-14.12,26.7-9.5,17.81-14.9,26.33c-5.12,8.07-10.42,15.91-14.6,24.53-4.52,9.35-8.9,18.77-13.46,28.1-5.05,10.32-10.78,20.29-15.75,30.65-4.88,10.19-9,20.73-14.2,30.76C248.78,738,246.84,737.3,247.26,736.06Z"/><path class="cls-6" d="M236.56,489c3.21,7.6,4.47,15.86,6.07,23.91,1.64,8.26,3.75,16.31,6.08,24.4a178.61,178.61,0,0,0,8.09,23c3.3,7.44,8.3,14.09,11.17,21.72.54,1.44-1.49,2.07-2.3,1a102.36,102.36,0,0,1-12.53-20.78,149.27,149.27,0,0,1-7.52-23.48c-4.14-16.3-7.22-32.92-10.26-49.46A.63.63,0,0,1,236.56,489Z"/><path class="cls-7" d="M266.41,415.14s17.45-7.06,14.25-18.93-19.44-46.51-32.5-42.66S208.8,368,186,396.21s-30.8,63.84-27.91,72.18,22.45,37.53,47.47,38.49,71.86-14.8,84.37-32.58,11.38-39.53-3.46-44.21-18.77-1.8-18.77-1.8S270.76,424.12,266.41,415.14Z"/><path class="cls-8" d="M192.79,464.78c2.78,5.07,7.3,9.29,11.32,13.41,1.94,2,4.37,3.36,6.48,5.15,1.48,1.24,3.79,2.7,4.61,4.43a1,1,0,0,1-.56,1.44c-2.07.62-3.53-1-5-2.36-2.3-2.18-5-3.89-7.24-6.17a60.73,60.73,0,0,1-11-15.1C191,464.7,192.3,463.88,192.79,464.78Z"/><path class="cls-8" d="M193.44,413.69a31,31,0,0,1,9.13-6.65,36.5,36.5,0,0,1,10.5-2.84c7.56-.89,13,1.43,17.88,7.25A98.65,98.65,0,0,1,243.36,430a30.61,30.61,0,0,1,3.55,12.5,43.27,43.27,0,0,1,9.74-9c3.7-2.45,8.37-6,12.87-6.56.71-.09.88.91.37,1.25-9.61,6.29-29.57,16.69-23.43,31.3,4.18,9.94,24.6,12.7,28.42,1.05.29-.91,1.76-.85,1.75.2-.13,7.45-6.88,10.29-13.47,10.8-7.21.55-15.26-1.78-19.15-8.31a14.7,14.7,0,0,1-1.65-4.1,21.43,21.43,0,0,1-10.05,3.12,43.78,43.78,0,0,1,3.9,11.7c1.24,7.1-.34,12.94-6.17,17.4-5.17,4-15,7.57-21.23,4a.87.87,0,0,1,.4-1.62c3.61,0,6.74.28,10.26-.92a27.35,27.35,0,0,0,9.51-5.58c4.87-4.48,4.16-10.87,2.4-16.71-4-13.12-13.53-24.53-23.74-33.33-.93-.81.22-2.21,1.25-1.68,7.89,4.07,13.57,12.17,18.75,19.14a51,51,0,0,1,3,4.58,32,32,0,0,0,6.85-1c1.51-.46,3-1.22,4.45-1.82a19.1,19.1,0,0,1,2.22-9.72,34,34,0,0,0-.27-6.91,31.72,31.72,0,0,0-3.39-9.18,117.35,117.35,0,0,0-10.26-15.36,22.74,22.74,0,0,0-6.91-6.52c-3-1.62-6.39-1.44-9.7-1-6.66.76-13.72,3.71-19.53,7C193.59,414.84,193,414.13,193.44,413.69Z"/><path class="cls-8" d="M206.67,390.92c3.1-4.88,9.06-7.37,14.49-8.72,6.61-1.63,13.45-2.23,19.87.42,7.32,3,10.82,9,15.31,15.08,4.83,6.55,9.55,12.95,12.28,20.69.22.63-.8,1.1-1.1.48-2.9-6-6.93-11.51-10.9-16.87-4.25-5.75-8-11.64-14.53-15-6.19-3.17-12.49-3.06-19.13-1.52-5,1.15-11.21,2.59-14.74,6.6A1,1,0,0,1,206.67,390.92Z"/><path class="cls-9" d="M432.7,866.79s25-82.76,87.25-136S674.57,629.93,674.57,629.93l-50.69-62.39,92.39,13.36s20.53-64.75,25.66-104,0-81.62,0-81.62-34-34-104.57-41.7-154.62,71-154.62,71-33.36,45.11-58.38,80.4-26.48,46.91-26.48,46.91l44.45,15.67-56.46,32.77s4.77,84.28,12,139.45S432.7,866.79,432.7,866.79Z"/><path class="cls-10" d="M700.87,416.42s-23.74,73.32-27.59,76.76S591.81,554.37,531.5,640.65s-99.44,212-99.44,212S421.8,768,432.7,671.12s81-282,81-282Z"/><path class="cls-6" d="M279.13,980.41c10.57,18.36,29.28,29,48.48,36.5a358.53,358.53,0,0,0,63.42,17.8,373.21,373.21,0,0,0,37.37,5c1.85-9.51,3.8-19,5.72-28.5q1.53-7.51,3.07-15c.95-4.63,1.29-10.29,3.45-14.51a1,1,0,0,1,.24-.28.73.73,0,0,1,1.22-.58c2.14,2.14,3.61,4.9,5.21,7.45q2.87,4.57,5.71,9.17a161.05,161.05,0,0,0,11,15.17c4,5.05,7.81,10.25,11.48,15.54,3.52,5.07,7.82,10.33,10.61,15.91a1.45,1.45,0,0,1,.35,0c13.71,2.71,27.82,1.92,41.65.57a302.69,302.69,0,0,0,39.42-6.79c25.81-6,50.82-15,75.08-25.63,12.59-5.51,24.86-11.73,37.41-17.29a1,1,0,0,1,.61-.85c19.25-10.31,37.77-21.61,53.89-36.49a192.32,192.32,0,0,0,39.8-51.25c5.77-10.94,10.08-22.37,14-34.08a.84.84,0,0,1,1.63.42c-4.35,21.29-15.2,41.48-28,58.81-13,17.53-29.27,32.62-47,45.22a207.75,207.75,0,0,1-32.93,19.47,1.32,1.32,0,0,1-.93.07,327.23,327.23,0,0,1-33.52,16.87c-12.14,5.43-24.45,10.47-37,14.93-25.18,9-51.13,15.74-77.72,18.79-15.56,1.79-31.62,3.45-47.13.48h0a1.14,1.14,0,0,1-.84-.41c-4.25-4.58-7.35-10.52-10.9-15.65-3.89-5.63-7.83-11.22-12-16.64a165.6,165.6,0,0,1-10.74-15.27q-2.62-4.35-5.23-8.71c-1.17-2-2.5-3.92-3.57-6-.28,3.85-1.6,7.93-2.3,11.56q-1.5,7.86-3,15.71c-1.95,10.27-3.83,20.55-5.8,30.81-.31,1.64-2.36,1.47-3,.3a372,372,0,0,1-67.29-11.94c-21.28-5.82-43.91-12.65-62-25.77-8.73-6.35-16.21-14.42-21-24.14C277.48,980.34,278.66,979.58,279.13,980.41Z"/><path class="cls-6" d="M385.15,600.18c1.77-2.18,4.54-3.6,6.84-5.18s4.52-3.09,6.8-4.6c4.72-3.12,9.52-6.14,14.45-8.92s9.9-5.12,15-7.45c2.39-1.1,4.78-2.22,7.12-3.44,1.52-.79,3-1.76,4.5-2.58-2.93-.61-5.87-2-8.6-3-3.79-1.31-7.57-2.67-11.36-4-7.43-2.64-15.21-4.95-22.37-8.27l-.15-.09c-1,.09-2-.62-1.57-1.79,6.69-17.92,17.5-33.43,28.69-48.78,5.62-7.7,17.08-24.63,22.83-32.25,3.28-4.34,31.83-40.54,35.06-44.92,3-4.08,21.79-17.23,25.45-20.76a.2.2,0,0,1,.32.24c-2.34,4.67-21.72,17.58-24.8,21.78-2.89,4-30.92,39.85-33.77,43.83C444,477.89,432.52,495,426.86,502.8c-10.73,14.84-20.84,30.5-27.6,47.6,7.66,2.11,15.16,5.33,22.6,8.08,3.77,1.39,7.55,2.78,11.31,4.2,3.08,1.17,6.78,2.09,9.45,4.09,1.11-.34,1.66,1,1.06,1.82-3.05,4-9.27,6.19-13.74,8.26-5.07,2.35-10.09,4.74-15,7.49s-9.72,5.81-14.43,8.95q-3.42,2.28-6.79,4.61c-2.05,1.41-4,3.16-6.32,4.18.95,5.17.88,10.67,1.17,15.89.34,6.11.68,12.23,1,18.34q.84,17.72,2.12,35.4t3,35.33c1.09,11,3.06,22,3.82,33,1.65,5,2.45,10.39,3.52,15.51s2.14,10.27,3.23,15.4c2.31,10.84,4.94,21.62,7.77,32.33,5.36,20.25,11.37,40.62,19.23,60.06A320.73,320.73,0,0,1,493,757.48c4-4.55,8-9,12.31-13.27,2.51-2.51,5.09-5.27,7.87-7.7,6.93-7.9,15-14.36,23.55-20.6q16.15-11.82,32.6-23.21c21.87-15.24,43.94-30.32,66.57-44.42,11.38-7.09,23.31-14.35,36.09-18.71-3.68-4-6.94-8.69-10.34-12.86q-6.27-7.66-12.38-15.45c-8.29-10.53-15.86-21.71-24.62-31.86l-.09,0a1.06,1.06,0,0,1,.22-1.93c3.14-.59,6.46.1,9.6.52l12,1.64,23.44,3.21c7.57,1,15.15,2.07,22.67,3.38,7.27,1.28,14.68,2.06,21.93,3.49,4.59-10.16,7.24-21.48,10.28-32.18,3.1-10.91,6-21.88,8.53-32.93a389.16,389.16,0,0,0,9.91-67.64q.46-9.18.36-18.38c-.08-6.51-.81-13.14-.26-19.63.06-.61,1-.84,1.13-.17,1.46,5.21,1.62,10.69,1.88,16.08.29,5.91.3,11.84.15,17.76a320.64,320.64,0,0,1-2.75,34,488.8,488.8,0,0,1-14.44,68.2c-3.42,12.2-6.43,25.07-11.71,36.63a1.63,1.63,0,0,1-2.89.12c-7.3-.53-14.57-1.75-21.84-2.47-7.54-.75-15.05-1.73-22.55-2.75l-22.81-3.1-12-1.64a74.38,74.38,0,0,1-7.71-1.15,80.35,80.35,0,0,1,9.94,11.66c4.14,5.52,8.31,11,12.56,16.45s8.71,10.95,13.18,16.34c4.32,5.17,9.41,10,13.3,15.51.95,1.33-1.05,2.85-2.19,1.76-.19-.19-.37-.39-.56-.57a356.3,356.3,0,0,0-32.34,16.94c-11,6.7-21.79,13.86-32.54,21q-33.15,22-65.44,45.31c-11.15,8-22.71,16.25-31.59,26.86a1.1,1.1,0,0,1-.77.42c-.7.7-1.39,1.4-2,2.12-3.5,3.77-7,7.55-10.39,11.42-6.93,7.91-13.54,16.1-19.71,24.61a329,329,0,0,0-31.31,53.15,317.36,317.36,0,0,0-13.41,33.18c-.59,1.77-3.31,1.18-3-.49-4.23-10.34-8.48-20.74-12-31.36C416,824.45,413,814,410.23,803.5s-5.25-21.12-7.72-31.71c-1.28-5.5-2.52-11-3.66-16.53-.74-3.55-1.63-7.2-2.21-10.85a1,1,0,0,1-.31-.55c-2.78-11.49-3.46-23.76-4.66-35.51-1.23-12-2.21-24-3.07-36s-1.56-24-2.3-36c-.37-5.9-.64-11.81-.91-17.71-.24-5.51-.88-11.26-.36-16.78A1.54,1.54,0,0,1,385.15,600.18Z"/><path class="cls-7" d="M599.13,228.39s-59.24,135.34-65.27,148.7S604,393.55,553.2,409.16c0,0,18.82,7.26,73.68,17.35,87.82,16.14,39.75,7.58,57.14-10.09,0,0,3.44,5.18,5.5-19C692,368.56,715,248.11,715,248.11Z"/><path class="cls-8" d="M599.13,228.39,715,248.11S704.57,302.55,697,347a171.11,171.11,0,0,1-29.6,18.59c-24.12,11.64-46.3,9.06-65.89,5.73-23.82-4.06-39.59-16.82-49.32-35.87C571.64,291.19,599.13,228.39,599.13,228.39Z"/><path class="cls-7" d="M768.46,211.61c-14.21,75.28-66.78,118.55-101,135.09-24.12,11.65-46.3,9.07-65.89,5.73-62.58-10.65-69.81-81.06-57.12-169.1,12.66-87.84,51.8-130.41,129.12-117.24C759.68,80.76,784.85,124.82,768.46,211.61Z"/><path class="cls-8" d="M582.63,269.78c-5-1-8.72-3-10-7-3.85-12.51,10.33-29.2,11.75-31.31,1-1.46,2.21-2.21,3.66-1.23s.51,3-.47,4.43c-4.64,6.91-9.09,20.4-6.89,26.21.37,1,1.1,2.16,3.5,2.78a3.24,3.24,0,0,1,2.28,3.89C585.86,270.49,582.72,269.8,582.63,269.78Z"/><path class="cls-11" d="M542.07,181a2.65,2.65,0,0,1-1.78-1.25,4.2,4.2,0,0,1,.64-5.06c5.58-5.39,19-16.48,32.88-.7a4.25,4.25,0,0,1,.45,5c-1,1.63-2.89,2-4.17.89-13.05-11.62-25.54.18-25.66.31A2.75,2.75,0,0,1,542.07,181Z"/><path class="cls-11" d="M671.45,203a3.61,3.61,0,0,0,3.65-5.49c-4.51-7.12-16-22.43-38-12.77a3.77,3.77,0,0,0-2.37,4.52,3.61,3.61,0,0,0,4.52,2.37c19.46-6.08,29.64,9.58,29.74,9.74A3.61,3.61,0,0,0,671.45,203Z"/><path class="cls-8" d="M716.41,217.66s7.53-17,26-11.27c17.89,5.53,9.2,61.6-8.32,68.34s-24.87-21.58-24.87-21.58Z"/><path class="cls-7" d="M710.49,220.85s7.2-13.26,25.77-8.4c18,4.7,10.36,48.79-7,53.77S704,248.72,704,248.72Z"/><path class="cls-12" d="M628.15,226c.3-1.51,1.41-3.13,2.06-4.59a32.79,32.79,0,0,1,2.42-4.66,11.25,11.25,0,0,1,10.09-5.36c5.69.16,7.22,3.91,8,7.3.71,3,3.92,9.32-.56,11.43-.55.26-1.43,0-1.58-.44-.47-1.54-.08-3.19-.48-4.78s-1.09-3.36-1.58-5.05c-.65-2.24-1.33-6.31-6-4.89-6.34,1.93-4.41,9.44-7.94,12.83C630.84,229.49,627.83,227.61,628.15,226Z"/><path class="cls-12" d="M547.86,211.42c1-3.21,2.12-6.62,4.58-9.43,2-2.27,5.72-4.74,9.74-3.43,3.45,1.13,4.08,4.4,4.15,6.8a10,10,0,0,1-2.93,8c-.49.47-1.78.26-1.48-.43.74-1.66.5-4.14.51-5.89,0-1.36.18-4.84-1.85-5.62-4.55-1.76-7.42,9.1-7.89,10.87a2.17,2.17,0,0,1-1.71,1.28,3.24,3.24,0,0,1-1.93-.16C548.11,213,547.6,212.26,547.86,211.42Z"/><path class="cls-13" d="M562.12,282a27.84,27.84,0,0,0-.32,5.79c6.38,3.76,25.31,13.28,45.12,7.49a45.58,45.58,0,0,0,4.05-9.91C589,297.15,562.12,282,562.12,282Z"/><path class="cls-14" d="M561.8,287.76a25.85,25.85,0,0,0,2.58,10.53,24.84,24.84,0,0,1,10.6-4.51A72.06,72.06,0,0,1,561.8,287.76Z"/><path class="cls-15" d="M580.77,309.55c13.8,2.57,21.88-6.53,26.15-14.3-11.77,3.44-23.23,1.48-31.94-1.47a24.84,24.84,0,0,0-10.6,4.51C566.9,303.25,571.71,307.85,580.77,309.55Z"/><path class="cls-8" d="M574.65,314s7.4,4.72,13.24,2.4C587.89,316.43,580.71,323.19,574.65,314Z"/><path class="cls-16" d="M592.43,419.77l31,47.22,74.33-40.93,4.61-6.75s-8.07-4.5-12-6.62C690.35,412.69,648.06,429,592.43,419.77Z"/><path class="cls-16" d="M591.28,419.58a206.9,206.9,0,0,1-77.59-30.48l-3.9,10.5L541,452Z"/><path class="cls-17" d="M428.09,737.15C439,693,455,650,473.76,608.25c13.28-29,27.78-57.6,47.08-83a762.47,762.47,0,0,1,45.71-61.54l-14.84-30.6,43.2-24.66,28.73,36.31L597,468.07C541,503.91,498.17,623.6,491.4,643.36c-4.76,14.27-9.14,28.81-13.15,43.8-7.5,26.61-10.83,53-13.84,79.31-20.58,48.39-32.35,86.21-32.35,86.21S426.1,803.46,428.09,737.15Z"/><polygon class="cls-10" points="696.26 372.4 595.32 407.26 534.72 356.26 506.59 387.81 511.68 394.48 545.54 438.82 594.49 412.04 624.97 453.59 703.62 418.74 696.26 372.4"/><path class="cls-7" d="M978.63,683.6S951.19,656.16,943,630.89c-2.59-7.95-5.28-22.9,8.22-34.14l10.73-109.6s-.4-15.07,9.62-15.06c11.81,0,11,14.24,11,14.24l-.07,71.49s5.12-11.57,15.77-11c11.24.61,14.58,11.9,14.58,11.9s3.79-4.88,14.78-3.08c9,1.47,12.6,9.7,12.6,9.7a33.81,33.81,0,0,1,11.1,1.59c7.88,2.92,12.81,13,12.81,13s10.31,45.7-13,93.65C1051.14,673.57,1027,732.59,978.63,683.6Z"/><path class="cls-8" d="M983.31,598.47l-10.4,15.4,3.71,1.74s19,5.45,34,33.57c0,0,10.69-27.59,51.63-34.27,0,0,2-25.28-.66-34,0,0-6,36.21-16.89,35.81l-4.52-.2s-6.69-1.79-6-8.27,6-42.86,6-42.86l-8.54,43.16a12.54,12.54,0,0,1-12.31,6.86l-.92-.06c-.11,0-10.22-1.6-8.91-11.46a72.82,72.82,0,0,0,.74-11.18c8.78-10.44,2.38-24.22,2.38-24.22a2.94,2.94,0,0,0-1.38-1c1.07-2.69,1.56-8.74,1.56-8.74a58.75,58.75,0,0,0-2.84,8.55,3.56,3.56,0,0,0-.66,0c-8.49,1-18.75,6.9-25.49,8.84.72-3.1-1.36-18.27-1.36-18.27-1,5.49-.52,16.36.59,18.48-.24.06-.51.16-.74.21-13.69,2.85-31.13,20.24-31.13,20.24S971.06,580.29,978,579c14.61-2.63,29-13.16,32.19-9.11C1011.89,572.06,1019.5,595.23,983.31,598.47Zm1.34,5.48c0-.71,8.79-1.14,16.37-4.57a26.31,26.31,0,0,0,7.86-5.3l-1.89,9.76s-2.39,9.56-11.13,9.46c-1.65-.19-3.23-.37-4.74-.56l.06,0S984.2,611.93,984.65,604Z"/><path class="cls-11" d="M584.7,271.49s-14.16-1.49-21-1.46c0,0-4.23.55-5.47,8.38L583.39,281s24,3.76,32.73,7.19c0,0,2-7-1.86-9.68S593.46,273.9,584.7,271.49Z"/><path class="cls-11" d="M612.8,330.13l1.62,9.06s-12.36,11.19-33,7.92-26.62-11.47-29.2-16.35l4.14-9.55s.76,5.84,3.63,7.05c14.91,6.29,28,10.16,46.43,7.34C606.41,335.6,611.69,332.45,612.8,330.13Z"/></svg>