<?xml version="1.0" encoding="utf-8"?>
<!-- Generator: Adobe Illustrator 25.2.0, SVG Export Plug-In . SVG Version: 6.00 Build 0)  -->
<svg version="1.1" id="Layer_1" xmlns="http://www.w3.org/2000/svg" xmlns:xlink="http://www.w3.org/1999/xlink" x="0px" y="0px"
	 viewBox="0 0 631 459" style="enable-background:new 0 0 631 459;" xml:space="preserve">
<style type="text/css">
	.st0{fill:#6666CC;}
	.st1{fill:#453878;}
	.st2{opacity:0.5;fill:#CACAD4;enable-background:new    ;}
	.st3{fill:#1FAC9E;}
	.st4{fill:#007373;}
</style>
<g id="Layer_2_1_">
	<g id="background">
		<path class="st0" d="M128.8,46.8C50.8,87.8,0,154.4,0,229.5s50.8,141.7,128.8,182.7l182.7-182.7L128.8,46.8z"/>
		<path class="st1" d="M498.2,42.8C446.8,15.9,383.7,0,315.5,0S184.2,15.9,132.8,42.8l182.7,182.7L498.2,42.8z"/>
		<path class="st0" d="M631,229.5c0-75.1-50.8-141.7-128.8-182.7L319.5,229.5l182.7,182.7C580.2,371.2,631,304.6,631,229.5z"/>
		<path class="st1" d="M132.8,416.2c51.3,26.9,114.4,42.8,182.7,42.8s131.3-15.9,182.7-42.8L315.5,233.5L132.8,416.2z"/>
		<ellipse class="st2" cx="315.5" cy="229.5" rx="222.4" ry="144.8"/>
		<path class="st3" d="M313.6,94h-0.4c-115,0-208.4,59.1-209.3,132.2h209.6V94H313.6z"/>
		<path class="st4" d="M526.3,226.2c-0.9-73-94.1-132-209-132.2v132.2H526.3z"/>
		<path class="st4" d="M104,230.6c0,0.4,0,0.7,0,1.1c0,73.6,93.7,133.3,209.3,133.3h0.4V230.6H104z"/>
		<path class="st3" d="M318.1,230.6V365c115.4-0.1,209-59.8,209-133.3c0-0.4,0-0.7,0-1.1L318.1,230.6L318.1,230.6z"/>
	</g>
</g>
</svg>
