<svg width="80px" height="80px" viewBox="0 0 80 80" version="1.1" xmlns="http://www.w3.org/2000/svg" xmlns:xlink="http://www.w3.org/1999/xlink">
    <g stroke="none" stroke-width="1" fill="none" fill-rule="evenodd">
        <path d="M51.3280094,51.8400094 C47.2410094,51.8400094 43.9280094,48.5270094 43.9280094,44.4400094 C43.9280094,40.3540094 47.2410094,37.0410094 51.3280094,37.0410094 C55.4140094,37.0410094 58.7270094,40.3540094 58.7270094,44.4410094 C58.7270094,48.5270094 55.4140094,51.8410094 51.3270094,51.8410094 M53.5420094,30.1950094 L53.5420094,23.6150094 C55.3170094,22.7850094 56.4550094,21.0070094 56.4640094,19.0480094 L56.4640094,18.8950094 C56.4560094,16.1020094 54.1940094,13.8410094 51.4030094,13.8330094 L51.2490094,13.8330094 C48.4570094,13.8410094 46.1950094,16.1030094 46.1870094,18.8950094 L46.1870094,19.0480094 C46.1970094,21.0080094 47.3340094,22.7860094 49.1090094,23.6140094 L49.1090094,30.1950094 C46.6090094,30.5770094 44.2540094,31.6130094 42.2830094,33.1980094 L24.2150094,19.1400094 C24.3440094,18.6770094 24.4120094,18.1980094 24.4200094,17.7170094 C24.4230094,14.5640094 21.8700094,12.0040094 18.7160094,12.0000047 C15.5630094,11.9960094 13.0040094,14.5500094 13.0000047,17.7030094 C12.9960094,20.8570094 15.5500094,23.4160094 18.7030094,23.4200094 C19.6950094,23.4170094 20.6680094,23.1520094 21.5250094,22.6520094 L39.2900094,36.4820094 C36.0150094,41.4220094 36.1030094,47.8650094 39.5120094,52.7140094 L34.1060094,58.1200094 C33.6720094,57.9820094 33.2200094,57.9080094 32.7640094,57.9010094 C30.1730094,57.9010094 28.0710094,60.0030094 28.0710094,62.5940094 C28.0710094,65.1860094 30.1730094,67.2870094 32.7640094,67.2870094 C35.3560094,67.2870094 37.4570094,65.1870094 37.4570094,62.5940094 C37.4510094,62.1390094 37.3770094,61.6870094 37.2390094,61.2530094 L42.5870094,55.9050094 C48.9160094,60.7390094 57.9650094,59.5270094 62.7990094,53.1980094 C67.6330094,46.8700094 66.4220094,37.8200094 60.0930094,32.9860094 C58.1770094,31.5230094 55.9250094,30.5630094 53.5430094,30.1950094" id="Shape" fill="#FFFFFF"></path>
    </g>
</svg>
