<svg xmlns="http://www.w3.org/2000/svg" xmlns:xlink="http://www.w3.org/1999/xlink" viewBox="0 0 1200 1820"><defs><style>.cls-1{fill:none;}.cls-2{isolation:isolate;}.cls-3{clip-path:url(#clip-path);}.cls-4{fill:url(#radial-gradient);}.cls-5{fill:#fff;}.cls-13,.cls-14,.cls-16,.cls-17,.cls-6,.cls-7{opacity:0.5;}.cls-12,.cls-13,.cls-14,.cls-15,.cls-16,.cls-17,.cls-18,.cls-19,.cls-20,.cls-6,.cls-7,.cls-8{mix-blend-mode:screen;}.cls-6{fill:url(#linear-gradient);}.cls-7{fill:url(#radial-gradient-2);}.cls-12,.cls-15,.cls-18,.cls-19,.cls-20,.cls-8{opacity:0.2;}.cls-8{fill:url(#radial-gradient-3);}.cls-21,.cls-9{mix-blend-mode:overlay;}.cls-9{fill:url(#radial-gradient-4);}.cls-10{clip-path:url(#clip-path-2);}.cls-11{fill:url(#radial-gradient-5);}.cls-12{fill:url(#radial-gradient-6);}.cls-13{fill:url(#linear-gradient-2);}.cls-14{fill:url(#radial-gradient-7);}.cls-15{fill:url(#radial-gradient-8);}.cls-16{fill:url(#linear-gradient-3);}.cls-17{fill:url(#radial-gradient-9);}.cls-18{fill:url(#radial-gradient-10);}.cls-19{fill:url(#radial-gradient-11);}.cls-20{fill:url(#radial-gradient-12);}.cls-21{fill:url(#radial-gradient-13);}.cls-22{fill:#3fc9e6;}.cls-23{fill:#453878;}.cls-24{fill:#6154c7;}.cls-25{fill:#8c4f45;}.cls-26{fill:#753c36;}.cls-27{fill:#443889;}.cls-28{fill:#f7c2d0;}.cls-29{fill:#ff8d94;}.cls-30{fill:#f04e98;}.cls-31{fill:#23242b;}.cls-32{fill:#30323d;}.cls-33{fill:#9e005d;}</style><clipPath id="clip-path"><rect class="cls-1" x="-1510.29" y="2439.71" width="1920" height="1080"/></clipPath><radialGradient id="radial-gradient" cx="-550.29" cy="2666.46" r="960" gradientUnits="userSpaceOnUse"><stop offset="0.41" stop-color="#6154c7"/><stop offset="1" stop-color="#453878"/></radialGradient><linearGradient id="linear-gradient" x1="-1382.08" y1="1656.63" x2="-1382.08" y2="2705.91" gradientTransform="matrix(0.88, 0.48, -0.48, 0.88, 2240.32, 1042.52)" gradientUnits="userSpaceOnUse"><stop offset="0" stop-color="#fff"/><stop offset="0.21" stop-color="#b6b6b6"/><stop offset="0.43" stop-color="#757575"/><stop offset="0.62" stop-color="#434343"/><stop offset="0.78" stop-color="#1e1e1e"/><stop offset="0.91" stop-color="#080808"/><stop offset="1"/></linearGradient><radialGradient id="radial-gradient-2" cx="-4527.42" cy="2329.12" r="727.12" gradientTransform="matrix(0.11, 0.06, -0.48, 0.88, 1506.55, 637.06)" xlink:href="#linear-gradient"/><radialGradient id="radial-gradient-3" cx="7112.13" cy="2455.06" r="727.25" gradientTransform="matrix(-0.09, -0.08, -0.69, 0.73, 1967.37, 1078.89)" xlink:href="#linear-gradient"/><radialGradient id="radial-gradient-4" cx="-550.29" cy="3095.93" r="827.22" gradientTransform="translate(0 -1779) scale(1 1.44)" gradientUnits="userSpaceOnUse"><stop offset="0" stop-color="#fff"/><stop offset="0.09" stop-color="#eae8f0"/><stop offset="0.42" stop-color="#a49dbd"/><stop offset="0.69" stop-color="#716798"/><stop offset="0.89" stop-color="#514581"/><stop offset="1" stop-color="#453878"/></radialGradient><clipPath id="clip-path-2"><rect class="cls-1" x="449.71" y="2439.71" width="1920" height="1080"/></clipPath><radialGradient id="radial-gradient-5" cx="1409.71" cy="2666.46" r="960" xlink:href="#radial-gradient"/><radialGradient id="radial-gradient-6" cx="-4762.71" cy="1109.69" r="727.25" gradientTransform="matrix(-0.09, -0.08, -0.69, 0.73, 1967.37, 1078.89)" xlink:href="#linear-gradient"/><linearGradient id="linear-gradient-2" x1="-5016.8" y1="3665.44" x2="-5016.8" y2="4714.73" gradientTransform="matrix(-0.88, 0.48, 0.48, 0.88, -5533.67, 1042.52)" xlink:href="#linear-gradient"/><radialGradient id="radial-gradient-7" cx="-34793.12" cy="4338.3" r="727.11" gradientTransform="matrix(-0.11, 0.06, 0.48, 0.88, -4799.9, 637.06)" xlink:href="#linear-gradient"/><radialGradient id="radial-gradient-8" cx="32272.04" cy="5305.57" r="727.24" gradientTransform="matrix(0.09, -0.08, 0.69, 0.73, -5260.72, 1078.89)" xlink:href="#linear-gradient"/><linearGradient id="linear-gradient-3" x1="-1972.36" y1="4277.73" x2="-1972.36" y2="4835.62" gradientTransform="matrix(-0.9, 0.44, 0.44, 0.9, -2675.72, -1128.07)" xlink:href="#linear-gradient"/><radialGradient id="radial-gradient-9" cx="-9439.48" cy="4635" r="386.54" gradientTransform="matrix(-0.11, 0.05, 0.44, 0.9, -1923.43, -1498.4)" xlink:href="#linear-gradient"/><radialGradient id="radial-gradient-10" cx="-10533.93" cy="4731.3" r="188.92" gradientTransform="matrix(-0.1, 0.07, 0.55, 0.83, -2629.54, -1351.63)" xlink:href="#linear-gradient"/><radialGradient id="radial-gradient-11" cx="38984.74" cy="3974.6" r="189.01" gradientTransform="matrix(0.11, -0.04, 0.33, 0.95, -4716.32, -321.47)" xlink:href="#linear-gradient"/><radialGradient id="radial-gradient-12" cx="5911.96" cy="4799.88" r="386.56" gradientTransform="matrix(0.09, -0.08, 0.65, 0.76, -2403.44, -1079.74)" xlink:href="#linear-gradient"/><radialGradient id="radial-gradient-13" cx="1409.71" cy="3095.93" r="827.22" xlink:href="#radial-gradient-4"/></defs><g class="cls-2"><g id="Layer_1" data-name="Layer 1"><g class="cls-3"><rect class="cls-4" x="-1510.29" y="1706.46" width="1920" height="1920"/><path class="cls-5" d="M295.58,1860.46c-5.23,9.45-39.08.74-75.63-19.46s-61.93-44.23-56.71-53.68,39.08-.74,75.63,19.46S300.8,1851,295.58,1860.46Z"/><polygon class="cls-6" points="295.57 1860.46 229.41 1823.89 163.24 1787.32 -577.79 2567.67 -274.35 2735.38 29.11 2903.08 295.57 1860.46"/><path class="cls-7" d="M-19.45,2454.7c-194.24,351.45-385.92,617.45-428.13,594.12s81-327.14,275.28-678.6,385.91-617.45,428.12-594.12S174.79,2103.25-19.45,2454.7Z"/><path class="cls-8" d="M-401.93,2218.48c-275.6,292.06-470.57,555.65-435.5,588.74s286.92-176.83,562.52-468.88S195.66,1782.7,160.58,1749.6-126.34,1926.43-401.93,2218.48Z"/><rect class="cls-9" x="-1510.29" y="1706.46" width="1920" height="1920"/></g><g class="cls-10"><rect class="cls-11" x="449.71" y="1706.46" width="1920" height="1920"/><path class="cls-12" d="M1558.07,2218.48c-275.6,292.06-470.57,555.65-435.5,588.74s286.92-176.83,562.52-468.88,470.57-555.64,435.49-588.74S1833.66,1926.43,1558.07,2218.48Z"/><path class="cls-5" d="M563.84,1860.46c5.22,9.45,39.08.74,75.62-19.46s61.93-44.23,56.71-53.68-39.08-.74-75.62,19.46S558.62,1851,563.84,1860.46Z"/><polygon class="cls-13" points="563.84 1860.46 630.01 1823.89 696.17 1787.32 1437.21 2567.67 1133.76 2735.38 830.31 2903.08 563.84 1860.46"/><path class="cls-14" d="M878.87,2454.7c194.23,351.45,385.91,617.45,428.12,594.12s-81-327.14-275.27-678.6S645.8,1752.77,603.6,1776.1,684.63,2103.25,878.87,2454.7Z"/><path class="cls-15" d="M1261.35,2218.48c275.59,292.06,470.57,555.65,435.49,588.74s-286.92-176.83-562.51-468.88S663.76,1782.7,698.83,1749.6,985.76,1926.43,1261.35,2218.48Z"/><path class="cls-5" d="M949.9,1853.24c2.54,5.15,20.73,1.36,40.64-8.46s34-22,31.45-27.12-20.74-1.35-40.65,8.47S947.36,1848.09,949.9,1853.24Z"/><polygon class="cls-16" points="949.9 1853.24 985.94 1835.45 1021.99 1817.66 1396.32 2250.41 1231.01 2332 1065.7 2413.59 949.9 1853.24"/><path class="cls-17" d="M1102.55,2176.63c94.5,191.46,189.74,337.47,212.74,326.12s-35-175.76-129.47-367.21-189.73-337.47-212.73-326.12S1008.06,1985.18,1102.55,2176.63Z"/><path class="cls-18" d="M1020.62,1906.52c57.65,87,112.86,151.9,123.3,145s-27.82-83.06-85.47-170-112.85-151.9-123.3-145S963,1819.53,1020.62,1906.52Z"/><path class="cls-19" d="M1024,1904.83c34,98.67,51.93,182,40.08,186.05s-49-72.6-83-171.27-51.93-182-40.08-186S990.06,1806.16,1024,1904.83Z"/><path class="cls-20" d="M1298.91,2066.84c139.17,161.91,236.23,306.72,216.78,323.44s-148-101-287.2-262.92-236.22-306.72-216.78-323.44S1159.74,1904.92,1298.91,2066.84Z"/><rect class="cls-21" x="449.71" y="1706.46" width="1920" height="1920"/></g><path class="cls-22" d="M359.5,865.26C334,875.46,323.42,907,324.1,934.74s9.38,55,8.7,82.76c-.82,33.59-15.18,65.13-22.45,97.9-16.13,72.66,3,148.28,25.91,219s50.08,142,50.31,216.47-33.63,154.77-101.13,184.33c61.6-12,123-32.11,173.26-70.07s88.45-95.88,92-159.3c4.07-73-34.68-154.88,7.42-214.25,33.68-47.5,100.25-51.62,154-73,90.1-35.88,151.44-135,144.06-232.73-59.87-19-108.63-68.48-168.81-86.45C584.89,868.83,456.38,910.81,359.5,865.26Z"/><path class="cls-23" d="M379.53,693.66c.64,2,21.39,103.07,21.39,103.07s-27.88,22-48,51.21-27.23,65.47-27.23,65.47A324.51,324.51,0,0,0,388,965.27c37.6,24,101.13,48,101.13,48l32.41-48,3.24,63.48s92,30.34,195.12,10.65S856,992.49,856,992.49s5.83-60.93-2-116.68-11.67-84.92-11.67-84.92,79.74,39.55,134.19-40.19,72-169.18,72-169.18l-64.82-69.37s-34.36,35-57,54.46S887.09,588,887.09,588,821,465.48,784.67,418.81s-131.59-48.62-160.76-47.32-215.86,22.25-276.15,47.75S98.19,577,72.26,615.87s-24,91.93,11,137S246,906.93,246,906.93l60.93-.65s-16.85-88.16-26.57-121.87-19.45-68.06-19.45-68.06a241.12,241.12,0,0,1,62-18.8C358.78,691.72,379.53,693.66,379.53,693.66Z"/><path class="cls-24" d="M918.77,572.34c-9.48,6.33-19.92,12-30.81,15.48-5.63,1.77-11.39,3.12-17.07,4.71-5.1,1.42-10.93,2.71-15.23,5.92-1.49,1.11.13,3.12,1.6,2.86,3.09-.55,6-2,9-2.95,2.63-.89,5.27-1.73,7.92-2.54,5.72-1.74,11.45-3.46,17-5.66,10.35-4.11,19.56-10,28.3-16.85C920,572.89,919.35,572,918.77,572.34Z"/><path class="cls-24" d="M915.19,798c-7.33.5-14.39,2.34-21.78,2.19a129.35,129.35,0,0,1-21.77-2.27A162.55,162.55,0,0,1,831.24,784c-12.67-6.2-24.2-14.14-36.41-21.12a276.19,276.19,0,0,1-36.92-25.7A91.48,91.48,0,0,1,741.27,720c-4.75-6.59-8.21-14-12.52-20.87a.8.8,0,0,0-1.39.78c3.5,6.71,6,13.93,9.85,20.44a78.1,78.1,0,0,0,13.12,16.2,179.4,179.4,0,0,0,17.32,14.16c6.2,4.6,12.24,9.35,18.92,13.24,25.34,14.74,49.95,31.9,79.33,37.42a112.25,112.25,0,0,0,24.53,2.17,59.87,59.87,0,0,0,12-1.33c4.29-1,8.5-2.6,12.86-3.24C915.85,798.86,915.75,797.93,915.19,798Z"/><path class="cls-24" d="M393.47,748c-.72-6.39-1.46-12.77-2.58-19.1a312.43,312.43,0,0,0-9.35-37.63c-3.84-12.5-7.48-25.06-11.21-37.6-3.35-11.26-6.09-23-12.05-33.18a.66.66,0,0,0-1.15.64c4.64,11.13,7.19,22.85,10.19,34.48,3.13,12.09,6.25,24.18,9.81,36.15a31.57,31.57,0,0,0-7.53.11c-5.26.39-10.55.41-15.82.46a166.13,166.13,0,0,0-33.61,4.07c-11.07,2.38-22,5.48-32.83,8.71s-21.08,7.89-31.69,11.68a107.1,107.1,0,0,0-29.73,16c-.52.4.15,1.31.69.93,8.14-5.64,17.73-9.65,27.12-12.7,10-3.26,19.89-7.08,30-10.23,20.53-6.44,42.25-12.38,63.81-13.48,6-.3,12-.16,18-.39,4.34-.17,9-1.12,13.21.17,3.14,10.64,6.07,21.36,8.19,32.25,1.24,6.33,2.17,12.72,3,19.11.9,6.55,1.1,13.83,3.5,20a1,1,0,0,0,2-.25C395.79,761.59,394.21,754.61,393.47,748Z"/><path class="cls-25" d="M288.13,892.67c6.15,1,16.54,2,16.54,2s6.14,6.42,7.12,15.18-7.13,19.12-25.61,22.68-34.68,10.38-42.46,8.75-11.67-5.51-11.67-5.51l-12,2.27s5.84,23.34-5.18,34.36-17.08,8.1-19.56,4.86a40.2,40.2,0,0,1-4.11-6.81S188,983,177.6,983.35s-11.34-10.3-11.34-10.3v-2.27s-11.35,8.1-13.94-.33,3.57-28.52,3.57-28.52-13-9.72-10.38-16.2,13.29-10.37,13.29-10.37-1.62-21.4,13.94-25.29S288.13,892.67,288.13,892.67Z"/><path class="cls-26" d="M278.85,909c-8-.47-15.82-1.26-23.82-.67-6.33.46-13.19.83-19.19,3.06-5.16,1.92-7.93,5.5-8.15,11.06a24.36,24.36,0,0,0,1.87,10c1.07,2.65,3.21,4.1,5.2,6,.55.53,1.39-.28.85-.83a12.61,12.61,0,0,1-4-8.72,33.09,33.09,0,0,1,0-7.31c.89-6.24,6.71-8.06,12.19-9.06a135.52,135.52,0,0,1,17.52-1.85c5.9-.28,11.86.56,17.7-.22C279.9,910.36,279.66,909,278.85,909Z"/><path class="cls-26" d="M212.16,905.37c-7.63,1.06-16.27,2.68-22.57,7.41-2.46,1.85-5.87,3.78-7.66,6.34-2,2.82-1,6.49-.29,9.58,2,8.59,4.11,17.21,6.22,25.78,1.82,7.34.58,15.09,6,21,.59.65,1.49-.27,1-.93-4.52-5.66-3.25-13.4-4.14-20.19-1-7.46-2.7-14.83-4.4-22.16-.68-2.95-2.59-7.7-1.37-10.6,1.05-2.5,4.33-5.32,6.33-7.08,6-5.28,13.39-7.09,21.16-8.17C213,906.24,212.78,905.28,212.16,905.37Z"/><path class="cls-26" d="M194.12,898.9a119.8,119.8,0,0,0-21.43,6.91,67.61,67.61,0,0,0-15.83,8.84c-5.63,1.21-12.86,6.89-12.73,12.74.1,4.33,2.84,8.29,5.83,11.19a47.4,47.4,0,0,0,4.17,3.45c1,1.12,2.17,2.12,3,3.29a43.14,43.14,0,0,1,4.38,8.28c2.77,6.54,4.8,14.27,4,21.38,0,.55.76.63.92.15,2.51-7.47.61-16-2-23.17-.43-1.16-1.13-3-2-5a.75.75,0,0,0,0-.52,9.87,9.87,0,0,0-3.33-4.89,8.54,8.54,0,0,0-3.36-2.7c-2.82-2.21-5.56-4.55-7.25-7.79-2-3.87-1.07-6.73,1.94-9.58a24,24,0,0,1,7.84-4.88,1.35,1.35,0,0,0,.78-1.28,155.57,155.57,0,0,1,15.5-7c3.57-1.43,7.18-2.79,10.85-3.93,3.3-1,6.53-1.79,9.35-3.86A.93.93,0,0,0,194.12,898.9Z"/><path class="cls-25" d="M965.2,523.5c2.6-18.15,15.56-34.71,55.75-38.42s80.71,5.68,84.27,15.73-.65,15.56-20.42,15.56-31.44,1-31.44,1,5.19,26.9,13.29,41.81,11,16.86,11,16.86,27.55-19.78,42.79-17.51,21.71,14.26,6.15,24.64-35,18.19-35,18.19a134.11,134.11,0,0,0,22,9c13.29,4.22,12.64,22.37-2.27,24s-28.52-6.81-41.81-12.64a68.65,68.65,0,0,1-21.07-14.26s-11,1.29-16.85.64l-5.84-.64a19.54,19.54,0,0,1-16.2,6.48c-10.7-.65-24-12.64-33.39-34S965.2,523.5,965.2,523.5Z"/><path class="cls-25" d="M1013.17,575.36c.33-1,25-28.52,35.33-26.26s18.8,11.67,5.84,29.5-21.07,22.78-22,22.73S1013.17,575.36,1013.17,575.36Z"/><path class="cls-26" d="M1093.53,583.66c-8-6.56-19.42-5.65-29-5.45a.71.71,0,0,0,0,1.42c8.18.19,17.94.89,25.09,5.23,4.43,2.7,6.23,7.21,3.23,11.71-2.65,4-6.12,5.94-10.65,7.21-9.11,2.55-18.9,2.61-28.29,2.56-4.88,0-9.75,0-14.62-.05-2.42,0-5.65.3-8.49,0,1.17-1,2.31-2.09,3.47-3.13,3.59-3.25,7.66-6.2,11-9.67a115,115,0,0,0,8.06-10.07,47.11,47.11,0,0,0,6.13-10.69c2.61-6.2,4.86-14.32-.1-20s-12.84-6-19.34-2.87c-4.57,2.21-8.47,5.94-12.23,9.28s-6.47,7.88-10.28,11.2c-.66.58.2,1.79.93,1.25,7.8-5.73,13.6-13.8,22.39-18.3,4.16-2.13,9.09-3,13.26-.41,4.56,2.85,5.13,7.53,4,12.36-2.2,9-7.62,16-13.16,23.13-3.08,4-7.22,7-10.85,10.51-1.9,1.83-3.77,3.7-5.69,5.51-.37.35-.78.71-1.18,1.06,0,0-.05,0-.07,0-1.67-.79-3.19,1.4-2,2.44a12.93,12.93,0,0,1-1.71,2.47.17.17,0,0,0,.2.26c1.35-.76,2.67-1.08,3.94-1.74,3.36.85,7.21.47,10.56.56,6.53.17,13.08.12,19.61,0a158.89,158.89,0,0,0,17-1.08c5.06-.61,10.68-1.49,15.19-4C1097.41,600.09,1101,589.8,1093.53,583.66Z"/><path class="cls-27" d="M547.42,901.74s60.07-40.19,99.39-156S687.87,604,687.87,604l-54-28.52s20.31-13.4,37.16-20.75,35.44-13.83,35.44-13.83S700,466.56,673.61,401.74s-61.37-85.13-99-87.3-108,22-128.35,36.31-50.13,42.35-70.44,88.59-20.31,150-20.31,150l67.85-2.5-39.33,38.37s28.09,33.28,77.36,97.24S547.42,901.74,547.42,901.74Z"/><path class="cls-28" d="M465.09,549s31.12,77.92,55.1,164.14S548.07,894,548.07,894s31.76-40.19,46-163.35S629,397.25,629,397.25L427.16,444.37Z"/><path class="cls-24" d="M840.28,1002.06c-19.52,7.12-38.69,15-58.53,21.2a439.47,439.47,0,0,1-60.62,14.56,468.43,468.43,0,0,1-63.21,6.07,454.48,454.48,0,0,1-61.94-2.6q-17.61-1.92-35-5.43c-11.47-2.32-22.87-6-34.45-7.76-.5-10.42-1.3-20.85-2-31.25-.36-5.06-.77-10.12-1.1-15.18-.35-5.39-.17-10.77-.4-16.15a1.08,1.08,0,0,0-.25-.64.87.87,0,0,0-1.45-.74c-7,6.17-12,14.45-17,22.24-2.73,4.27-5.46,8.54-8.33,12.72s-6.62,8.28-9,12.76c-9.48-5.47-19.9-9.59-29.89-14-11-4.86-22.06-9.66-33-14.78-21.81-10.22-42.72-21.9-61.38-37.24-5.22-4.3-10.3-8.78-15.33-13.31s-9.88-9.59-15.4-13.55c-.68-.49-1.3.49-.85,1,3.93,5,8.84,9.24,13.43,13.57S353.74,942,358.44,946a241,241,0,0,0,29,21.21c20,12.39,41.58,21.83,63.05,31.29,12.33,5.43,24.42,11.62,36.89,16.7a1.23,1.23,0,0,0,1.66-.95,2.29,2.29,0,0,0,.33-.24c3.58-3.25,6.34-8,9-12s5.31-8.27,7.77-12.53A167,167,0,0,1,520.42,968c-1.22,9.21.1,19,.66,28.19.65,10.64,1.24,21.3,2.13,31.92a1.75,1.75,0,0,0,.6,2.74c10.51,4.11,22.1,6.31,33.12,8.63q15.35,3.22,30.91,5.24a416.5,416.5,0,0,0,63.06,3c41.69-.86,83.6-8.34,123.59-19.9,22.53-6.51,45.34-13.89,66.17-24.8C841.17,1002.75,840.84,1001.85,840.28,1002.06Z"/><path class="cls-24" d="M707.82,539.16c-1.23-23.27-5.73-46.18-11.63-68.68-5.82-22.14-12-44.47-19.75-66-4-11-8.47-22.93-16.16-32-.47-.54-1.22.13-.95.71,4.56,10,9.71,19.5,13.49,29.83,3.6,9.88,6.48,20,9.4,30.13,6.4,22.18,12.82,44.41,17.15,67.11a287.18,287.18,0,0,1,4.9,38.76,200.86,200.86,0,0,0-36.22,14.13c-6,3.08-11.85,6.48-17.54,10.09s-12,7.28-16.46,12.25a.89.89,0,0,0,.62,1.5c3.24,3.37,8.49,5.49,12.49,7.74,4.52,2.56,9,5.13,13.58,7.63C669,597,677.56,602,686.39,605.56a85.06,85.06,0,0,0-3.89,13.64q-2,8.58-4.14,17.13-4.29,17.1-9.1,34.06t-10.07,33.78c-3.36,10.71-7.75,21.39-10.32,32.33-5.3,10.88-9.11,22.65-13.78,33.79-5.21,12.42-10.69,24.71-16.67,36.78-11.7,23.59-25.2,46.86-42.2,67.07a138.18,138.18,0,0,1-14.4,14.93c-2.78,2.44-5.67,4.76-8.66,6.92-1.78,1.28-3.65,2.41-5.45,3.65C534.33,861.71,519.78,824.1,502,788c-4.49-9.13-9-18.26-14.09-27.06a1.08,1.08,0,0,0-.09-.58c-2.08-4.78-5.4-9.23-8.3-13.55-3.07-4.57-6.27-9.06-9.51-13.51-6.21-8.52-12.64-16.88-19.1-25.21C436.92,690,423,672,408.86,654l-11.61-14.77c-3.59-4.56-7-9.43-10.94-13.75q9.15-9.22,18.35-18.39c6-6,13.08-11.66,18.16-18.49l.33-.13a1.14,1.14,0,0,0-.24-2.07c-2.55-.56-5.23.05-7.82.26-2.94.24-5.87.43-8.81.59q-8.5.45-17,.41c-5.6,0-11.2-.24-16.8-.41-5-.14-10-.22-14.77,1.27a1.17,1.17,0,0,0-1.35-.3c-1.08.39-.48-4.17-.47-4.4l.33-4.52q.35-4.85.7-9.69.68-9,1.34-18.09c.85-11.71,1.62-23.44,2.72-35.13,2-20.72,4.77-41.34,9.84-61.51,1.61-3.48,2.6-7.26,4.05-10.81,1.93-4.71,4.1-9.37,6.29-14q3-6.27,6.37-12.36c2.17-3.9,4.93-7.63,6.69-11.73.28-.66-.71-1.19-1.17-.71-3.2,3.33-5.48,7.76-7.81,11.73q-3.66,6.24-6.82,12.76c-2,4.11-3.71,8.29-5.31,12.56-1.22,3.28-2.7,6.57-3.63,10-1,2.79-2,5.6-2.79,8.54-1.36,5.07-2.52,10.19-3.56,15.33-1.95,9.68-3.47,19.4-4.56,29.22-2.31,20.87-3.46,41.89-4.92,62.84-.42,6.14-1.27,12.4-1.3,18.55,0,2.75,2,6.19,5.1,4.14a1.48,1.48,0,0,0,.61-.87c10.84-.73,21.58.5,32.43.55,5.67,0,11.35-.1,17-.4q4.41-.24,8.81-.61c.93-.08,1.86-.13,2.78-.21-5.88,4.63-11.05,10.55-16.33,15.69q-9.33,9.12-18.56,18.34a1,1,0,0,0-1.16,1.16l-.24.23a1.49,1.49,0,0,0,1.84,2.31c2.43,3.6,5.24,7,7.87,10.41l10.67,13.89q10.45,13.63,21,27.18c13.86,17.83,28,35.49,41.4,53.65q5.28,7.14,10.32,14.45c3.37,4.92,6.35,10.34,10.15,14.93a1,1,0,0,0,.42.32c10,22.28,21.16,44.06,30.82,66.54,10.27,23.94,19.88,48.15,28.09,72.88l-.44.36a.88.88,0,0,0,.83,1.47c.22-.07.45-.16.67-.25a1.47,1.47,0,0,0,1.95-.83c4.47-2.16,8.6-5.68,12.29-8.79a142.09,142.09,0,0,0,13.3-12.9,240.55,240.55,0,0,0,23.36-30.66c14.69-22.48,26.48-46.63,37-71.28Q639,767.82,643.27,757c2.32-5.81,4.88-11.63,6.85-17.6a1,1,0,0,0,.75-.61c5-10.2,8-21.61,11.38-32.4q5.36-16.78,10.17-33.75c6.24-21.91,11.62-44,16.74-66.22a1.74,1.74,0,0,0,.6-3.13c-4.43-2.63-9.33-4.63-14-6.91s-9.31-4.64-13.94-7c-4.45-2.27-8.88-4.56-13.26-7-3.68-2-7.66-5-11.75-6.47,5-2.93,9.65-6.77,14.56-9.89a193.08,193.08,0,0,1,17.66-9.87,213.85,213.85,0,0,1,37.87-14.53A1.61,1.61,0,0,0,707.82,539.16Z"/><path class="cls-25" d="M456.21,242.79s-11.55,157.26-12.87,172.84,76.43-8.34,30.86,25.41c0,0,21.52.63,80.32-8.71,94.12-14.95,42.7-6.5,53.92-30.45,0,0,5.31,4-1.2-21-7.79-30-27.46-159.35-27.46-159.35Z"/><path class="cls-26" d="M456.2,242.79l123.58-21.3S588.67,280,596.86,327.4a181.66,181.66,0,0,1-23.19,29.22c-20.13,20.29-43.37,25.57-64.27,29.17-25.42,4.39-45.82-2.85-62.38-18.58C450.85,315.76,456.2,242.79,456.2,242.79Z"/><path class="cls-29" d="M517.45,437.78l47.94,36.53,60.26-67.6,2.24-8.42s-9.72-1.68-14.41-2.42C613.48,395.87,576.73,427.34,517.45,437.78Z"/><path class="cls-29" d="M516.22,438a220.7,220.7,0,0,1-88.91-3.12l-.19,12,50,41.65Z"/><path class="cls-30" d="M539.22,484.77l18.53-32.89-41.81-26.33-34.72,40.16L507,491.24s20.94,52,29.73,112.86c10.65,73.82,9.15,162.09,4.17,203.65-.2,1.85-.43,3.69-.67,5.54,6.39,46.24,7.8,80.67,7.8,80.67s12-15.16,24.53-55.39C577.27,747,539.22,484.77,539.22,484.77Z"/><polygon class="cls-28" points="605.13 353.23 515.91 424.17 436.81 394.37 419.7 436.11 427.2 441.02 477.02 473.61 516.78 429.27 562.21 460.26 629 397.25 605.13 353.23"/><path class="cls-25" d="M580.88,176.73s.69-16.37,21.13-20.49c19.77-4,27.8,47.43,13.24,60.59s-27.4-9.81-27.4-9.81Z"/><path class="cls-25" d="M394.11,231.71s-9.45-13.38-28.87-5.77c-18.77,7.36,2.34,54.93,21.7,58.09S404.65,261,404.65,261Z"/><path class="cls-25" d="M370.3,234.48c40.86,103,89.68,143.88,161.13,122.85s93.42-73.11,68.88-190.55C582.2,80.05,516.12,42.57,444.94,63.52S336.35,148.91,370.3,234.48Z"/><path class="cls-31" d="M543.61,202c1.18,4,4.95,6.43,8.44,5.4s5.33-5.1,4.15-9.11-5-6.43-8.43-5.41S542.43,198,543.61,202Z"/><path class="cls-31" d="M428.89,235.77c1.18,4,4.95,6.43,8.43,5.4s5.34-5.1,4.16-9.11-5-6.43-8.44-5.4S427.71,231.76,428.89,235.77Z"/><path class="cls-32" d="M564.77,170.74a3.92,3.92,0,0,0,1-7.1c-7.79-4.79-26.3-14.26-43.17,5.67a4.1,4.1,0,0,0-.15,5.54,3.92,3.92,0,0,0,5.54.15c16.09-15.21,33.49-4.79,33.66-4.68A4,4,0,0,0,564.77,170.74Z"/><path class="cls-32" d="M402.11,218.62a3.88,3.88,0,0,1-2.79-.23,3.92,3.92,0,0,1-1.85-5.23c3.95-8.24,14.38-26.23,39.35-18.61a4.08,4.08,0,0,1,3.13,4.57,3.91,3.91,0,0,1-4.57,3.13c-21.77-4.07-30.75,14.11-30.83,14.3A4,4,0,0,1,402.11,218.62Z"/><path class="cls-26" d="M503.4,280.24c5.23-1.73,9-4.39,9.83-8.87,2.55-14-14.87-30.18-16.67-32.27-1.24-1.45-2.66-2.1-4.11-.86s-.17,3.27,1.08,4.72c5.88,6.86,12.41,20.84,10.77,27.39-.27,1.09-.91,2.47-3.42,3.44a3.53,3.53,0,0,0-2,4.49C500,281.42,503.3,280.28,503.4,280.24Z"/><path class="cls-32" d="M566.24,317.85l8.42,11.8s-10,24.24-41.6,33.53-45.59,1.65-52.55-3.55L480,343.25s5,7.8,9.91,7.58c25.44-1.12,46.64-4.43,71-20.89C560.84,329.94,566.22,321.9,566.24,317.85Z"/><path class="cls-33" d="M512.15,298.39c-8.93,2.83-14.36,10.86-11.14,21.05a29.61,29.61,0,0,0,2.91,6.61c3.73,6,9.91,8.78,21.1,4.09,7.32-3.06,10.18-7.61,9.78-14a29.75,29.75,0,0,0-1.42-6.94C530.15,299,521.09,295.56,512.15,298.39Z"/><path class="cls-32" d="M510.47,284.2s-20.59,8-28.2,12.06c0,0-4.36,3.27-.84,15.24L515,298.57s21.88-5.16,33.8-5.35c0,0-2.22-11.26-8.14-12.83S521.75,282.54,510.47,284.2Z"/></g></g></svg>